<?xml version="1.0" encoding="iso-8859-1"?>
<!-- Generator: Adobe Illustrator 18.1.1, SVG Export Plug-In . SVG Version: 6.00 Build 0)  -->
<svg version="1.1" id="Layer_1" xmlns="http://www.w3.org/2000/svg" xmlns:xlink="http://www.w3.org/1999/xlink" x="0px" y="0px"
	 viewBox="20.082 272.991 530.408 88.401" style="enable-background:new 20.082 272.991 530.408 88.401;" xml:space="preserve">
<g>
	<rect x="108.483" y="272.991" style="fill:none;" width="88.401" height="88.401"/>
	<g>
		<path style="fill:#29B473;" d="M171.028,317.192c-1.622,0-2.159-1.195-2.449-1.764c-0.751-1.47-1.939-3.72-4.013-4.916
			c-0.797,1.275-1.117,1.915-1.435,3.909c-1.275-6.462,1.1-10.788,1.444-12.698c-2.338,0.593-5.751,2.807-6.856,5.791
			c-0.574-0.34-2.294-0.636-2.803-0.636h-5.991c-5.867,0-11.901,4.192-13.178,11.043c-0.884,0.236-1.97-0.314-1.97-1.589
			c0-1.746,2.176-1.691,2.283-0.895c0-2.554-4.001-2.168-4.001,1.138c0,3.372,2.103,3.967,3.439,4.006
			c0,0.017-0.001,0.033-0.001,0.049c0,3.599,1.738,6.868,4.569,9.316c0.404,0.35,1.229,1.223,0.952,2.632
			c-0.278,1.408-0.75,3.744-0.75,3.744l7.482,1.497c0,0,0.273-1.093,0.459-2.294c0.186-1.199,1.15-1.37,2.284-1.264
			c0.718,0.065,1.448,0.118,2.192,0.118c0.908,0,1.796-0.064,2.664-0.176c0.507-0.067,1.512-0.089,1.743,0.975
			c0.23,1.063,0.529,2.64,0.529,2.64l7.482-1.496c0,0-0.643-2.981-0.811-3.887c-0.169-0.906,0.496-1.599,0.82-1.884
			c1.106-0.97,2.027-2.082,2.515-3.169c0.292-0.655,1.294-1.595,2.706-1.595c1.119,0,2.98,0,2.98,0v-8.595L171.028,317.192
			L171.028,317.192z M163.857,322.348c-1.424,0-2.578-1.155-2.578-2.578s1.155-2.578,2.578-2.578c1.423,0,2.578,1.155,2.578,2.578
			S165.28,322.348,163.857,322.348z M144.691,305.159c-0.375-0.784-0.602-1.652-0.602-2.578c0-3.323,2.693-6.016,6.016-6.016
			c3.323,0,6.017,2.693,6.017,6.016c0,0.926-0.227,1.795-0.602,2.578H144.691z"/>
	</g>
	<rect x="20.082" y="272.991" style="fill:none;" width="88.401" height="88.401"/>
	<g>
		<path style="fill:#29B473;" d="M44.684,324.373c-1.516,3.488-1.888,6.946-1.898,9.483c-0.005,2.19,1.773,3.963,3.963,3.963h17.731
			h17.335c2.19,0,3.969-1.773,3.963-3.963c-0.005-2.537-0.381-5.995-1.892-9.483c-2.938-6.767-8.254-14.144-13.822-17.706h-5.583
			h-5.979C52.932,310.229,47.617,317.605,44.684,324.373z M67.052,324.189c-0.589-0.723-1.6-1.031-2.512-1.239
			c-1.13-0.258-2.145-0.515-3.166-1.085c-0.654-0.367-1.169-0.882-1.526-1.531c-0.352-0.644-0.53-1.387-0.53-2.199
			c0-1.452,0.52-2.641,1.551-3.543c0.609-0.535,1.442-0.906,2.383-1.075v-0.793c0-0.535,0.436-0.966,0.966-0.966h0.525
			c0.535,0,0.966,0.436,0.966,0.966v0.803c0.872,0.169,1.65,0.51,2.229,0.996c0.619,0.51,1.07,1.164,1.348,1.937
			c0.203,0.57-0.169,1.189-0.773,1.278l-0.51,0.074c-0.461,0.07-0.912-0.203-1.06-0.644c-0.124-0.362-0.288-0.659-0.49-0.887
			c-0.461-0.52-1.189-0.813-1.997-0.813c-0.857,0-1.67,0.337-2.17,0.897c-0.411,0.461-0.609,0.991-0.609,1.62
			c0,0.614,0.173,1.139,0.515,1.546c0.714,0.857,1.882,1.095,3.012,1.323c0.659,0.134,1.343,0.272,1.932,0.53
			c0.629,0.278,1.155,0.624,1.556,1.025c0.401,0.401,0.718,0.887,0.936,1.442c0.213,0.55,0.327,1.155,0.327,1.799
			c0,1.407-0.456,2.596-1.353,3.543c-0.738,0.773-1.739,1.288-2.893,1.491v0.585c0,0.535-0.436,0.966-0.966,0.966h-0.525
			c-0.535,0-0.966-0.436-0.966-0.966v-0.609c-0.634-0.119-1.244-0.327-1.789-0.605c-0.644-0.332-1.204-0.872-1.67-1.605
			c-0.312-0.49-0.535-1.056-0.674-1.69c-0.114-0.535,0.243-1.056,0.783-1.149l0.525-0.089c0.5-0.089,0.981,0.223,1.105,0.714
			c0.149,0.58,0.347,1.031,0.595,1.348c0.555,0.714,1.472,1.139,2.452,1.139l0,0c0.169,0,0.332-0.015,0.496-0.035
			c0.704-0.104,1.328-0.436,1.769-0.936c0.461-0.525,0.694-1.189,0.694-1.967C67.537,325.116,67.374,324.581,67.052,324.189z"/>
		<path style="fill:#29B473;" d="M64.491,296.565h-0.01l0,0l-7.555,0.02c-1.382,0.005-2.205,1.546-1.437,2.695l3.389,5.083h5.603
			h0.02h5.603l3.389-5.083c0.768-1.149-0.054-2.69-1.437-2.695l-7.555-0.02l0,0C64.501,296.565,64.491,296.565,64.491,296.565z"/>
	</g>
	<rect x="373.687" y="272.991" style="fill:none;" width="88.401" height="88.401"/>
	<g>
		<g>
			<path style="fill:#29B473;" d="M438.252,296.565h-40.727c-0.9,0-1.629,0.73-1.629,1.629v11.321c0,0.9,0.73,1.629,1.629,1.629
				h3.544l0.507-3.258h-2.421v-8.063h37.469v8.063h-2.421c0.169,1.086,0.338,2.172,0.507,3.258h3.544c0.9,0,1.629-0.73,1.629-1.629
				v-11.321C439.88,297.294,439.151,296.565,438.252,296.565z"/>
			<path style="fill:#29B473;" d="M436.072,329.458c-1.337-8.6-2.674-17.199-4.012-25.798c-0.219-1.406-1.369-2.465-2.677-2.465
				h-8.736h-14.254c-1.308,0-2.458,1.06-2.677,2.465l-1.862,11.975c-0.997,6.406-1.993,12.812-2.989,19.218
				c-0.113,0.727,0.095,1.463,0.571,2.02c0.515,0.601,1.297,0.946,2.144,0.946h11.959h20.656c0.847,0,1.628-0.345,2.144-0.946
				c0.476-0.556,0.684-1.292,0.571-2.019L436.072,329.458z M416.854,334.56h-3.314h-11.331c0.955-6.142,1.91-12.283,2.865-18.425
				l1.817-11.683h10.243C417.039,314.489,416.947,324.525,416.854,334.56z M427.401,334.56c-0.858-10.035-1.713-20.071-2.571-30.107
				h4.055c1.323,8.501,2.644,17.003,3.966,25.505l0.715,4.602H427.401z"/>
		</g>
	</g>
	<rect x="196.885" y="272.991" style="fill:none;" width="88.401" height="88.401"/>
	<g>
		<g>
			<path style="fill:#006838;" d="M241.085,293.618c13.019,0,23.574,10.555,23.574,23.574s-10.555,23.574-23.574,23.574
				s-23.574-10.555-23.574-23.574S228.066,293.618,241.085,293.618 M241.085,290.671c-14.623,0-26.52,11.897-26.52,26.52
				s11.897,26.52,26.52,26.52c14.623,0,26.52-11.897,26.52-26.52S255.709,290.671,241.085,290.671L241.085,290.671z"/>
		</g>
		<g>
			<g>
				<path style="fill:#29B473;" d="M226.019,307.129c0-1.949,0.63-3.564,1.889-4.846c1.259-1.282,3.05-1.922,5.374-1.922
					c2.353,0,4.16,0.641,5.419,1.922c1.259,1.282,1.889,2.897,1.889,4.846v1.732c0,1.949-0.63,3.557-1.889,4.823
					c-1.259,1.267-3.051,1.9-5.374,1.9c-2.339,0-4.141-0.637-5.408-1.911c-1.267-1.274-1.9-2.878-1.9-4.813L226.019,307.129
					L226.019,307.129z M230.877,308.855c0,0.745,0.21,1.367,0.629,1.866c0.42,0.499,1.027,0.748,1.821,0.748
					c0.765,0,1.353-0.25,1.765-0.748c0.413-0.499,0.618-1.121,0.618-1.866v-1.72c0-0.744-0.21-1.374-0.63-1.888
					c-0.42-0.513-1.02-0.771-1.799-0.771c-0.765,0-1.357,0.258-1.777,0.771c-0.42,0.514-0.629,1.143-0.629,1.888v1.72H230.877z
					 M234.519,331.122l-3.53-1.776l15.988-25.59l3.53,1.776L234.519,331.122z M241.558,325.546c0-1.934,0.637-3.541,1.911-4.823
					c1.274-1.282,3.073-1.922,5.397-1.922c2.353,0,4.156,0.638,5.408,1.911c1.251,1.275,1.878,2.887,1.878,4.834v1.732
					c0,1.964-0.626,3.58-1.878,4.846c-1.252,1.267-3.039,1.9-5.363,1.9c-2.339,0-4.149-0.637-5.431-1.912
					c-1.282-1.274-1.922-2.885-1.922-4.834V325.546z M246.438,327.272c0,0.715,0.239,1.333,0.719,1.855
					c0.48,0.522,1.064,0.781,1.754,0.781c0.929,0,1.559-0.23,1.889-0.692c0.329-0.461,0.494-1.11,0.494-1.944v-1.72
					c0-0.73-0.214-1.352-0.641-1.866c-0.427-0.514-1.023-0.771-1.787-0.771c-0.78,0-1.38,0.257-1.799,0.771
					c-0.42,0.514-0.629,1.136-0.629,1.866L246.438,327.272L246.438,327.272z"/>
			</g>
		</g>
		
			<line style="fill:none;stroke:#006838;stroke-width:5;stroke-miterlimit:10;" x1="262.685" y1="305.169" x2="219.486" y2="329.214"/>
	</g>
	<rect x="462.089" y="272.991" style="fill:none;" width="88.401" height="88.401"/>
	<g id="Layer_5_1_">
		<g>
			<path style="fill:#29B473;" d="M515.922,325.37c-0.425,0.015-0.618,0.058-0.824,0.088c-7.608,1.094-18.819,2.707-24.985,3.595
				c-0.238,0.034-0.247-0.278-0.247-0.278l-0.314-2.18c-0.042-0.29-0.314-0.493-0.603-0.451l-2.496,0.359
				c0,0-0.331,0.083-0.38-0.252c-0.323-2.246-0.958-6.662-1.292-8.983c-0.049-0.343,0.303-0.343,0.303-0.343s0.43-0.062,0.574-0.083
				c0.36-0.05,0.314-0.543,0.314-0.543s0-3.128,0-4.171c0-0.282-0.464-0.282-0.464-0.282l-1.582,0.227
				c-1.222,0.176-2.073,1.313-1.897,2.535l2.215,15.397c0.176,1.222,1.313,2.073,2.535,1.897l36.55-5.259
				c0.675-0.097,1.236-0.489,1.575-1.025c0.05-0.08,0.005-0.23-0.292-0.248L515.922,325.37L515.922,325.37z"/>
			<path style="fill:#29B473;" d="M528.335,302.458h-36.927c-1.235,0-2.239,1.004-2.239,2.239v15.555
				c0,1.235,1.004,2.239,2.239,2.239h36.927c1.235,0,2.239-1.004,2.239-2.239v-15.555
				C530.574,303.463,529.57,302.458,528.335,302.458z M528.229,316.663c0,0.4-0.463,0.437-0.463,0.437h-2.845
				c-0.293,0-0.533,0.24-0.533,0.533v2.149c0,0-0.034,0.364-0.38,0.364c-7.223,0-21.574,0-28.892,0c-0.24,0-0.205-0.311-0.205-0.311
				v-2.202c0-0.293-0.24-0.533-0.533-0.533h-2.522c0,0-0.34,0.034-0.34-0.303c0-2.269,0-6.731,0-9.075
				c0-0.347,0.349-0.296,0.349-0.296h2.514c0.293,0,0.533-0.24,0.533-0.533v-1.836c0,0-0.048-0.252,0.259-0.252
				c7.305,0,21.729,0,28.972,0c0.285,0,0.246,0.23,0.246,0.23v1.858c0,0.293,0.24,0.533,0.533,0.533h3.059
				c0,0,0.25-0.024,0.25,0.176C528.229,309.976,528.229,314.398,528.229,316.663z"/>
			<path style="fill:#29B473;" d="M509.948,311.624c-1.246-0.5-1.607-0.802-1.607-1.348c0-0.437,0.331-0.947,1.263-0.947
				c0.825,0,1.457,0.325,1.463,0.328c0.067,0.035,0.141,0.054,0.215,0.054c0.18,0,0.34-0.109,0.406-0.278l0.226-0.579
				c0.079-0.211-0.041-0.395-0.193-0.461c-0.508-0.221-1.5-0.393-1.51-0.394c-0.016-0.003-0.071-0.015-0.071-0.08l-0.004-0.84
				c0-0.253-0.212-0.459-0.471-0.459h-0.406c-0.259,0-0.47,0.206-0.47,0.459l0.001,0.883c0,0.068-0.074,0.097-0.1,0.103
				c-1.253,0.298-2.036,1.216-2.036,2.374c0,1.443,1.193,2.095,2.481,2.585c1.03,0.404,1.45,0.814,1.45,1.415
				c0,0.654-0.595,1.111-1.447,1.111c-0.728,0-1.713-0.461-1.723-0.466c-0.063-0.029-0.13-0.045-0.199-0.045
				c-0.187,0-0.351,0.113-0.416,0.289l-0.216,0.586c-0.077,0.219,0.042,0.396,0.193,0.475c0.605,0.315,1.775,0.5,1.828,0.507
				c0.014,0.002,0.085,0.027,0.085,0.092v0.879c0,0.253,0.211,0.459,0.471,0.459h0.42c0.26,0,0.471-0.206,0.471-0.459v-0.926
				c0-0.087,0.064-0.094,0.077-0.097c1.335-0.3,2.157-1.277,2.157-2.502C512.286,313.085,511.586,312.271,509.948,311.624z"/>
		</g>
	</g>
	<rect x="285.286" y="272.991" style="fill:none;" width="88.401" height="88.401"/>
	<g>
		<g>
			<path style="fill:#006838;" d="M329.487,293.618c13.019,0,23.574,10.555,23.574,23.574s-10.555,23.574-23.574,23.574
				s-23.574-10.555-23.574-23.574S316.467,293.618,329.487,293.618 M329.487,290.671c-14.623,0-26.52,11.897-26.52,26.52
				s11.897,26.52,26.52,26.52c14.623,0,26.52-11.897,26.52-26.52S344.11,290.671,329.487,290.671L329.487,290.671z"/>
		</g>
		<g>
			<path style="fill:#29B473;" d="M312.306,306.701h11.522v4.498h-7.804l-0.417,3.045c0.54-0.295,1.074-0.516,1.602-0.664
				c0.528-0.147,1.05-0.222,1.567-0.222c1.747,0,3.165,0.614,4.253,1.841c1.088,1.227,1.632,2.773,1.632,4.636
				c0,1.31-0.28,2.57-0.84,3.778c-0.56,1.209-1.354,2.131-2.383,2.768c-1.029,0.637-2.346,0.955-3.95,0.955
				c-1.152,0-2.139-0.127-2.961-0.381c-0.822-0.254-1.521-0.632-2.097-1.135c-0.576-0.503-1.043-1.073-1.4-1.709
				c-0.357-0.636-0.655-1.43-0.893-2.38l4.909-0.623c0.119,0.913,0.397,1.608,0.834,2.083c0.437,0.475,0.957,0.712,1.561,0.712
				c0.675,0,1.233-0.298,1.674-0.893c0.441-0.595,0.661-1.483,0.661-2.664c0-1.208-0.223-2.094-0.667-2.657
				c-0.445-0.563-1.037-0.844-1.776-0.844c-0.469,0-0.921,0.134-1.358,0.401c-0.326,0.194-0.683,0.545-1.073,1.052l-4.134-0.692
				L312.306,306.701z"/>
			<path style="fill:#29B473;" d="M326.794,311.684c0-0.941,0.177-1.836,0.53-2.685c0.353-0.849,0.893-1.502,1.62-1.958
				c0.727-0.457,1.587-0.685,2.58-0.685c1.462,0,2.613,0.484,3.455,1.453c0.842,0.969,1.263,2.261,1.263,3.875
				c0,1.624-0.421,2.92-1.263,3.889c-0.842,0.969-1.994,1.453-3.455,1.453c-0.993,0-1.853-0.229-2.58-0.685
				c-0.727-0.457-1.267-1.109-1.62-1.958C326.971,313.534,326.794,312.634,326.794,311.684z M330.142,311.711
				c0,1.144,0.159,1.975,0.476,2.491c0.207,0.341,0.508,0.512,0.906,0.512c0.397,0,0.695-0.171,0.893-0.512
				c0.318-0.516,0.477-1.347,0.477-2.491c0-1.135-0.159-1.965-0.477-2.491c-0.199-0.332-0.496-0.498-0.893-0.498
				s-0.699,0.166-0.906,0.498C330.301,309.737,330.142,310.567,330.142,311.711z M341.624,306.355h2.518l-10.091,21.673h-2.491
				L341.624,306.355z M339.388,322.658c0-0.95,0.175-1.848,0.525-2.692c0.349-0.844,0.889-1.497,1.62-1.958
				c0.731-0.461,1.589-0.692,2.574-0.692c1.469,0,2.625,0.487,3.467,1.46c0.842,0.974,1.263,2.267,1.263,3.882
				s-0.421,2.909-1.263,3.882c-0.842,0.974-1.998,1.46-3.467,1.46c-0.985,0-1.843-0.231-2.574-0.692s-1.271-1.114-1.62-1.958
				C339.563,324.506,339.388,323.609,339.388,322.658z M342.736,322.686c0,1.144,0.159,1.974,0.477,2.491
				c0.199,0.332,0.496,0.498,0.893,0.498s0.699-0.166,0.906-0.498c0.318-0.517,0.476-1.347,0.476-2.491s-0.159-1.979-0.476-2.505
				c-0.207-0.332-0.509-0.498-0.906-0.498s-0.695,0.171-0.893,0.512C342.895,320.712,342.736,321.542,342.736,322.686z"/>
		</g>
	</g>
</g>
</svg>
