
<svg version="1.1" id="Layer_1" xmlns="http://www.w3.org/2000/svg" xmlns:xlink="http://www.w3.org/1999/xlink" x="0px" y="0px"
	 viewBox="0 0 750 150" enable-background="new 0 0 750 150" xml:space="preserve">
<g>
	<rect x="150" y="0" fill="none" width="150" height="150"/>
	<g>
		<path fill="#29B473" d="M256.1,75c-2.8,0-3.7-2-4.2-3c-1.3-2.5-3.3-6.3-6.8-8.3c-1.4,2.2-1.9,3.2-2.4,6.6
			c-2.2-11,1.9-18.3,2.4-21.5c-4,1-9.8,4.8-11.6,9.8c-1-0.6-3.9-1.1-4.8-1.1h-10.2c-10,0-20.2,7.1-22.4,18.7
			c-1.5,0.4-3.3-0.5-3.3-2.7c0-3,3.7-2.9,3.9-1.5c0-4.3-6.8-3.7-6.8,1.9c0,5.7,3.6,6.7,5.8,6.8c0,0,0,0.1,0,0.1
			c0,6.1,2.9,11.7,7.8,15.8c0.7,0.6,2.1,2.1,1.6,4.5c-0.5,2.4-1.3,6.4-1.3,6.4l12.7,2.5c0,0,0.5-1.9,0.8-3.9c0.3-2,2-2.3,3.9-2.1
			c1.2,0.1,2.5,0.2,3.7,0.2c1.5,0,3-0.1,4.5-0.3c0.9-0.1,2.6-0.2,3,1.7c0.4,1.8,0.9,4.5,0.9,4.5l12.7-2.5c0,0-1.1-5.1-1.4-6.6
			c-0.3-1.5,0.8-2.7,1.4-3.2c1.9-1.6,3.4-3.5,4.3-5.4c0.5-1.1,2.2-2.7,4.6-2.7c1.9,0,5.1,0,5.1,0V75H256.1z M244,83.8
			c-2.4,0-4.4-2-4.4-4.4s2-4.4,4.4-4.4c2.4,0,4.4,2,4.4,4.4S246.4,83.8,244,83.8z M211.4,54.6c-0.6-1.3-1-2.8-1-4.4
			c0-5.6,4.6-10.2,10.2-10.2s10.2,4.6,10.2,10.2c0,1.6-0.4,3-1,4.4H211.4z"/>
	</g>
</g>
<g>
	<rect y="0" fill="none" width="150" height="150"/>
	<g>
		<path fill="#29B473" d="M41.7,87.2c-2.6,5.9-3.2,11.8-3.2,16.1c0,3.7,3,6.7,6.7,6.7h30.1h29.4c3.7,0,6.7-3,6.7-6.7
			c0-4.3-0.6-10.2-3.2-16.1c-5-11.5-14-24-23.5-30h-9.5H65.2C55.7,63.2,46.7,75.7,41.7,87.2z M79.7,86.9c-1-1.2-2.7-1.7-4.3-2.1
			c-1.9-0.4-3.6-0.9-5.4-1.8c-1.1-0.6-2-1.5-2.6-2.6c-0.6-1.1-0.9-2.4-0.9-3.7c0-2.5,0.9-4.5,2.6-6c1-0.9,2.4-1.5,4-1.8v-1.3
			c0-0.9,0.7-1.6,1.6-1.6h0.9c0.9,0,1.6,0.7,1.6,1.6v1.4c1.5,0.3,2.8,0.9,3.8,1.7c1.1,0.9,1.8,2,2.3,3.3c0.3,1-0.3,2-1.3,2.2
			l-0.9,0.1c-0.8,0.1-1.5-0.3-1.8-1.1c-0.2-0.6-0.5-1.1-0.8-1.5c-0.8-0.9-2-1.4-3.4-1.4c-1.5,0-2.8,0.6-3.7,1.5
			c-0.7,0.8-1,1.7-1,2.7c0,1,0.3,1.9,0.9,2.6c1.2,1.5,3.2,1.9,5.1,2.2c1.1,0.2,2.3,0.5,3.3,0.9c1.1,0.5,2,1.1,2.6,1.7
			c0.7,0.7,1.2,1.5,1.6,2.4c0.4,0.9,0.6,2,0.6,3.1c0,2.4-0.8,4.4-2.3,6c-1.3,1.3-3,2.2-4.9,2.5v1c0,0.9-0.7,1.6-1.6,1.6h-0.9
			c-0.9,0-1.6-0.7-1.6-1.6v-1c-1.1-0.2-2.1-0.6-3-1c-1.1-0.6-2-1.5-2.8-2.7c-0.5-0.8-0.9-1.8-1.1-2.9c-0.2-0.9,0.4-1.8,1.3-2
			l0.9-0.2c0.8-0.2,1.7,0.4,1.9,1.2c0.3,1,0.6,1.7,1,2.3c0.9,1.2,2.5,1.9,4.2,1.9l0,0c0.3,0,0.6,0,0.8-0.1c1.2-0.2,2.3-0.7,3-1.6
			c0.8-0.9,1.2-2,1.2-3.3C80.5,88.4,80.2,87.5,79.7,86.9z"/>
		<path fill="#29B473" d="M75.4,40L75.4,40L75.4,40l-12.8,0c-2.3,0-3.7,2.6-2.4,4.6l5.7,8.6h9.5h0h9.5l5.7-8.6
			c1.3-2-0.1-4.6-2.4-4.6L75.4,40L75.4,40L75.4,40z"/>
	</g>
</g>
<g>
	<rect x="450" y="0" fill="none" width="150" height="150"/>
	<g>
		<g>
			<path fill="#29B473" d="M559.6,40h-69.1c-1.5,0-2.8,1.2-2.8,2.8V62c0,1.5,1.2,2.8,2.8,2.8h6l0.9-5.5h-4.1V45.5h63.6v13.7h-4.1
				c0.3,1.8,0.6,3.7,0.9,5.5h6c1.5,0,2.8-1.2,2.8-2.8V42.8C562.3,41.2,561.1,40,559.6,40z"/>
			<path fill="#29B473" d="M555.9,95.8c-2.3-14.6-4.5-29.2-6.8-43.8c-0.4-2.4-2.3-4.2-4.5-4.2l-14.8,0l-24.2,0
				c-2.2,0-4.2,1.8-4.5,4.2l-3.2,20.3c-1.7,10.9-3.4,21.7-5.1,32.6c-0.2,1.2,0.2,2.5,1,3.4c0.9,1,2.2,1.6,3.6,1.6l20.3,0l35.1,0
				c1.4,0,2.8-0.6,3.6-1.6c0.8-0.9,1.2-2.2,1-3.4L555.9,95.8z M523.2,104.5h-5.6l-19.2,0c1.6-10.4,3.2-20.8,4.9-31.3l3.1-19.8
				l17.4,0C523.6,70.4,523.4,87.4,523.2,104.5z M541.1,104.5c-1.5-17-2.9-34.1-4.4-51.1l6.9,0c2.2,14.4,4.5,28.9,6.7,43.3l1.2,7.8
				L541.1,104.5z"/>
		</g>
	</g>
</g>
<g>
	<rect x="300" y="0" fill="none" width="150" height="150"/>
	<g>
		<g>
			<path fill="#006838" d="M375,35c22.1,0,40,17.9,40,40c0,22.1-17.9,40-40,40s-40-17.9-40-40C335,52.9,352.9,35,375,35 M375,30
				c-24.8,0-45,20.2-45,45s20.2,45,45,45s45-20.2,45-45S399.8,30,375,30L375,30z"/>
		</g>
		<g>
			<g>
				<path fill="#29B473" d="M349.4,57.9c0-3.3,1.1-6,3.2-8.2c2.1-2.2,5.2-3.3,9.1-3.3c4,0,7.1,1.1,9.2,3.3c2.1,2.2,3.2,4.9,3.2,8.2
					v2.9c0,3.3-1.1,6-3.2,8.2c-2.1,2.1-5.2,3.2-9.1,3.2c-4,0-7-1.1-9.2-3.2c-2.1-2.2-3.2-4.9-3.2-8.2V57.9z M357.7,60.9
					c0,1.3,0.4,2.3,1.1,3.2c0.7,0.8,1.7,1.3,3.1,1.3c1.3,0,2.3-0.4,3-1.3c0.7-0.8,1-1.9,1-3.2v-2.9c0-1.3-0.4-2.3-1.1-3.2
					c-0.7-0.9-1.7-1.3-3.1-1.3c-1.3,0-2.3,0.4-3,1.3c-0.7,0.9-1.1,1.9-1.1,3.2V60.9z M363.9,98.6l-6-3L385,52.2l6,3L363.9,98.6z
					 M375.8,89.2c0-3.3,1.1-6,3.2-8.2c2.2-2.2,5.2-3.3,9.2-3.3c4,0,7.1,1.1,9.2,3.2c2.1,2.2,3.2,4.9,3.2,8.2v2.9
					c0,3.3-1.1,6.1-3.2,8.2c-2.1,2.1-5.2,3.2-9.1,3.2c-4,0-7-1.1-9.2-3.2c-2.2-2.2-3.3-4.9-3.3-8.2V89.2z M384.1,92.1
					c0,1.2,0.4,2.3,1.2,3.1c0.8,0.9,1.8,1.3,3,1.3c1.6,0,2.6-0.4,3.2-1.2c0.6-0.8,0.8-1.9,0.8-3.3v-2.9c0-1.2-0.4-2.3-1.1-3.2
					c-0.7-0.9-1.7-1.3-3-1.3c-1.3,0-2.3,0.4-3.1,1.3c-0.7,0.9-1.1,1.9-1.1,3.2V92.1z"/>
			</g>
		</g>
		<line fill="none" stroke="#006838" stroke-width="5" stroke-miterlimit="10" x1="411.7" y1="54.6" x2="338.3" y2="95.4"/>
	</g>
</g>
<g>
	<rect x="600" y="0" fill="none" width="150" height="150"/>
	<g id="Layer_5_1_">
		<g>
			<path fill="#29B473" d="M691.3,88.9c-0.7,0-1,0.1-1.4,0.1c-12.9,1.9-31.9,4.6-42.4,6.1c-0.4,0.1-0.4-0.5-0.4-0.5l-0.5-3.7
				c-0.1-0.5-0.5-0.8-1-0.8l-4.2,0.6c0,0-0.6,0.1-0.6-0.4c-0.5-3.8-1.6-11.3-2.2-15.2c-0.1-0.6,0.5-0.6,0.5-0.6s0.7-0.1,1-0.1
				c0.6-0.1,0.5-0.9,0.5-0.9s0-5.3,0-7.1c0-0.5-0.8-0.5-0.8-0.5l-2.7,0.4c-2.1,0.3-3.5,2.2-3.2,4.3l3.8,26.1
				c0.3,2.1,2.2,3.5,4.3,3.2l62-8.9c1.1-0.2,2.1-0.8,2.7-1.7c0.1-0.1,0-0.4-0.5-0.4H691.3L691.3,88.9z"/>
			<path fill="#29B473" d="M712.4,50h-62.7c-2.1,0-3.8,1.7-3.8,3.8v26.4c0,2.1,1.7,3.8,3.8,3.8h62.7c2.1,0,3.8-1.7,3.8-3.8V53.8
				C716.2,51.7,714.5,50,712.4,50z M712.2,74.1c0,0.7-0.8,0.7-0.8,0.7h-4.8c-0.5,0-0.9,0.4-0.9,0.9v3.6c0,0-0.1,0.6-0.6,0.6
				c-12.3,0-36.6,0-49,0c-0.4,0-0.3-0.5-0.3-0.5v-3.7c0-0.5-0.4-0.9-0.9-0.9h-4.3c0,0-0.6,0.1-0.6-0.5c0-3.8,0-11.4,0-15.4
				c0-0.6,0.6-0.5,0.6-0.5h4.3c0.5,0,0.9-0.4,0.9-0.9v-3.1c0,0-0.1-0.4,0.4-0.4c12.4,0,36.9,0,49.2,0c0.5,0,0.4,0.4,0.4,0.4v3.2
				c0,0.5,0.4,0.9,0.9,0.9h5.2c0,0,0.4,0,0.4,0.3C712.2,62.8,712.2,70.3,712.2,74.1z"/>
			<path fill="#29B473" d="M681.2,65.6c-2.1-0.8-2.7-1.4-2.7-2.3c0-0.7,0.6-1.6,2.1-1.6c1.4,0,2.5,0.6,2.5,0.6
				c0.1,0.1,0.2,0.1,0.4,0.1c0.3,0,0.6-0.2,0.7-0.5l0.4-1c0.1-0.4-0.1-0.7-0.3-0.8c-0.9-0.4-2.5-0.7-2.6-0.7c0,0-0.1,0-0.1-0.1
				l0-1.4c0-0.4-0.4-0.8-0.8-0.8H680c-0.4,0-0.8,0.3-0.8,0.8l0,1.5c0,0.1-0.1,0.2-0.2,0.2c-2.1,0.5-3.5,2.1-3.5,4
				c0,2.4,2,3.6,4.2,4.4c1.7,0.7,2.5,1.4,2.5,2.4c0,1.1-1,1.9-2.5,1.9c-1.2,0-2.9-0.8-2.9-0.8c-0.1-0.1-0.2-0.1-0.3-0.1
				c-0.3,0-0.6,0.2-0.7,0.5l-0.4,1c-0.1,0.4,0.1,0.7,0.3,0.8c1,0.5,3,0.8,3.1,0.9c0,0,0.1,0,0.1,0.2v1.5c0,0.4,0.4,0.8,0.8,0.8h0.7
				c0.4,0,0.8-0.3,0.8-0.8v-1.6c0-0.1,0.1-0.2,0.1-0.2c2.3-0.5,3.7-2.2,3.7-4.2C685.2,68,684,66.7,681.2,65.6z"/>
		</g>
	</g>
</g>
</svg>
