<?xml version="1.0" encoding="utf-8"?>
<!-- Generator: Adobe Illustrator 18.1.1, SVG Export Plug-In . SVG Version: 6.00 Build 0)  -->
<svg version="1.1" id="Layer_2" xmlns="http://www.w3.org/2000/svg" xmlns:xlink="http://www.w3.org/1999/xlink" x="0px" y="0px"
	 viewBox="0 0 200 100" enable-background="new 0 0 200 100" xml:space="preserve">
<symbol  id="New_Symbol_1" viewBox="-16.7 -16.7 33.5 33.5">
	<polygon fill="#C0392B" points="-10,-16.7 -16.7,-10 10.1,16.8 16.8,10.1 	"/>
	<polygon fill="#C0392B" points="-16.7,10.1 -10,16.8 16.8,-10 10.1,-16.7 	"/>
</symbol>
<symbol  id="New_Symbol_2" viewBox="-21.4 -16.7 42.9 33.5">
	<path fill="#29B473" d="M14.8,16.8L-5.3-3.3l-9.4,9.4l-6.7-6.7l16.1-16.1l26.8,26.8L14.8,16.8z"/>
</symbol>
<rect x="100" y="0" fill="none" width="100" height="100"/>
<rect x="0" y="0" fill="none" width="100" height="100"/>
<use xlink:href="#New_Symbol_2"  width="42.9" height="33.5" id="XMLID_2_" x="-21.4" y="-16.7" transform="matrix(1 0 0 -1 149.9999 50.0007)" overflow="visible"/>
<use xlink:href="#New_Symbol_1"  width="33.5" height="33.5" id="XMLID_1_" x="-16.7" y="-16.7" transform="matrix(1 0 0 -1 49.9997 50.0001)" overflow="visible"/>
</svg>
