<?xml version="1.0" encoding="utf-8"?>
<!-- Generator: Adobe Illustrator 18.1.1, SVG Export Plug-In . SVG Version: 6.00 Build 0)  -->
<svg version="1.1" id="Layer_1" xmlns="http://www.w3.org/2000/svg" xmlns:xlink="http://www.w3.org/1999/xlink" x="0px" y="0px"
	 viewBox="424.9 344.5 143.1 100" enable-background="new 424.9 344.5 143.1 100" xml:space="preserve">
<g id="New_Symbol_2">
	<path fill="#30803F" d="M439.8,412.2l0.4,5.6h-0.4c-0.5-1.7-1.2-2.9-2.1-3.6c-0.9-0.7-2-1.1-3.3-1.1c-1.1,0-2.1,0.3-2.9,0.8
		c-0.9,0.6-1.6,1.4-2.1,2.6s-0.8,2.7-0.8,4.5c0,1.5,0.2,2.8,0.7,3.8c0.5,1.1,1.2,1.9,2.1,2.5s2,0.9,3.3,0.9c1.1,0,2-0.2,2.8-0.7
		c0.8-0.5,1.7-1.4,2.7-2.7l0.4,0.2c-0.8,1.5-1.8,2.5-2.9,3.2c-1.1,0.7-2.4,1-3.9,1c-2.7,0-4.8-1-6.3-3c-1.1-1.5-1.7-3.3-1.7-5.3
		c0-1.6,0.4-3.1,1.1-4.5c0.7-1.4,1.7-2.4,3-3.2c1.3-0.8,2.7-1.1,4.2-1.1c1.2,0,2.3,0.3,3.5,0.9c0.3,0.2,0.6,0.3,0.7,0.3
		c0.2,0,0.4-0.1,0.6-0.2c0.2-0.2,0.4-0.5,0.4-0.9H439.8z"/>
	<path fill="#30803F" d="M441.5,428.9v-0.4c0.2,0,0.3,0,0.5-0.1s0.3-0.1,0.5-0.2s0.3-0.3,0.5-0.6c0.2-0.3,0.4-0.7,0.6-1.2l4-9.6h0.2
		l4.4,10.2c0.2,0.4,0.3,0.7,0.5,0.9c0.2,0.2,0.3,0.4,0.5,0.5c0.2,0.1,0.3,0.2,0.5,0.2c0.2,0,0.3,0,0.5,0v0.4h-4.9v-0.4
		c0.1,0,0.2,0,0.3,0s0.3,0,0.4-0.1s0.2-0.1,0.3-0.2c0.1-0.1,0.1-0.2,0.1-0.3c0-0.1,0-0.3-0.1-0.5c-0.1-0.2-0.1-0.4-0.3-0.6l-0.7-1.5
		H445l-0.6,1.5c-0.1,0.2-0.1,0.3-0.2,0.5c0,0.1,0,0.3,0,0.4c0,0.2,0,0.3,0.1,0.4c0.1,0.1,0.2,0.2,0.3,0.3c0.1,0.1,0.2,0.1,0.4,0.1
		s0.2,0,0.3,0v0.4H441.5z M445.2,424.5h3.7l-1.9-4.4L445.2,424.5z"/>
	<path fill="#30803F" d="M464,417l0.1,2.8h-0.4c0-0.5-0.2-1-0.4-1.3c-0.2-0.3-0.4-0.5-0.7-0.6c-0.3-0.1-0.6-0.2-0.9-0.2
		c-0.3,0-0.6,0-0.9,0h-2.5v4.7h2.3c0.5,0,0.8-0.1,1.1-0.2c0.3-0.1,0.4-0.3,0.6-0.4s0.2-0.4,0.2-0.6c0-0.2,0-0.5,0-0.7h0.4v4.4h-0.4
		c0-0.3,0-0.5-0.1-0.8c0-0.2-0.1-0.4-0.2-0.6c-0.1-0.2-0.3-0.3-0.6-0.4c-0.3-0.1-0.6-0.1-1.1-0.1h-2.2v4c0,0.2,0,0.4,0,0.6
		s0.1,0.3,0.1,0.4c0.1,0.1,0.2,0.2,0.4,0.2c0.2,0,0.4,0.1,0.8,0.1h1c0.4,0,0.8,0,1.1-0.1c0.3-0.1,0.6-0.2,0.9-0.3
		c0.3-0.2,0.5-0.4,0.8-0.7c0.2-0.3,0.5-0.8,0.7-1.3h0.4l-0.7,3.1h-9.2v-0.4c0.4,0,0.7-0.1,0.9-0.2c0.2-0.1,0.4-0.3,0.5-0.5
		c0.1-0.2,0.2-0.4,0.2-0.6c0-0.2,0-0.4,0-0.7v-7.2c0-0.3,0-0.5,0-0.8c0-0.2-0.1-0.4-0.2-0.6s-0.3-0.3-0.5-0.4
		c-0.2-0.1-0.5-0.1-0.8-0.1V417H464z"/>
	<path fill="#30803F" d="M473.1,420.6h-0.4c-0.1-0.3-0.2-0.7-0.3-1.1c-0.2-0.4-0.4-0.8-0.7-1.2c-0.3-0.3-0.6-0.6-1-0.8
		c-0.4-0.2-0.7-0.2-1.1-0.2c-0.3,0-0.5,0-0.7,0.1c-0.2,0.1-0.4,0.2-0.5,0.3s-0.2,0.3-0.3,0.5s-0.1,0.4-0.1,0.6
		c0,0.3,0.1,0.6,0.2,0.9c0.1,0.3,0.3,0.5,0.6,0.7s0.6,0.5,0.9,0.7c0.4,0.2,0.8,0.5,1.2,0.7c0.4,0.2,0.7,0.5,1.1,0.7
		c0.4,0.3,0.7,0.5,1,0.9s0.5,0.7,0.7,1c0.2,0.4,0.3,0.8,0.3,1.3c0,0.4-0.1,0.7-0.2,1.1c-0.1,0.4-0.4,0.8-0.7,1.1
		c-0.3,0.3-0.7,0.6-1.2,0.8c-0.5,0.2-1,0.3-1.7,0.3c-0.3,0-0.6,0-0.9-0.1c-0.3-0.1-0.5-0.1-0.7-0.2s-0.4-0.1-0.6-0.2
		c-0.2-0.1-0.4-0.1-0.5-0.1c-0.1,0-0.3,0-0.4,0.1c-0.1,0-0.2,0.1-0.3,0.2s-0.1,0.1-0.2,0.2c0,0.1-0.1,0.1-0.1,0.2h-0.4v-4h0.4
		c0.1,0.5,0.3,1,0.5,1.4c0.2,0.4,0.4,0.7,0.7,0.9c0.2,0.2,0.5,0.4,0.7,0.6c0.2,0.1,0.5,0.2,0.7,0.3c0.2,0.1,0.4,0.1,0.5,0.1
		c0.1,0,0.2,0,0.3,0c0.3,0,0.6,0,0.9-0.1s0.5-0.2,0.7-0.3c0.2-0.2,0.4-0.3,0.5-0.6c0.1-0.2,0.2-0.5,0.2-0.9c0-0.3-0.1-0.5-0.2-0.8
		s-0.3-0.5-0.5-0.7c-0.2-0.2-0.5-0.5-0.8-0.7s-0.7-0.5-1.1-0.7c-0.4-0.2-0.8-0.5-1.2-0.7c-0.4-0.2-0.7-0.5-1.1-0.8
		c-0.3-0.3-0.6-0.6-0.8-1s-0.3-0.8-0.3-1.3c0-0.4,0.1-0.8,0.2-1.2c0.1-0.4,0.3-0.7,0.6-1s0.6-0.5,1-0.7c0.4-0.2,0.9-0.3,1.4-0.3
		c0.3,0,0.6,0,0.9,0.1c0.2,0.1,0.5,0.1,0.7,0.2s0.4,0.1,0.5,0.2c0.2,0.1,0.3,0.1,0.4,0.1c0.2,0,0.3,0,0.4-0.1s0.2-0.2,0.3-0.4h0.5
		V420.6z"/>
	<path fill="#30803F" d="M474.5,428.9v-0.4c0.2,0,0.3,0,0.5-0.1s0.3-0.1,0.5-0.2s0.3-0.3,0.5-0.6c0.2-0.3,0.4-0.7,0.6-1.2l4-9.6h0.2
		l4.4,10.2c0.2,0.4,0.3,0.7,0.5,0.9c0.2,0.2,0.3,0.4,0.5,0.5c0.2,0.1,0.3,0.2,0.5,0.2c0.2,0,0.3,0,0.5,0v0.4H482v-0.4
		c0.1,0,0.2,0,0.3,0s0.3,0,0.4-0.1s0.2-0.1,0.3-0.2c0.1-0.1,0.1-0.2,0.1-0.3c0-0.1,0-0.3-0.1-0.5c-0.1-0.2-0.1-0.4-0.3-0.6l-0.7-1.5
		h-4.2l-0.6,1.5c-0.1,0.2-0.1,0.3-0.2,0.5c0,0.1,0,0.3,0,0.4c0,0.2,0,0.3,0.1,0.4c0.1,0.1,0.2,0.2,0.3,0.3c0.1,0.1,0.2,0.1,0.4,0.1
		s0.2,0,0.3,0v0.4H474.5z M478.2,424.5h3.7l-1.9-4.4L478.2,424.5z"/>
	<path fill="#30803F" d="M496.7,428.9l-4.4-5.5c-0.1,0-0.2,0-0.3,0s-0.1,0-0.2,0c-0.1,0-0.1,0-0.2,0c-0.1,0-0.2,0-0.3,0v3.2
		c0,0.5,0.1,0.8,0.2,1.1s0.3,0.4,0.4,0.5c0.2,0.1,0.4,0.2,0.6,0.2c0.2,0,0.4,0,0.5,0v0.4h-5.7v-0.4c0.4,0,0.7,0,1-0.1
		c0.3-0.1,0.4-0.2,0.6-0.4c0.1-0.2,0.2-0.4,0.3-0.7c0-0.3,0.1-0.6,0.1-1v-6.6c0-0.4,0-0.7-0.1-1c0-0.3-0.1-0.5-0.3-0.7
		s-0.3-0.3-0.6-0.4c-0.3-0.1-0.6-0.1-1-0.1V417h5.2c0.3,0,0.5,0,0.9,0c0.3,0,0.6,0.1,1,0.1c0.3,0.1,0.7,0.2,1,0.3
		c0.3,0.1,0.6,0.3,0.9,0.5c0.3,0.2,0.6,0.5,0.8,0.9c0.2,0.4,0.3,0.8,0.3,1.3c0,0.4-0.1,0.7-0.2,1c-0.1,0.3-0.3,0.5-0.4,0.7
		s-0.4,0.4-0.6,0.5c-0.2,0.1-0.4,0.3-0.7,0.4c-0.2,0.1-0.4,0.2-0.6,0.2c-0.2,0.1-0.3,0.1-0.5,0.1l3.1,3.8c0.2,0.2,0.4,0.4,0.5,0.6
		c0.2,0.2,0.3,0.3,0.5,0.4c0.2,0.1,0.4,0.2,0.5,0.3s0.4,0.1,0.6,0.2v0.4H496.7z M491.3,422.8c0.1,0,0.3,0,0.5,0c0.2,0,0.3,0,0.5,0
		c0.2,0,0.4-0.1,0.6-0.1c0.2-0.1,0.4-0.1,0.7-0.3c0.2-0.1,0.4-0.3,0.6-0.4s0.3-0.4,0.4-0.6c0.1-0.2,0.2-0.4,0.3-0.6
		c0.1-0.2,0.1-0.4,0.1-0.6c0-0.4-0.1-0.7-0.2-1c-0.1-0.3-0.3-0.6-0.5-0.8c-0.2-0.2-0.5-0.4-0.8-0.5s-0.7-0.2-1-0.2
		c-0.2,0-0.4,0-0.7,0c-0.2,0-0.4,0-0.5,0.1V422.8z"/>
	<path fill="#30803F" d="M516.4,412.5l0.2,3.8h-0.5c-0.1-0.7-0.2-1.2-0.4-1.4c-0.2-0.5-0.6-0.8-1-1c-0.4-0.2-1-0.3-1.6-0.3h-2.3
		v12.5c0,1,0.1,1.6,0.3,1.9c0.3,0.3,0.8,0.5,1.4,0.5h0.6v0.4h-6.9v-0.4h0.6c0.7,0,1.2-0.2,1.5-0.6c0.2-0.3,0.3-0.8,0.3-1.8v-12.5h-2
		c-0.8,0-1.3,0.1-1.6,0.2c-0.4,0.2-0.8,0.4-1.1,0.9c-0.3,0.4-0.5,1-0.5,1.8h-0.5l0.2-3.8H516.4z"/>
	<path fill="#30803F" d="M526.8,428.9l-4.4-5.5c-0.1,0-0.2,0-0.3,0s-0.1,0-0.2,0c-0.1,0-0.1,0-0.2,0c-0.1,0-0.2,0-0.3,0v3.2
		c0,0.5,0.1,0.8,0.2,1.1s0.3,0.4,0.4,0.5c0.2,0.1,0.4,0.2,0.6,0.2c0.2,0,0.4,0,0.5,0v0.4h-5.7v-0.4c0.4,0,0.7,0,1-0.1
		c0.3-0.1,0.4-0.2,0.6-0.4c0.1-0.2,0.2-0.4,0.3-0.7c0-0.3,0.1-0.6,0.1-1v-6.6c0-0.4,0-0.7-0.1-1c0-0.3-0.1-0.5-0.3-0.7
		s-0.3-0.3-0.6-0.4c-0.3-0.1-0.6-0.1-1-0.1V417h5.2c0.3,0,0.5,0,0.9,0c0.3,0,0.6,0.1,1,0.1c0.3,0.1,0.7,0.2,1,0.3
		c0.3,0.1,0.6,0.3,0.9,0.5c0.3,0.2,0.6,0.5,0.8,0.9c0.2,0.4,0.3,0.8,0.3,1.3c0,0.4-0.1,0.7-0.2,1c-0.1,0.3-0.3,0.5-0.4,0.7
		s-0.4,0.4-0.6,0.5c-0.2,0.1-0.4,0.3-0.7,0.4c-0.2,0.1-0.4,0.2-0.6,0.2c-0.2,0.1-0.3,0.1-0.5,0.1l3.1,3.8c0.2,0.2,0.4,0.4,0.5,0.6
		c0.2,0.2,0.3,0.3,0.5,0.4c0.2,0.1,0.4,0.2,0.5,0.3s0.4,0.1,0.6,0.2v0.4H526.8z M521.4,422.8c0.1,0,0.3,0,0.5,0c0.2,0,0.3,0,0.5,0
		c0.2,0,0.4-0.1,0.6-0.1c0.2-0.1,0.4-0.1,0.7-0.3c0.2-0.1,0.4-0.3,0.6-0.4s0.3-0.4,0.4-0.6c0.1-0.2,0.2-0.4,0.3-0.6
		c0.1-0.2,0.1-0.4,0.1-0.6c0-0.4-0.1-0.7-0.2-1c-0.1-0.3-0.3-0.6-0.5-0.8c-0.2-0.2-0.5-0.4-0.8-0.5s-0.7-0.2-1-0.2
		c-0.2,0-0.4,0-0.7,0c-0.2,0-0.4,0-0.5,0.1V422.8z"/>
	<path fill="#30803F" d="M530,428.9v-0.4c0.2,0,0.3,0,0.5-0.1s0.3-0.1,0.5-0.2s0.3-0.3,0.5-0.6c0.2-0.3,0.4-0.7,0.6-1.2l4-9.6h0.2
		l4.4,10.2c0.2,0.4,0.3,0.7,0.5,0.9c0.2,0.2,0.3,0.4,0.5,0.5c0.2,0.1,0.3,0.2,0.5,0.2c0.2,0,0.3,0,0.5,0v0.4h-4.9v-0.4
		c0.1,0,0.2,0,0.3,0s0.3,0,0.4-0.1s0.2-0.1,0.3-0.2c0.1-0.1,0.1-0.2,0.1-0.3c0-0.1,0-0.3-0.1-0.5c-0.1-0.2-0.1-0.4-0.3-0.6l-0.7-1.5
		h-4.2l-0.6,1.5c-0.1,0.2-0.1,0.3-0.2,0.5c0,0.1,0,0.3,0,0.4c0,0.2,0,0.3,0.1,0.4c0.1,0.1,0.2,0.2,0.3,0.3c0.1,0.1,0.2,0.1,0.4,0.1
		s0.2,0,0.3,0v0.4H530z M533.7,424.5h3.7l-1.9-4.4L533.7,424.5z"/>
	<path fill="#30803F" d="M549,417c1.2,0,2.3,0.2,3.1,0.5c0.9,0.3,1.6,0.7,2.2,1.3c0.6,0.5,1,1.1,1.3,1.8c0.3,0.7,0.4,1.4,0.4,2.2
		c0,0.3,0,0.7-0.1,1c-0.1,0.4-0.2,0.8-0.3,1.2c-0.2,0.4-0.4,0.8-0.7,1.2c-0.3,0.4-0.6,0.8-1.1,1.1c-0.5,0.4-1,0.7-1.5,0.9
		s-1,0.4-1.5,0.5c-0.5,0.1-1,0.2-1.5,0.2c-0.5,0-1,0-1.5,0h-5v-0.4c0.4,0,0.6,0,0.9-0.1c0.2-0.1,0.4-0.1,0.5-0.3
		c0.1-0.1,0.2-0.3,0.3-0.5c0-0.2,0.1-0.5,0.1-0.8v-7.6c0-0.4,0-0.7-0.1-0.9c-0.1-0.2-0.2-0.4-0.3-0.5c-0.1-0.1-0.3-0.2-0.5-0.3
		c-0.2,0-0.5-0.1-0.8-0.1V417H549z M546.7,428.1c0.1,0,0.2,0,0.3,0.1c0.1,0,0.3,0.1,0.5,0.1c0.2,0,0.4,0,0.5,0c0.2,0,0.4,0,0.6,0
		c0.2,0,0.5,0,0.8-0.1c0.3-0.1,0.7-0.2,1.1-0.3c0.4-0.2,0.7-0.4,1.1-0.6s0.7-0.6,1-1c0.3-0.4,0.5-0.8,0.7-1.4
		c0.2-0.5,0.3-1.2,0.3-1.9c0-0.8-0.1-1.6-0.4-2.3c-0.3-0.7-0.6-1.2-1.1-1.7c-0.5-0.5-1-0.8-1.7-1.1c-0.6-0.2-1.3-0.4-2.1-0.4
		c-0.1,0-0.3,0-0.4,0s-0.3,0-0.5,0c-0.2,0-0.3,0-0.5,0c-0.1,0-0.3,0-0.3,0V428.1z"/>
	<path fill="#30803F" d="M566.8,417l0.1,2.8h-0.4c0-0.5-0.2-1-0.4-1.3c-0.2-0.3-0.4-0.5-0.7-0.6c-0.3-0.1-0.6-0.2-0.9-0.2
		c-0.3,0-0.6,0-0.9,0h-2.5v4.7h2.3c0.5,0,0.8-0.1,1.1-0.2c0.3-0.1,0.4-0.3,0.6-0.4s0.2-0.4,0.2-0.6c0-0.2,0-0.5,0-0.7h0.4v4.4h-0.4
		c0-0.3,0-0.5-0.1-0.8c0-0.2-0.1-0.4-0.2-0.6c-0.1-0.2-0.3-0.3-0.6-0.4c-0.3-0.1-0.6-0.1-1.1-0.1h-2.2v4c0,0.2,0,0.4,0,0.6
		s0.1,0.3,0.1,0.4c0.1,0.1,0.2,0.2,0.4,0.2c0.2,0,0.4,0.1,0.8,0.1h1c0.4,0,0.8,0,1.1-0.1c0.3-0.1,0.6-0.2,0.9-0.3
		c0.3-0.2,0.5-0.4,0.8-0.7c0.2-0.3,0.5-0.8,0.7-1.3h0.4l-0.7,3.1h-9.2v-0.4c0.4,0,0.7-0.1,0.9-0.2c0.2-0.1,0.4-0.3,0.5-0.5
		c0.1-0.2,0.2-0.4,0.2-0.6c0-0.2,0-0.4,0-0.7v-7.2c0-0.3,0-0.5,0-0.8c0-0.2-0.1-0.4-0.2-0.6s-0.3-0.3-0.5-0.4
		c-0.2-0.1-0.5-0.1-0.8-0.1V417H566.8z"/>
	<path fill="#404041" d="M471.5,434.8v2.7h1.3c0.3,0,0.5-0.1,0.6-0.2s0.2-0.4,0.3-0.8h0.2v2.3h-0.2c0-0.3,0-0.5-0.1-0.6
		s-0.2-0.2-0.3-0.3c-0.1-0.1-0.3-0.1-0.5-0.1h-1.3v2.2c0,0.3,0,0.6,0.1,0.7c0,0.1,0.1,0.2,0.2,0.2c0.1,0.1,0.3,0.1,0.5,0.1h0.2v0.2
		h-2.9v-0.2h0.2c0.3,0,0.5-0.1,0.6-0.2c0.1-0.1,0.1-0.4,0.1-0.8v-4.4c0-0.3,0-0.6-0.1-0.7c0-0.1-0.1-0.2-0.2-0.2
		c-0.1-0.1-0.3-0.1-0.5-0.1h-0.2v-0.2h5.1l0.1,1.5h-0.2c-0.1-0.3-0.2-0.6-0.3-0.7c-0.1-0.2-0.3-0.3-0.4-0.3
		c-0.2-0.1-0.4-0.1-0.8-0.1H471.5z"/>
	<path fill="#404041" d="M477.8,436.5c0.7,0,1.3,0.3,1.7,0.8c0.4,0.5,0.5,1,0.5,1.6c0,0.4-0.1,0.8-0.3,1.3c-0.2,0.4-0.5,0.7-0.8,1
		c-0.3,0.2-0.7,0.3-1.2,0.3c-0.7,0-1.3-0.3-1.7-0.8c-0.3-0.5-0.5-1-0.5-1.6c0-0.4,0.1-0.8,0.3-1.3c0.2-0.4,0.5-0.7,0.8-0.9
		C477,436.6,477.4,436.5,477.8,436.5z M477.6,436.9c-0.2,0-0.4,0.1-0.5,0.2s-0.3,0.3-0.4,0.6c-0.1,0.3-0.2,0.6-0.2,1
		c0,0.7,0.1,1.3,0.4,1.7c0.3,0.5,0.6,0.7,1.1,0.7c0.3,0,0.6-0.1,0.8-0.4c0.2-0.3,0.3-0.7,0.3-1.4c0-0.8-0.2-1.5-0.5-1.9
		C478.3,437,478,436.9,477.6,436.9z"/>
	<path fill="#404041" d="M482,436.5v1c0.4-0.7,0.8-1,1.2-1c0.2,0,0.3,0.1,0.5,0.2s0.2,0.2,0.2,0.4c0,0.1,0,0.2-0.1,0.3
		c-0.1,0.1-0.2,0.1-0.3,0.1c-0.1,0-0.3-0.1-0.4-0.2c-0.1-0.1-0.3-0.2-0.3-0.2c-0.1,0-0.1,0-0.2,0.1c-0.2,0.1-0.3,0.4-0.5,0.7v2.2
		c0,0.3,0,0.5,0.1,0.6c0,0.1,0.1,0.2,0.2,0.2c0.1,0.1,0.3,0.1,0.5,0.1v0.2h-2.4v-0.2c0.2,0,0.4,0,0.5-0.1c0.1-0.1,0.1-0.1,0.2-0.3
		c0-0.1,0-0.2,0-0.5v-1.8c0-0.5,0-0.9,0-1c0-0.1-0.1-0.2-0.1-0.2c-0.1,0-0.1-0.1-0.2-0.1c-0.1,0-0.2,0-0.4,0.1l-0.1-0.2l1.4-0.6H482
		z"/>
	<path fill="#404041" d="M484.9,438.4c0,0.7,0.2,1.2,0.5,1.6c0.3,0.4,0.7,0.6,1.2,0.6c0.3,0,0.6-0.1,0.8-0.3
		c0.2-0.2,0.4-0.5,0.6-0.9l0.2,0.1c-0.1,0.5-0.3,0.9-0.6,1.3c-0.3,0.4-0.8,0.6-1.3,0.6c-0.6,0-1-0.2-1.4-0.7c-0.4-0.4-0.6-1-0.6-1.8
		c0-0.8,0.2-1.4,0.6-1.9c0.4-0.4,0.9-0.7,1.5-0.7c0.5,0,0.9,0.2,1.3,0.5c0.3,0.3,0.5,0.8,0.5,1.4H484.9z M484.9,438.1h2.1
		c0-0.3-0.1-0.5-0.1-0.6c-0.1-0.2-0.2-0.3-0.4-0.4c-0.2-0.1-0.3-0.2-0.5-0.2c-0.3,0-0.5,0.1-0.8,0.3S484.9,437.7,484.9,438.1z"/>
	<path fill="#404041" d="M488.6,436.7h2.2v0.2c-0.1,0-0.2,0-0.3,0.1c-0.1,0-0.1,0.1-0.1,0.2c0,0.1,0.1,0.2,0.2,0.4
		c0,0.1,0.1,0.1,0.2,0.3l0.3,0.5l0.4-0.5c0.2-0.3,0.4-0.5,0.4-0.6c0-0.1,0-0.1-0.1-0.2c-0.1,0-0.2-0.1-0.3-0.1v-0.2h1.6v0.2
		c-0.2,0-0.3,0.1-0.4,0.1c-0.2,0.1-0.4,0.4-0.7,0.8l-0.6,0.8l1.2,1.7c0.3,0.4,0.5,0.7,0.6,0.7c0.1,0.1,0.3,0.1,0.5,0.1v0.2h-2.2
		v-0.2c0.2,0,0.3,0,0.4-0.1c0.1,0,0.1-0.1,0.1-0.2c0-0.1-0.1-0.3-0.3-0.6l-0.7-1l-0.7,1c-0.2,0.3-0.3,0.5-0.3,0.5
		c0,0.1,0,0.2,0.1,0.2c0.1,0.1,0.2,0.1,0.3,0.1v0.2h-1.5v-0.2c0.1,0,0.2-0.1,0.3-0.1c0.1-0.1,0.3-0.3,0.6-0.8l1-1.3l-0.9-1.3
		c-0.3-0.4-0.4-0.6-0.6-0.7s-0.3-0.1-0.5-0.1V436.7z"/>
	<path fill="#404041" d="M496.6,438.6h2.6v0.8h-2.6V438.6z"/>
	<path fill="#404041" d="M508.5,434.3l0.2,2.3h-0.2c-0.2-0.7-0.5-1.2-0.9-1.5s-0.9-0.5-1.4-0.5c-0.5,0-0.9,0.1-1.2,0.3
		c-0.4,0.2-0.7,0.6-0.9,1.1c-0.2,0.5-0.3,1.1-0.3,1.9c0,0.6,0.1,1.2,0.3,1.6s0.5,0.8,0.9,1c0.4,0.2,0.9,0.4,1.4,0.4
		c0.4,0,0.8-0.1,1.2-0.3c0.3-0.2,0.7-0.6,1.1-1.1l0.2,0.1c-0.3,0.6-0.7,1.1-1.2,1.3s-1,0.4-1.6,0.4c-1.1,0-2-0.4-2.6-1.3
		c-0.5-0.6-0.7-1.4-0.7-2.2c0-0.7,0.2-1.3,0.5-1.9c0.3-0.6,0.7-1,1.3-1.3c0.5-0.3,1.1-0.5,1.8-0.5c0.5,0,1,0.1,1.5,0.4
		c0.1,0.1,0.2,0.1,0.3,0.1c0.1,0,0.2,0,0.2-0.1c0.1-0.1,0.2-0.2,0.2-0.4H508.5z"/>
	<path fill="#404041" d="M511.3,434.8v2.7h1.3c0.3,0,0.5-0.1,0.6-0.2s0.2-0.4,0.3-0.8h0.2v2.3h-0.2c0-0.3,0-0.5-0.1-0.6
		s-0.2-0.2-0.3-0.3c-0.1-0.1-0.3-0.1-0.5-0.1h-1.3v2.2c0,0.3,0,0.6,0.1,0.7c0,0.1,0.1,0.2,0.2,0.2c0.1,0.1,0.3,0.1,0.5,0.1h0.2v0.2
		h-2.9v-0.2h0.2c0.3,0,0.5-0.1,0.6-0.2c0.1-0.1,0.1-0.4,0.1-0.8v-4.4c0-0.3,0-0.6-0.1-0.7c0-0.1-0.1-0.2-0.2-0.2
		c-0.1-0.1-0.3-0.1-0.5-0.1h-0.2v-0.2h5.1l0.1,1.5h-0.2c-0.1-0.3-0.2-0.6-0.3-0.7c-0.1-0.2-0.3-0.3-0.4-0.3
		c-0.2-0.1-0.4-0.1-0.8-0.1H511.3z"/>
	<path fill="#404041" d="M515.1,441.3v-0.2h0.3c0.3,0,0.5-0.1,0.6-0.3c0.1-0.1,0.1-0.4,0.1-0.8v-4.4c0-0.4,0-0.7-0.1-0.8
		c-0.1-0.1-0.3-0.2-0.6-0.2h-0.3v-0.2h2.8c1,0,1.8,0.1,2.3,0.3c0.5,0.2,1,0.6,1.3,1.2s0.5,1.2,0.5,1.9c0,1-0.3,1.8-0.9,2.4
		c-0.7,0.7-1.6,1.1-3,1.1H515.1z M517.1,440.8c0.4,0.1,0.8,0.1,1.1,0.1c0.8,0,1.4-0.3,2-0.8c0.5-0.6,0.8-1.3,0.8-2.2
		c0-0.9-0.3-1.7-0.8-2.2c-0.5-0.5-1.2-0.8-2-0.8c-0.3,0-0.7,0-1,0.1V440.8z"/>
	<path fill="#404041" d="M525.8,436.5v1.6h-0.2c-0.1-0.5-0.3-0.8-0.5-1c-0.2-0.2-0.5-0.3-0.8-0.3c-0.2,0-0.4,0.1-0.6,0.2
		s-0.2,0.3-0.2,0.4c0,0.2,0.1,0.4,0.2,0.5c0.1,0.1,0.3,0.3,0.6,0.4l0.7,0.4c0.7,0.3,1,0.8,1,1.3c0,0.4-0.2,0.8-0.5,1
		c-0.3,0.3-0.7,0.4-1.1,0.4c-0.3,0-0.6-0.1-1-0.2c-0.1,0-0.2-0.1-0.3-0.1c-0.1,0-0.1,0-0.2,0.1H523v-1.7h0.2
		c0.1,0.5,0.3,0.8,0.5,1.1c0.3,0.2,0.6,0.4,0.9,0.4c0.2,0,0.4-0.1,0.6-0.2s0.2-0.3,0.2-0.5c0-0.2-0.1-0.4-0.2-0.6
		c-0.2-0.2-0.5-0.4-1-0.6s-0.8-0.5-1-0.7c-0.2-0.2-0.2-0.4-0.2-0.7c0-0.4,0.1-0.7,0.4-1c0.3-0.3,0.6-0.4,1-0.4c0.2,0,0.4,0,0.7,0.1
		c0.2,0.1,0.3,0.1,0.3,0.1c0.1,0,0.1,0,0.1,0c0,0,0.1-0.1,0.1-0.2H525.8z"/>
	<path fill="#404041" d="M529.5,438.6h2.6v0.8h-2.6V438.6z"/>
	<path fill="#404041" d="M538.9,434.3c0.9,0,1.7,0.3,2.3,1c0.7,0.7,1,1.5,1,2.5c0,1-0.3,1.9-1,2.6c-0.7,0.7-1.5,1-2.4,1
		c-0.9,0-1.7-0.3-2.4-1c-0.6-0.7-1-1.5-1-2.6c0-1.1,0.4-2,1.1-2.7C537.3,434.6,538,434.3,538.9,434.3z M538.8,434.7
		c-0.6,0-1.1,0.2-1.5,0.7c-0.5,0.6-0.7,1.4-0.7,2.5c0,1.1,0.2,2,0.7,2.6c0.4,0.5,0.9,0.7,1.5,0.7c0.6,0,1.2-0.3,1.6-0.8
		c0.4-0.5,0.6-1.3,0.6-2.4c0-1.2-0.2-2.1-0.7-2.6C540,434.9,539.5,434.7,538.8,434.7z"/>
	<path fill="#404041" d="M542.6,437.1l1.4-0.6h0.2v1.1c0.2-0.4,0.5-0.7,0.7-0.9c0.2-0.2,0.5-0.2,0.8-0.2c0.5,0,0.9,0.2,1.2,0.5
		c0.4,0.4,0.6,1,0.6,1.7c0,0.8-0.2,1.5-0.7,2c-0.4,0.4-0.9,0.6-1.4,0.6c-0.3,0-0.5,0-0.6-0.1c-0.1-0.1-0.3-0.2-0.5-0.3v1.4
		c0,0.3,0,0.5,0.1,0.6s0.1,0.2,0.2,0.2s0.3,0.1,0.5,0.1v0.2h-2.4v-0.2h0.1c0.2,0,0.3,0,0.5-0.1c0.1,0,0.1-0.1,0.1-0.2
		c0-0.1,0.1-0.3,0.1-0.6V438c0-0.3,0-0.5,0-0.6c0-0.1-0.1-0.1-0.1-0.2c-0.1,0-0.1-0.1-0.2-0.1c-0.1,0-0.2,0-0.3,0.1L542.6,437.1z
		 M544.2,437.9v1.7c0,0.4,0,0.6,0,0.7c0,0.2,0.2,0.4,0.3,0.5c0.2,0.1,0.4,0.2,0.7,0.2c0.3,0,0.6-0.1,0.8-0.4
		c0.3-0.3,0.4-0.8,0.4-1.5c0-0.7-0.2-1.3-0.5-1.6c-0.2-0.3-0.5-0.4-0.8-0.4c-0.2,0-0.3,0-0.5,0.1
		C544.7,437.5,544.5,437.6,544.2,437.9z"/>
	<path fill="#404041" d="M549.5,435.2v1.5h1.1v0.4h-1.1v3c0,0.3,0,0.5,0.1,0.6s0.2,0.2,0.3,0.2c0.1,0,0.2,0,0.3-0.1
		c0.1-0.1,0.2-0.2,0.2-0.3h0.2c-0.1,0.3-0.3,0.6-0.5,0.7c-0.2,0.2-0.4,0.3-0.7,0.3c-0.2,0-0.3,0-0.5-0.1c-0.1-0.1-0.3-0.2-0.3-0.4
		c-0.1-0.2-0.1-0.4-0.1-0.7V437h-0.7v-0.2c0.2-0.1,0.4-0.2,0.6-0.4c0.2-0.2,0.4-0.4,0.5-0.6c0.1-0.1,0.2-0.4,0.3-0.7H549.5z"/>
	<path fill="#404041" d="M552.6,436.5v3.7c0,0.3,0,0.5,0.1,0.6c0,0.1,0.1,0.2,0.2,0.2c0.1,0,0.2,0.1,0.5,0.1v0.2h-2.3v-0.2
		c0.2,0,0.4,0,0.5-0.1s0.1-0.1,0.2-0.2c0-0.1,0.1-0.3,0.1-0.6v-1.8c0-0.5,0-0.8,0-1c0-0.1-0.1-0.2-0.1-0.2c-0.1,0-0.1-0.1-0.2-0.1
		c-0.1,0-0.2,0-0.3,0.1l-0.1-0.2l1.4-0.6H552.6z M552.2,434.1c0.1,0,0.3,0,0.4,0.1s0.1,0.2,0.1,0.4c0,0.1,0,0.3-0.1,0.4
		s-0.2,0.2-0.4,0.2c-0.1,0-0.3-0.1-0.4-0.2c-0.1-0.1-0.2-0.2-0.2-0.4c0-0.1,0-0.3,0.1-0.4S552.1,434.1,552.2,434.1z"/>
	<path fill="#404041" d="M556.2,436.5c0.7,0,1.3,0.3,1.7,0.8c0.4,0.5,0.5,1,0.5,1.6c0,0.4-0.1,0.8-0.3,1.3c-0.2,0.4-0.5,0.7-0.8,1
		c-0.3,0.2-0.7,0.3-1.2,0.3c-0.7,0-1.3-0.3-1.7-0.8c-0.3-0.5-0.5-1-0.5-1.6c0-0.4,0.1-0.8,0.3-1.3c0.2-0.4,0.5-0.7,0.8-0.9
		C555.4,436.6,555.8,436.5,556.2,436.5z M556,436.9c-0.2,0-0.4,0.1-0.5,0.2s-0.3,0.3-0.4,0.6c-0.1,0.3-0.2,0.6-0.2,1
		c0,0.7,0.1,1.3,0.4,1.7c0.3,0.5,0.6,0.7,1.1,0.7c0.3,0,0.6-0.1,0.8-0.4c0.2-0.3,0.3-0.7,0.3-1.4c0-0.8-0.2-1.5-0.5-1.9
		C556.7,437,556.4,436.9,556,436.9z"/>
	<path fill="#404041" d="M560.4,437.5c0.5-0.7,1.1-1,1.6-1c0.3,0,0.5,0.1,0.7,0.2c0.2,0.1,0.3,0.3,0.4,0.6c0.1,0.2,0.1,0.5,0.1,0.9
		v2c0,0.3,0,0.5,0.1,0.6c0,0.1,0.1,0.2,0.2,0.2c0.1,0,0.2,0.1,0.5,0.1v0.2h-2.3v-0.2h0.1c0.2,0,0.4,0,0.5-0.1
		c0.1-0.1,0.1-0.2,0.2-0.3c0-0.1,0-0.2,0-0.5v-1.9c0-0.4-0.1-0.7-0.2-0.9c-0.1-0.2-0.3-0.3-0.6-0.3c-0.4,0-0.8,0.2-1.2,0.7v2.4
		c0,0.3,0,0.5,0.1,0.6c0,0.1,0.1,0.2,0.2,0.2c0.1,0,0.3,0.1,0.5,0.1v0.2h-2.3v-0.2h0.1c0.2,0,0.4-0.1,0.5-0.2
		c0.1-0.1,0.1-0.3,0.1-0.7v-1.7c0-0.6,0-0.9,0-1s-0.1-0.2-0.1-0.2c-0.1,0-0.1-0.1-0.2-0.1c-0.1,0-0.2,0-0.3,0.1l-0.1-0.2l1.4-0.6
		h0.2V437.5z"/>
	<path fill="#404041" d="M567.3,436.5v1.6h-0.2c-0.1-0.5-0.3-0.8-0.5-1c-0.2-0.2-0.5-0.3-0.8-0.3c-0.2,0-0.4,0.1-0.6,0.2
		s-0.2,0.3-0.2,0.4c0,0.2,0.1,0.4,0.2,0.5c0.1,0.1,0.3,0.3,0.6,0.4l0.7,0.4c0.7,0.3,1,0.8,1,1.3c0,0.4-0.2,0.8-0.5,1
		c-0.3,0.3-0.7,0.4-1.1,0.4c-0.3,0-0.6-0.1-1-0.2c-0.1,0-0.2-0.1-0.3-0.1c-0.1,0-0.1,0-0.2,0.1h-0.2v-1.7h0.2
		c0.1,0.5,0.3,0.8,0.5,1.1c0.3,0.2,0.6,0.4,0.9,0.4c0.2,0,0.4-0.1,0.6-0.2s0.2-0.3,0.2-0.5c0-0.2-0.1-0.4-0.2-0.6
		c-0.2-0.2-0.5-0.4-1-0.6s-0.8-0.5-1-0.7c-0.2-0.2-0.2-0.4-0.2-0.7c0-0.4,0.1-0.7,0.4-1c0.3-0.3,0.6-0.4,1-0.4c0.2,0,0.4,0,0.7,0.1
		c0.2,0.1,0.3,0.1,0.3,0.1c0.1,0,0.1,0,0.1,0c0,0,0.1-0.1,0.1-0.2H567.3z"/>
	<path fill="#404041" d="M526.4,393.6c0,0-4.9-5.3-12.9-4.7c-7.1,0.5-8.7,1-9.8,0c-1.1-1-9-12.3-10.4-19.8
		c-1.4-7.6-3.7-10.3-11.4-9.8c-13.9,0.8-31.3-1.5-41.1-11.4c8,3.2,21.4,6.4,25.3,6.8c4.9,0.5,21-0.4,23.7,1.4c0,0,4.9,1.7,5.5,6.4
		c0.5,3.5,5.7,18.8,14.4,20.7c9.8,2.2,19.3,5.4,19.4,8.2C530.3,395.3,526.4,393.6,526.4,393.6z"/>
	<path fill="#404041" d="M498.6,344.5c0,0,5.2,15.8,14.1,22.8c8.8,6.9,9.1,7.8,8.7,9.6c-0.4,1.9-2.3,5.6-2.3,5.6l-0.1-4
		c0,0-3.5-4.7-7.4-7.3C507.6,368.6,499.1,359,498.6,344.5z"/>
	<linearGradient id="SVGID_1_" gradientUnits="userSpaceOnUse" x1="497.0073" y1="367.5915" x2="518.1228" y2="367.5915">
		<stop  offset="0" style="stop-color:#29B473"/>
		<stop  offset="0.5753" style="stop-color:#009345"/>
		<stop  offset="1" style="stop-color:#006838"/>
	</linearGradient>
	<path fill="url(#SVGID_1_)" d="M497.1,352.7c0,0,5.2,12.6,10.3,17c5.2,4.4,10.7,8.6,10.7,10c0,1.4,0,2.8,0,2.8h-1.2
		c0,0-1.9-2.9-5.7-5.2C507.3,375.1,495.6,360.8,497.1,352.7z"/>
	<path fill="none" d="M511.2,377.4c-3.8-2.2-15.5-15.1-14.1-24.7c0,0,5.2,12.6,10.3,17"/>
	<linearGradient id="SVGID_2_" gradientUnits="userSpaceOnUse" x1="496.0726" y1="369.6993" x2="514.7504" y2="369.6993">
		<stop  offset="0" style="stop-color:#29B473"/>
		<stop  offset="0.5753" style="stop-color:#009345"/>
		<stop  offset="1" style="stop-color:#006838"/>
	</linearGradient>
	<path fill="url(#SVGID_2_)" d="M496.1,357.8c0,0,6,18,18.6,23.8c-4.8-1.2-8.3-2.3-8.3-2.3S495.4,368.6,496.1,357.8z"/>
	<linearGradient id="SVGID_3_" gradientUnits="userSpaceOnUse" x1="447.6779" y1="361.5491" x2="490.7692" y2="361.5491">
		<stop  offset="0" style="stop-color:#29B473"/>
		<stop  offset="0.5753" style="stop-color:#009345"/>
		<stop  offset="1" style="stop-color:#006838"/>
	</linearGradient>
	<path fill="url(#SVGID_3_)" d="M447.7,355.9c0,0,7.6,5,18.5,5.5c11,0.6,22.6-1,24.5,5.7c-3-1.9-10.4-2.7-20.8-2.2
		C460.6,365.5,449.6,359.1,447.7,355.9z"/>
	<linearGradient id="SVGID_4_" gradientUnits="userSpaceOnUse" x1="453.7666" y1="366.7951" x2="491.7057" y2="366.7951">
		<stop  offset="0" style="stop-color:#29B473"/>
		<stop  offset="0.5753" style="stop-color:#009345"/>
		<stop  offset="1" style="stop-color:#006838"/>
	</linearGradient>
	<path fill="url(#SVGID_4_)" d="M453.8,362.9c0,0,8.2,3.7,14.7,4.2c5.7,0.4,16.1-0.5,18.5,0.1c3.3,1,2.8,1.4,4.8,3.6
		c-4.9-2.2-9.2-0.1-17.5-0.6C465.9,369.7,457.4,367.1,453.8,362.9z"/>
	<linearGradient id="SVGID_5_" gradientUnits="userSpaceOnUse" x1="505.4114" y1="395.3427" x2="529.7806" y2="395.3427">
		<stop  offset="0" style="stop-color:#29B473"/>
		<stop  offset="0.5753" style="stop-color:#009345"/>
		<stop  offset="1" style="stop-color:#006838"/>
	</linearGradient>
	<path fill="url(#SVGID_5_)" d="M505.4,391.8c0,0,4.1-1.6,7.5-1.8c3.4-0.2,8.6,0,11.1,4.1c2.9,0.7,5.5,0.3,5.7,1.5
		c0.1,1.6,0,5.1,0,5.1s-3.1-3.7-8.2-3.9c-5.2-0.3-9.7-0.6-9.7-0.6s1.6-0.9,3.9-1.5c0.6-0.3,1.8-0.9-0.9-0.7
		c-2.7,0.3-8.2,1.1-7.2,0.3c1-0.8,4.6-2.2,7.2-2c0.7-0.1,2.2-0.7-1.8-0.7C509,391.7,505.4,391.8,505.4,391.8z"/>
	<path fill="#404041" d="M513.5,403c0,0,1.4-1.7-0.5-2c-1.9-0.4-7.2-0.2-9.7,1c-2.5,1.2-5.8,1.4-7.6-0.9c-1.8-2.2-4.6-7.3-4.5-8.6
		c-0.2,2.2,1.6,8.4,1.6,8.4l-6.6-10.1l1.1,4.2c0,0-9.4-9.2-11.7-8.4c3.4-2,5.2-4.1,4.9-5c-0.2-0.7,0.9,2-7.4,3.9
		c-8.3,1.8-18.5-4.5-21.5-2.8c-3,1.7-6,2.5,0,3.7c6,1.1,13.7,1.3,17,1.9c3.3,0.6,10.7,2.5,13,4.2c0,0,7.6,5.8,11.1,11
		c3.5,5.2,8,1.3,8.7,0.8c0.7-0.5,3-1.8,3.2-0.2c0.3,1.7,0.3,1.7,0.3,1.7l1.3-0.3c0,0-0.8-2.6,1.5-3c0,0,3.2-0.8,3.5,1.3
		c0.4,2.1,1,1.1,1,0.4c0-0.8-1.4-2.6-0.5-2.4C512.7,401.9,513.5,403,513.5,403z"/>
	<path fill="#404041" d="M460.7,378.9c0,0,6,4.3,17.1,3.9c-7.2,2-9.2,2.2-14.3,1.1c-6.3-1.3-8.5-2.2-7.9-3.2
		C456.3,379.8,459.2,378,460.7,378.9z"/>
	<path fill="#404041" d="M465.7,376.9c0,0,5.8,4.2,13.6,4.4c-5.1,1-8.4,0.3-11.9-0.7c-4.4-1.2-5.9-1.9-5.4-2.6
		C462.5,377.3,464.6,376.2,465.7,376.9z"/>
</g>
</svg>
