

<svg version="1.1" id="Layer_1" xmlns="http://www.w3.org/2000/svg" xmlns:xlink="http://www.w3.org/1999/xlink" x="0px" y="0px"
	 viewBox="0 0 118 171.4" enable-background="new 0 0 118 171.4" xml:space="preserve">
<path fill="#6C301E" d="M63.4,143.7c-5.6,1.6-9.8,2.3-12.6,2.2c-4.7-0.2-8.7-1.1-12.1-2.5c-1-0.5-2.1-1.2-3.4-2.3
	c0.2,0.1-0.9-1.3-3.3-4.2c0.9,0.3,1.6,0.4,2.2,0.5c1.7,0.1,2.8,0.1,3.5,0c0.6-0.1,1.5-0.3,2.5-0.6c1.2-0.4,2.1-0.6,2.6-0.7
	c2.3-0.5,4.1-0.9,5.4-1c1.5-0.2,2.8-0.1,3.9,0c-0.2,0,1.2,0.3,4.1,1c-1.4-1.6-1.9-2.2-1.6-1.8c-0.5-0.8-0.9-1.7-1.1-2.5
	c-0.5-1.6-0.8-3.1-0.9-4.5c-0.1-0.6-0.1-2.3-0.1-4.9c0.1-3.2,0.1-4.8,0.1-4.6c-0.1-1-0.4-2.1-1.1-3.5c-0.1-0.3-0.6-1-1.5-2.2
	c2.7,0.4,4.6,1,5.7,1.9c2.3,1.7,4.6,4.9,6.8,9.6c1.2,2.7,2.2,6.3,2.9,10.8c0.5,3.8,0.8,5.6,0.7,5.3c0.3,0.6,0.7,1.1,1.3,1.4
	c0.5,0.3,1.2,0.6,2.2,1c1,0.4,1.8,0.8,2.2,1c0.5,0.3,0.8,0.6,0.9,1c0.3,0.6,0.3,1,0.2,1.3c-0.1,0.5-0.4,0.7-1,0.7
	c-0.4-0.1-1.2-0.3-2.3-0.8c0.7,0.2-0.5-0.3-3.5-1.7c-0.5-0.3-0.8-0.5-0.9-0.5C65.2,143.1,64.6,143.3,63.4,143.7z M24.5,121.4
	c-2.3-1.2-3.8-2.2-4.7-2.9c-1.5-1.2-2.6-2.6-3.5-4.2c-0.3-0.5-0.6-1.2-0.9-2.2c-0.3-1.3-0.5-2.1-0.7-2.3l3,1.5l4.5,0.6
	c4.2,0.4,6,0.6,5.4,0.6c1.8,0.2,3.2,0.4,4.1,0.7c0.2,0.1,1.3,0.5,3.2,1.3c0.3,0.1,0.8,0.3,1.6,0.7c0.7,0.4,1.2,0.6,1.6,0.7
	c-0.4-2.1-0.6-2.9-0.6-2.5c-0.3-1.8-0.5-3-0.5-3.4c0-0.7,0.2-2.1,0.6-4.3c0.3-1.5,0.7-3.2,1.1-5c0.1-0.4,0.3-1.1,0.7-2.1
	c0.3-0.9,0.5-1.5,0.6-2c0.2-1.1,0.3-2,0.2-2.8c-0.1-0.2-0.4-1-0.9-2.3c3.2,2.3,5.1,4,5.8,5.1c2.4,4.2,3.3,9.6,2.7,16.2
	c-0.1,0.8-0.5,2.4-1.3,5c-0.6,2.2-0.9,3.9-0.8,5c0,0.8,0.2,1.4,0.6,1.9c0.3,0.5,1.2,1.6,2.8,3.4c0.2,0.2,0.6,0.5,1.1,1.1
	c0.4,0.4,0.8,0.7,1,1c0.3,0.4,0.3,0.9,0.1,1.5c-0.2,0.6-0.6,1-1,1c-0.3,0.1-0.7,0-1.2-0.5c-0.9-0.7-1.7-1.6-2.6-2.7
	c-0.3-0.3-0.7-0.8-1-1.4c-0.5-0.6-0.8-1-1-1.3c-0.3-0.4-0.6-0.6-0.8-0.7c-0.4-0.2-1-0.3-1.8-0.4c-0.4-0.1-1.2-0.1-2.4-0.1
	c-1,0-1.8-0.1-2.4-0.1c-2.8-0.3-4.9-0.6-6.3-1c-1.2-0.4-1.8-0.5-1.8-0.5S27.6,123,24.5,121.4z M16.4,100.6c-1.8-1.2-3.6-2.5-5.3-4.1
	c-1.4-1.2-2.4-2.4-3-3.5c-0.7-1.1-1.3-2.7-1.8-4.7c0.1,0.2-0.1-0.9-0.5-3.3l1.6,1.5c0.4,0.2,1.1,0.5,2.2,0.9c0.2,0.1,1,0.3,2.3,0.7
	c0.3,0.1,1,0.3,2,0.6c0.8,0.2,1.4,0.4,1.9,0.5c1.1,0.3,2.3,0.6,3.5,0.8c0.8,0.2,1.3,0.2,1.4,0.1c0,0,0-0.4-0.1-1
	c-0.4-1.7-0.7-2.7-0.8-3c-0.5-1.3-1.1-2.2-1.6-2.8c-0.1-0.2-0.8-0.6-2.1-1.3c-0.3-0.2-0.9-0.5-1.8-1.1c-0.8-0.4-1.4-0.8-1.8-1.1
	c-2.2-1.7-4.1-3.3-5.7-4.8C5.3,73.5,4,72,3,70.5c-1.3-2-2.3-3.7-2.7-5.1c-0.1-0.6-0.2-2-0.2-4.1l0.2-3c0.7,0.9,1.2,1.4,1.3,1.5
	c1,0.9,1.9,1.6,2.6,2.1c0.5,0.3,1.2,0.7,2.2,1.1c1,0.5,1.7,0.9,2.2,1.1c1,0.7,2.7,1.8,5,3.4c0.6,0.4,1.3,1.1,2.2,2.1
	c0-0.1,0.8,0.8,2.6,2.6c1.5-3.9,2.1-5.5,1.7-4.9c0.4-0.9,1.3-2.2,2.5-3.9c0.9-1.3,1.8-2.4,2.5-3.3c0.2-0.3,0.7-0.8,1.4-1.4
	c0.6-0.6,1-1.1,1.4-1.5c0.6-0.9,1.1-1.7,1.3-2.5c-0.1,0.2,0.1-0.7,0.4-2.6c1.3,2.1,1.9,3,1.8,2.7c0.7,1.6,1.1,2.9,1.1,4
	c0.1,1.8-0.1,3.8-0.6,6c-0.5,1.9-1.3,4.1-2.4,6.6c-0.4,1.2-1.3,2.8-2.5,4.9c-0.7,1.1-1.3,2.1-2.1,3c-0.2,0.2-0.6,0.6-1.2,1
	c-0.6,0.4-1,0.8-1.2,1.1c-0.5,0.7-0.7,1.5-0.5,2.3c0.1,0.6,0.5,1.8,1.4,3.6c0.1,0.3,0.4,0.7,0.9,1.4c0.4,0.6,0.7,1,0.9,1.4
	c0,0.1,0.4,1.3,1.2,3.5c0.1-0.3,0.2-1,0.4-2c0.1-0.9,0.2-1.5,0.3-2c0.5-1.8,1-3.3,1.5-4.5c0.3-0.7,0.8-1.7,1.5-3.1
	c0.7-1.3,1.3-2.3,1.6-3c0.7-1.6,1.2-2.8,1.4-3.5c-0.1-1.3-0.1-2.3-0.1-3c1.5,1.6,2.3,2.5,2.4,2.5c1,1.6,1.7,3.2,2.1,4.7
	c0.5,2.4,0.7,4.5,0.6,6.3c-0.2,2-0.6,4.4-1.5,7.3c-0.3,1.1-1,2.9-2.2,5.5c0.2-0.6-0.4,0.6-1.8,3.5c-0.4,0.7-0.5,1.1-0.5,1.2
	c0,0.8,0.3,1.5,0.8,2.3c0.2,0.3,0.5,0.8,1,1.4c0.6,0.5,0.9,1,1.1,1.3c0.2,0.5,0.2,1,0.1,1.5c-0.1,0.3-0.4,0.6-0.9,0.8
	c-0.5,0.1-0.9,0.1-1.2-0.2c-0.1-0.1-0.6-0.6-1.4-1.5c-0.3-0.3-0.7-0.8-1.3-1.5c-0.6-0.7-1-1.2-1.3-1.5c-0.9-0.9-1.2-1.4-1.1-1.3
	l-1.8-0.4c-2.3-0.6-3.6-0.9-3.7-0.9c-2.1-0.9-3.1-1.3-3.1-1.3S18.1,101.7,16.4,100.6z M77,158.8c-1.2,0.4-2.5,0.7-4,1
	c-2.3,0.4-4,0.6-5.1,0.6c-2.3,0-4.2-0.2-5.8-0.6c-1-0.2-2.3-0.7-3.9-1.6c-0.3-0.2-1.4-1-3.4-2.6c2.3-0.1,3.3-0.2,3-0.1
	c0.5-0.1,1.4-0.4,2.5-1.1c0.4-0.3,1.3-0.7,2.4-1.4c1-0.5,1.9-1,2.5-1.3c1.7-0.8,3.3-1.5,4.9-2.1c1.3-0.5,2.5-0.9,3.4-1
	c0.5-0.1,1.7-0.1,3.8,0c-1.2-1.3-1.8-1.9-1.7-1.7c-0.8-1.1-1.7-2.4-2.6-4c-0.9-1.6-1.5-3-1.9-4.1c-0.1-0.3-0.8-2.2-1.9-5.9
	c-0.8-2.6-1.2-3.7-1.1-3.5c0.1,0.1-0.7-0.8-2.3-2.8c3,0.1,4.3,0.1,4.1,0c1.6,0.3,2.9,0.8,3.9,1.6c1.7,1.1,3.3,2.5,4.9,4.3
	c1.4,1.4,2.8,3.3,4.4,5.7c1.1,1.7,2.1,3.5,3,5.5c0.4,0.8,0.9,2.5,1.7,5.1c0.1,0.2,0.2,0.8,0.3,1.5c0.1,0.6,0.2,1.2,0.3,1.5
	c0.4,0.7,0.8,1.1,1.2,1.3c0.4,0.1,0.9,0.2,1.6,0.2c0.9,0,1.4,0,1.6,0c0.7,0.1,1.2,0.3,1.6,0.5c0.4,0.2,0.7,0.5,0.8,0.9
	c0.1,0.2,0,0.5-0.2,1c-0.3,0.5-0.5,0.8-0.6,0.8c-0.1,0-1-0.1-2.5-0.4c-0.3-0.1-1-0.3-2-0.5c-0.9-0.2-1.6-0.3-2.2-0.4
	c-0.9,0-2,0.1-3.4,0.4c-0.4,0.1-1.7,0.5-3.7,1.4c-0.3,0.2-0.9,0.4-1.8,0.8C78.1,158.4,77.5,158.7,77,158.8z M115.5,160.2
	c0.7,0,1.2,0,1.6,0.1c0.4,0.2,0.7,0.4,0.9,0.7c0.1,0.2,0,0.6-0.1,1.1c-0.1,0.4-0.2,0.7-0.5,0.8c0,0-0.9,0.1-2.5,0.1
	c-3.2-0.1-4.6-0.2-4.3-0.2c-0.9,0-2,0.3-3.3,0.9c-0.5,0.2-1.7,0.9-3.4,2c-2.8,1.6-3.9,2.3-3.4,2.1c-1,0.5-2.3,1.1-3.8,1.6
	c-2.2,0.8-3.9,1.3-5,1.5c-2.4,0.4-4.3,0.6-5.9,0.5c-0.9-0.1-2.3-0.4-4-1.1c-0.3-0.1-1.5-0.8-3.7-2c0.2-0.1,0.7-0.2,1.5-0.3
	c0.6-0.1,1.1-0.3,1.5-0.4c0.2-0.1,1-0.6,2.4-1.4c0.4-0.3,1.1-0.9,2.2-1.7c0.9-0.7,1.7-1.2,2.3-1.6c1.7-1.3,3.2-2.3,4.5-3
	c1.3-0.8,2.4-1.3,3.1-1.5c0.4-0.2,1.7-0.4,3.8-0.6c-1.2-0.9-1.9-1.4-1.9-1.4c-1.1-1-2.2-2.2-3.2-3.5c-1-1.3-1.9-2.5-2.5-3.7
	c0.1,0.1-0.9-1.7-2.8-5.5c-1.1-2.2-1.6-3.3-1.6-3.2c0,0-0.8-0.8-2.6-2.4c2.8-0.4,4.1-0.6,4-0.6c1.6,0.1,3,0.4,4.2,0.9
	c1.8,0.7,3.6,1.9,5.6,3.5c1.7,1.3,3.4,2.9,5.2,4.9c1.4,1.5,2.6,3.1,3.8,4.9c0.5,0.8,1.4,2.4,2.5,4.8c0.1,0.2,0.3,0.7,0.5,1.4
	c0.2,0.7,0.4,1.1,0.6,1.4c0.4,0.6,0.8,1,1.4,1.1c0.4,0.1,0.9,0.1,1.6,0C114.8,160.2,115.3,160.2,115.5,160.2z M27.8,21.6
	c0.8-0.5,1.4-1,1.8-1.4c0.2-0.2,0.4-0.6,0.6-1.1c0.2-0.5,0.4-0.8,0.5-1c0.4,2.1,0.7,3.2,0.7,3.3c0,1.4-0.3,2.5-0.7,3.5
	c-0.5,1-1.3,2.3-2.7,3.9c-1.2,1.5-2.2,2.7-3.2,3.5c-1.1,1-2.4,2.1-4.1,3.1c-0.8,0.6-1.8,1.1-3.1,1.7c-0.1,0.1-0.3,0.1-0.7,0.2
	c-0.3,0.1-0.5,0.1-0.7,0.2c-0.6,0.4-1,0.8-1,1.1c0,0.1,0.2,1,0.8,2.8c0.1,0.2,0.3,0.7,0.5,1.5c0.2,0.7,0.4,1.2,0.5,1.6
	c0.4-0.4,0.9-0.9,1.7-1.6c0.7-0.7,1.3-1.2,1.6-1.5c0.7-0.6,1.6-1.4,2.8-2.3c1.3-1,2.2-1.8,2.8-2.2l2.1-1.5c0.5-0.4,0.9-1,1.2-1.6
	c0.1-0.2,0.2-0.5,0.2-0.8c0.1-0.4,0.2-0.6,0.2-0.7c0.5,1.3,0.7,2,0.7,2.1c0.2,0.6,0.3,1.3,0.5,2c0.2,1.9,0.3,3,0.2,3.4
	c-0.2,1.1-0.6,2.3-1.4,3.8c-0.8,1.5-1.7,3.2-3,5c-1.1,1.6-2.3,3.1-3.5,4.5c-0.9,1-2,2-3.4,3.1c-0.4,0.3-0.9,0.7-1.6,1.2
	c-0.9,0.6-1.4,0.9-1.7,1.2c0.1,0.2,0.2,0.5,0.3,1c0.1,0.4,0.2,0.7,0.2,0.9c0.2,1,0.2,1.8,0.2,2.3c0,0.2-0.2,0.8-0.4,1.9l-0.5,1.8
	c-0.3,0.5-0.8,0.7-1.3,0.6c-0.4-0.1-0.7-0.4-0.9-1l-0.1-1.5c0-1.9,0-3-0.1-3.1c-0.2-1-0.5-1.8-0.9-2.5c-0.3-0.5-0.8-1.1-1.6-1.9
	c-0.2-0.3-0.6-0.6-1.2-1c-0.6-0.4-1-0.8-1.3-1.1c-1.6-1.7-2.9-3.4-4.1-5.3c-0.8-1.3-1.8-3-2.9-5.2c-0.7-1.5-1.1-2.8-1.3-3.9
	c-0.3-1-0.4-2.2-0.3-3.6c0-0.6,0.3-1.5,0.7-2.9c0-0.1,0.3-0.9,0.9-2.5c0.4,1.4,0.7,2.1,0.7,2c0.5,1,1.1,1.7,1.7,2.3
	c0.4,0.4,1,0.8,1.8,1.3c0.9,0.6,1.5,1.1,1.8,1.4c1,0.8,2,1.7,3.1,2.8c-0.4-0.4,0.2,0.3,1.6,2.1c0.3,0.5,0.6,0.8,0.9,1
	c0-1,0-1.5,0-1.8c-0.3-1.8-0.7-3.5-1.2-5.1c-0.4-1.1-0.9-2.4-1.6-3.7c-0.2-0.5-0.7-1.4-1.6-2.8c-0.7-1.2-1.1-2.1-1.4-2.9
	c-0.9-2.1-1.5-3.9-1.8-5.6c-0.1-0.3,0-1.4,0.3-3.1c0.3-1.5,0.6-2.6,0.9-3.5c0.1-0.2,0.5-1,1.4-2.3c0.4,1.3,0.4,1.8,0.3,1.5
	c0.1,0.4,0.5,1.1,1.2,2.1c0.1,0.1,1.7,2.4,4.8,6.9c0.6,0.8,1,1.5,1.2,1.9c0.4,0.6,0.6,1.1,0.5,1.4c-0.1-0.4-0.1,0.3-0.2,2
	c0.2-0.1,0.8-0.5,1.5-1.3c0.6-0.6,1.2-1.2,2-1.8c1.3-1.1,2.1-1.8,2.4-2c0.3-0.2,1.4-0.6,3.1-1.3c2.2-1,3.4-1.6,3.4-1.6
	S28.1,21.5,27.8,21.6z M25,1.3c0.3-0.1,1.4-0.6,3.2-1.3c-0.1,0.4-0.3,0.9-0.6,1.5c-0.4,0.8-0.6,1.3-0.7,1.7c-0.1,0.5-0.1,1.1-0.1,2
	c0,1,0,1.7,0,2c-0.1,2.3-0.2,3.8-0.4,4.4c-0.4,1.8-1.1,3.5-1.8,5.1c-0.4,0.8-1.2,1.8-2.3,3.1c-1.2,1.3-2.4,2.3-3.5,3.1l-2,0.9
	c-0.1-4.2-0.1-6-0.2-5.3c0.1-1.6,0.5-3.4,1.1-5.4c0.5-2,1.2-3.8,2-5.5C20.3,6,21,4.7,21.8,3.8c0.7-0.8,1.1-1.1,1.1-1.1
	S23.6,2.2,25,1.3z"/>
</svg>
