
<svg version="1.1" id="Layer_1" xmlns="http://www.w3.org/2000/svg" xmlns:xlink="http://www.w3.org/1999/xlink" x="0px" y="0px"
	 viewBox="531.8 -25 1000 100" enable-background="new 531.8 -25 1000 100" xml:space="preserve">
<g>
	<g>
		<rect x="531.8" y="-25" fill="none" width="100" height="100"/>
		<rect x="631.8" y="-25" fill="none" width="100" height="100"/>
		<rect x="731.8" y="-25" fill="none" width="100" height="100"/>
		<rect x="831.8" y="-25" fill="none" width="100" height="100"/>
		<rect x="931.8" y="-25" fill="none" width="100" height="100"/>
		<rect x="1031.8" y="-25" fill="none" width="100" height="100"/>
		<rect x="1131.8" y="-25" fill="none" width="100" height="100"/>
		<rect x="1231.8" y="-25" fill="none" width="100" height="100"/>
		<rect x="1331.8" y="-25" fill="none" width="100" height="100"/>
		<rect x="1431.8" y="-25" fill="none" width="100" height="100"/>
	</g>
</g>
<g>
	<g>
		<path fill="#BD2A2E" d="M1481.8,4.4c6.7,0,12.1,5.4,12.1,12.1s-5.4,12.1-12.1,12.1s-12.1-5.4-12.1-12.1
			C1469.7,9.9,1475.2,4.4,1481.8,4.4L1481.8,4.4z"/>
		<path fill="#FFFFFF" d="M1487.1,17.9c-0.3,1-0.7,1.5-0.7,1.5l-0.5,0.3c0,0,0.3-0.5,0.5-1.2c-1.7,1.2-3.8,2.2-6.1,2.7
			c-0.7,0.1-1.5,0.1-2.1,0.2c1.1,2.7,3.1,5,5.8,6c-3.6-1-5.9-3.4-7.1-6.1c-3-0.4-5.5-2.3-5.9-4.6c-0.3-1.4,0.4-2.8,1.5-3.9
			c-1,1.2-1.4,2.5-1.1,3.7c0.7,3.1,5.3,4.6,10.3,3.4c4-0.9,7-3.2,7.7-5.7C1489.3,15.4,1488.4,16.7,1487.1,17.9L1487.1,17.9
			L1487.1,17.9z"/>
		<path fill="#FFFFFF" d="M1476.5,10.3l-0.9-1.4c-0.1-0.3-0.1-0.4,0.2-0.3c1,0,2.1,0.3,2.1,0.3c1-1.3,2.2-2.1,3.4-2.4
			c1.5-0.2,3.1,0.5,4.4,1.7c-1.4-1.1-2.9-1.6-4.3-1.2c-3.8,0.9-5.3,6.8-3.8,12.2c0,0-0.5,0.1-1.2-0.1c-0.7-3.2-0.5-5.5,0-7.3
			c-3,0.5-3.6,2.2-4,2.8C1473.4,11.2,1476.5,10.3,1476.5,10.3L1476.5,10.3z"/>
		<path fill="#FFFFFF" d="M1487.6,21.5c0,0,1.2-2.3,1.4-2.6c0.1-0.3,0.5-1.3-0.6-0.2c0,0-3.1,3.1-7.6,3.7c0,0,3,1.9,5.4,2.1
			c0.4,0,0.5,0,0.5-0.3l0.2-1c0,0,4.1-1.3,5.4-5.1C1492.3,18.2,1491.4,20.8,1487.6,21.5L1487.6,21.5z"/>
		<path fill="#FFFFFF" d="M1491.3,14.4c0.1,0.9-0.3,1.8-1,2.5c0.6-0.8,0.9-1.6,0.8-2.4c-0.4-2.1-3.2-3.2-6.4-2.6
			c-2.6,0.6-4.8,2.1-5.3,3.6c0.2-1.9,3.2-3.7,6.2-4.1C1488.8,11,1491,12.5,1491.3,14.4L1491.3,14.4z"/>
		<path fill="#FFFFFF" d="M1483.4,8.9c2.3,0,3.6,2.5,3.9,4.5c0.1,1.3,0.1,2.2-0.1,3.2c0,0-0.3,0.3-0.5,0.4c0.2-0.9,0.3-2,0.1-3.2
			c-0.2-2-1.3-4.4-3.4-4.6c-0.6,0-0.9,0.1-1.2,0.2h-0.2C1482.3,9.2,1482.8,8.9,1483.4,8.9L1483.4,8.9z"/>
		<path fill="#FFFFFF" d="M1477.9,13.3c0.3-2.4,1.3-3.6,1.5-3.9c2.2,0.7,4.4,1.8,4.4,1.8C1481.6,11,1479.4,12.2,1477.9,13.3
			L1477.9,13.3z"/>
		<path fill="#231F20" d="M1491.2,26.2C1491.2,26.2,1491.2,26.2,1491.2,26.2c-0.2-0.1-0.3-0.2-0.5-0.2c-0.4,0-0.6,0.3-0.6,0.5
			c0,0.3,0.2,0.4,0.5,0.6c0.2,0.1,0.4,0.2,0.4,0.4c0,0.1-0.1,0.3-0.3,0.3c-0.2,0-0.4-0.1-0.4-0.1c0,0-0.1,0-0.1,0c0,0,0,0,0,0l0,0.1
			c0,0,0,0,0,0c0,0,0,0,0.1,0c0.1,0.1,0.3,0.1,0.5,0.1c0.4,0,0.6-0.3,0.6-0.6c0-0.2-0.1-0.3-0.2-0.4c-0.1-0.1-0.2-0.1-0.3-0.2
			c-0.2-0.1-0.4-0.2-0.4-0.4c0-0.2,0.1-0.3,0.3-0.3c0.2,0,0.3,0.1,0.4,0.1c0,0,0,0,0,0c0,0,0,0,0,0L1491.2,26.2L1491.2,26.2z"/>
		<path fill="#231F20" d="M1492.3,27.3c0-0.1,0-0.1,0-0.2l-0.3-1c0,0,0,0,0,0h-0.2c0,0,0,0,0,0l-0.1,1.9c0,0,0,0,0,0h0.2
			c0,0,0,0,0,0l0-1.5c0-0.1,0-0.1,0-0.1h0c0,0.1,0,0.1,0,0.2l0.3,1c0,0,0,0,0,0h0.1c0,0,0,0,0,0l0.3-1c0-0.1,0-0.1,0-0.2h0
			c0,0,0,0.1,0,0.1l0,1.5c0,0,0,0,0,0h0.2c0,0,0,0,0,0l-0.1-1.9c0,0,0,0,0,0h-0.2c0,0,0,0,0,0l-0.3,1
			C1492.4,27.1,1492.3,27.2,1492.3,27.3L1492.3,27.3L1492.3,27.3z"/>
	</g>
	<g>
		<path fill="#231F20" d="M1526.1,42.6l-0.4-0.5l-0.1-0.1c0.2-0.1,0.4-0.2,0.4-0.5c0-0.2-0.1-0.4-0.5-0.4h-0.4v1.5h0.2V42l0,0
			l0.4,0.6L1526.1,42.6L1526.1,42.6z M1525.8,41.5c0,0.1,0,0.2-0.4,0.2l0,0v-0.5h0.1C1525.8,41.2,1525.8,41.3,1525.8,41.5
			L1525.8,41.5z M1525.5,40.7c0.6,0,1.1,0.5,1.1,1.1c0,0.6-0.5,1.1-1.1,1.1c-0.6,0-1.1-0.5-1.1-1.1
			C1524.4,41.2,1524.9,40.7,1525.5,40.7L1525.5,40.7z M1525.5,40.5c-0.7,0-1.3,0.6-1.3,1.3c0,0.7,0.6,1.3,1.3,1.3
			c0.7,0,1.3-0.6,1.3-1.3C1526.8,41.1,1526.2,40.5,1525.5,40.5L1525.5,40.5z"/>
		<path fill="#231F20" d="M1506.1,40.1c-0.8,1.3-2.1,2.6-3.6,2.6c-1.2,0-1.8-1.2-1.8-2.2c0-1.6,0.8-3.2,1.7-4.4
			c1.1-1.3,2.3-2.2,4.1-2.2l0,0l1.4,0.2h0.4l2.3-0.1l-0.7,2.6l-0.7,3.5l-0.1,0.5l0.7,0.1l-0.3,1.8l-4.1,0.1L1506.1,40.1L1506.1,40.1
			z M1506.9,35.9c-0.2-0.2-0.5-0.2-0.7-0.2c-0.8,0-1.2,0.8-1.5,1.4c-0.4,0.8-0.8,1.8-0.8,2.6c0,0.2,0.1,0.2,0.2,0.2
			c0.1,0,0.3-0.1,0.5-0.3c0.3-0.2,0.5-0.5,0.8-0.9c0.5-0.7,1-1.4,1.2-1.7L1506.9,35.9L1506.9,35.9z"/>
		<path fill="#231F20" d="M1476,41.7h-0.2c-1.4,0.5-2.8,0.9-4.3,0.9c-1.7,0-3.5-0.8-3.5-2.9c0-1.4,0.8-3,1.7-4.1
			c1.1-1.1,2.6-1.8,4.1-1.8c0.6,0,1.2,0.1,1.7,0.5c0.5,0.4,0.8,0.9,0.8,1.5c0,2.5-3,3.8-5,3.8c0.1,0.6,0.6,0.8,1.3,0.8
			c1.1,0,2.4-0.5,3.5-1l0.4-0.2L1476,41.7L1476,41.7z M1472.7,37.6c0.4-0.2,0.7-0.7,0.7-1.1c0-0.3-0.2-0.6-0.5-0.6
			c-0.4,0-0.7,0.4-1,0.8c-0.2,0.4-0.4,0.8-0.5,1.2C1471.9,37.8,1472.4,37.8,1472.7,37.6L1472.7,37.6z"/>
		<path fill="#231F20" d="M1494.9,34.3l-1.8-0.1l0.1-0.8c-0.5-0.3-1.2-0.5-1.8-0.5c-2.4,0-3.7,3.2-3.8,5.4c0,1.7,0.8,2.4,2.5,2.4
			l0.3-0.1l0.3-1.4v-0.5l-0.6-0.1l0.2-1.8h4.9l-0.5,1.8l-0.7,0.1l-0.2,0.5l-0.5,2.6l-0.2,0.1c-1.4,0.5-2.8,0.7-4.2,0.7
			c-2.6,0-4.7-1.1-4.8-3.9v-0.2l0.5-0.7c0.3-0.3,0.6-0.8,0.8-1.3c0.2-0.5,0.5-1,0.5-1.7c0-0.3-0.1-0.6-0.2-0.9l-0.1-0.1l0.1-0.2
			c0.3-0.2,0.6-0.6,0.7-0.7c1.5-1.5,3-2.1,5.2-2.1c1.2,0,2.4,0.2,3.6,0.5l0.2,0.1L1494.9,34.3L1494.9,34.3z"/>
		<polygon fill="#231F20" points="1447.5,36.2 1444.3,41 1442.6,41 1441.4,35.9 1440.5,40.1 1440.5,40.6 1440.9,40.7 1440.6,42.5
			1436.8,42.5 1437.4,40.7 1438,40.6 1438.1,40.1 1439.4,33.7 1439.5,33.3 1438.9,33.1 1439.2,31.3 1443.2,31.3 1444.6,37.3
			1448.7,31.3 1452.4,31.3 1451.9,33.2 1451.2,33.3 1451.1,33.7 1449.7,40.1 1449.7,40.6 1450.3,40.7 1450,42.5 1445.6,42.5
			1446.1,40.7 1446.6,40.6 1446.7,40.1 		"/>
		<path fill="#231F20" d="M1465,36.7c-0.1,0-0.2,0.1-0.5,0.3c-0.2,0.2-0.5,0.5-0.7,0.8c-0.5,0.7-1,1.4-1.1,1.7l-0.6,2.9h-3.4
			l0.6-2.4l0.8-3.7l0.1-0.5l-0.7-0.1l0.3-1.8l4.1-0.1l-0.7,2.6c0.8-1.3,2-2.6,3.5-2.6c1.3,0,1.9,0.9,1.5,2.9l-0.7,3.4l-0.1,0.5
			l0.7,0.1l-0.3,1.8h-4.2l0.6-2.4l0.6-2.8C1465,37,1465,36.8,1465,36.7L1465,36.7z"/>
		<path fill="#231F20" d="M1498.6,36.5c0.8-1.3,2.1-2.6,3.5-2.6c0.3,0,0.5,0.1,0.8,0.2l0.2,0.1l-1.1,3.1l-0.2-0.2
			c-0.2-0.2-0.4-0.2-0.6-0.2c-1.1,0-2.3,1.7-2.9,2.6l-0.6,3h-3.4l0.6-2.6l0.8-3.8v-0.2l-0.6-0.1l0.3-1.8l4.1-0.1L1498.6,36.5
			L1498.6,36.5z"/>
		<path fill="#231F20" d="M1515.9,36.7c-0.1,0-0.2,0-0.5,0.2c-0.2,0.2-0.5,0.5-0.7,0.8c-0.5,0.6-0.9,1.3-1.1,1.5l-0.1,0.2l-0.7,3.1
			h-3.2l0.6-2.4l0.8-3.7v-0.5l-0.6-0.1l0.3-1.8l3.9-0.1l-0.7,2.6c0.2-0.4,0.5-0.8,0.8-1.1c0.6-0.7,1.7-1.5,2.7-1.5
			c1,0,1.5,0.7,1.5,1.6c0,0.4-0.1,0.8-0.2,1.1l-0.1,0.1c0.3-0.5,0.6-0.9,1-1.3c0.6-0.7,1.7-1.4,2.6-1.4c1.1,0,1.6,0.9,1.6,1.7
			c0,0.4-0.1,0.7-0.2,1.1l-0.7,3.5l-0.1,0.5l0.7,0.1l-0.3,1.8h-4l0.5-2.4l0.6-2.6c0.1-0.4,0.1-0.6,0.1-0.7v-0.1v0.1
			c-0.1,0-0.2,0-0.5,0.2c-0.2,0.2-0.5,0.5-0.7,0.8c-0.5,0.6-0.9,1.3-1.1,1.5l-0.1,0.2l-0.7,3.1h-3.2l0.5-2.4l0.6-2.6
			C1515.9,37,1515.9,36.7,1515.9,36.7L1515.9,36.7z"/>
		<path fill="#231F20" d="M1484.9,34L1484.9,34c0.2,0.4,0.4,0.8,0.4,1.1c0,1-0.6,1.8-1.1,2.5l-1.9,2.3l-0.8,0.9
			c-1.3,1.4-2.6,2.9-3.5,4.5v0.2l-3.9,0.2l0.6-0.5c1.1-0.8,2-1.7,2.9-2.8l0.2-0.3c-0.1-2-0.5-4.1-1.2-6.1l-0.7-0.1l0.3-1.8l3.2-0.1
			l0.1,0.2c0.6,1.5,0.8,3.1,1.1,4.7c0.2-0.2,0.2-0.3,0.4-0.4c0.2-0.3,0.5-0.5,0.6-0.8c0.5-0.5,0.8-1.1,0.8-1.7
			c0-0.6-0.4-1.1-0.8-1.6l-0.4-0.4L1484.9,34L1484.9,34z"/>
		<path fill="#231F20" d="M1451.5,42c-0.8-0.5-1.3-1.3-1.3-2.3c0-1.4,0.8-3,1.7-4c1.1-1.2,2.6-1.9,4.2-1.9c0.8,0,1.7,0.2,2.3,0.5
			c0.8,0.5,1.3,1.4,1.3,2.3c0,1.4-0.8,3.1-1.7,4.1c-1.1,1.1-2.6,1.9-4.2,1.9C1453,42.6,1452.1,42.5,1451.5,42L1451.5,42z M1454.1,37
			c-0.3,0.8-0.5,1.7-0.5,2.3c0,0.3,0,0.7,0.2,1s0.3,0.5,0.7,0.5c0.6,0,1.1-0.5,1.4-1.4c0.3-0.8,0.5-1.7,0.5-2.3c0-0.3,0-0.8-0.2-1.1
			c-0.1-0.3-0.3-0.5-0.7-0.5C1454.9,35.7,1454.4,36.2,1454.1,37L1454.1,37z"/>
	</g>
</g>
<g>
	<path fill="#8DC640" d="M1416.2,23.8c-0.5,0.3-1.2,0.5-2.1,0.5h-0.4h-0.5l0.7-3.9h0.4h0.3c0.8,0,1.4,0.1,1.8,0.4
		c0.3,0.2,0.7,0.6,0.7,1.4C1417,23.1,1416.6,23.6,1416.2,23.8 M1359.5,28.7h-7.4l0.5-2.6h4.6l0.5-2.9h-4.6l0.4-2.5h7.3L1359.5,28.7z
		 M1420.2,18.5c-1.1-0.7-2.7-1.1-4.9-1.1h-5.6l-2.1,11.3h-7.4l0.5-2.6h4.4l0.5-2.9l-4.4,0l0.5-2.6h4.6l0.6-3.3h-9.3l-2,10.8h-3.4
		l2-10.8h-4.9l-2,10.8h-3.3l2-10.8h-4.8l-2.1,11.3h-7.4l0.5-2.6h4.5l0.5-2.9l-4.4,0l0.5-2.6h4.6l0.6-3.3h-28.9l-1.6,9l-3.3-9h-5
		l-2.7,14.7h4.8l1.6-9.2l3.2,9.2h17.2l2.1-11.3h2.7l-2.1,11.3h45.3l1.3-7.2l2.1,7.2h4.8l-2.2-5.9l0.5-0.1c1.1-0.2,2-0.7,2.6-1.5
		c0.6-0.8,0.9-1.8,0.9-3C1421.7,20.3,1421.2,19.2,1420.2,18.5"/>
	<path fill="#8DC640" d="M1424.1,30.3l0.7,0c0.1,0,0.2,0,0.3-0.1c0.1,0,0.1-0.1,0.2-0.1c0-0.1,0.1-0.1,0.1-0.2
		c0-0.1-0.1-0.2-0.1-0.3c-0.1-0.1-0.2-0.1-0.4-0.1l-0.7,0L1424.1,30.3z M1423.9,31.6l-0.1-2.3l1-0.1c0.2,0,0.4,0,0.5,0
		c0.1,0,0.2,0.1,0.3,0.2c0.1,0.1,0.1,0.2,0.1,0.3c0,0.2,0,0.3-0.1,0.4c-0.1,0.1-0.3,0.2-0.5,0.2c0.1,0,0.1,0.1,0.2,0.1
		c0.1,0.1,0.2,0.2,0.3,0.3l0.4,0.6l-0.4,0l-0.3-0.5c-0.1-0.1-0.2-0.2-0.2-0.3c-0.1-0.1-0.1-0.1-0.2-0.1c0,0-0.1,0-0.1-0.1
		c0,0-0.1,0-0.2,0l-0.4,0l0.1,1L1423.9,31.6z"/>
	<path fill="#8DC640" d="M1422.9,30.5c0-0.5,0.1-0.9,0.5-1.3c0.3-0.4,0.8-0.6,1.2-0.6c1-0.1,1.8,0.7,1.9,1.7c0,0,0,0.1,0,0.1
		c0,0.9-0.7,1.7-1.7,1.8C1423.8,32.3,1422.9,31.5,1422.9,30.5 M1424.6,28.3c-0.6,0-1.1,0.3-1.5,0.7c-0.4,0.4-0.6,1-0.6,1.6
		c0.1,1.2,1.1,2.1,2.3,2c1.2-0.1,2.1-1.1,2-2.3v0C1426.8,29.1,1425.8,28.2,1424.6,28.3"/>
</g>
<g>
	<path fill="#EFAD00" d="M1252.6,24.5l-4.4,1c-0.1-1.1-0.5-1.9-1-2.5c-0.5-0.5-1.2-0.8-2-0.8c-1.1,0-2,0.5-2.7,1.4
		c-0.7,0.9-1,2.5-1,4.8c0,2.5,0.3,4.2,1,5.2c0.7,1,1.6,1.5,2.7,1.5c0.8,0,1.5-0.3,2.1-0.9c0.5-0.6,0.9-1.6,1.1-3.1l4.4,0.9
		c-0.5,2.5-1.3,4.4-2.6,5.6c-1.3,1.3-3,1.9-5.2,1.9c-2.5,0-4.4-1-5.9-2.9c-1.5-1.9-2.2-4.6-2.2-8c0-3.4,0.7-6.1,2.2-8
		c1.5-1.9,3.5-2.9,6-2.9c2.1,0,3.7,0.5,4.9,1.6C1251.2,20.6,1252,22.2,1252.6,24.5z"/>
	<path fill="#EFAD00" d="M1258.3,24.7l-4.1-0.9c0.5-2,1.2-3.5,2.4-4.5c1.1-1,2.8-1.5,5-1.5c2,0,3.5,0.3,4.5,0.9
		c1,0.6,1.7,1.3,2.1,2.2c0.4,0.9,0.6,2.5,0.6,4.9l0,6.4c0,1.8,0.1,3.2,0.2,4.1c0.1,0.9,0.4,1.8,0.8,2.8h-4.4
		c-0.1-0.4-0.3-0.9-0.4-1.6c-0.1-0.3-0.1-0.5-0.2-0.6c-0.8,0.9-1.6,1.6-2.5,2.1c-0.9,0.5-1.8,0.7-2.8,0.7c-1.7,0-3.1-0.6-4.1-1.7
		c-1-1.2-1.5-2.6-1.5-4.4c0-1.2,0.2-2.2,0.7-3.2c0.5-0.9,1.1-1.6,1.9-2.1c0.8-0.5,2-0.9,3.6-1.3c2.1-0.5,3.5-0.9,4.3-1.4V25
		c0-1.1-0.2-1.8-0.6-2.3c-0.4-0.5-1.2-0.7-2.4-0.7c-0.8,0-1.4,0.2-1.9,0.6C1259,23,1258.6,23.7,1258.3,24.7z M1264.3,29.1
		c-0.6,0.2-1.5,0.5-2.7,0.8c-1.2,0.3-2.1,0.6-2.4,1c-0.6,0.5-0.9,1.2-0.9,1.9c0,0.8,0.2,1.4,0.7,2c0.5,0.6,1.1,0.8,1.8,0.8
		c0.8,0,1.6-0.3,2.3-1c0.5-0.5,0.9-1.1,1.1-1.8c0.1-0.5,0.2-1.4,0.2-2.7L1264.3,29.1L1264.3,29.1z"/>
	<path fill="#EFAD00" d="M1270.6,33.2l4.5-0.8c0.2,1.1,0.6,1.9,1.2,2.4c0.6,0.6,1.4,0.8,2.5,0.8c1.2,0,2-0.3,2.6-0.8
		c0.4-0.4,0.6-0.9,0.6-1.5c0-0.4-0.1-0.8-0.3-1c-0.2-0.3-0.7-0.5-1.5-0.7c-3.6-1-5.9-1.9-6.9-2.7c-1.3-1.1-2-2.7-2-4.7
		c0-1.8,0.6-3.3,1.7-4.6c1.2-1.2,3-1.8,5.4-1.8c2.3,0,4,0.5,5.2,1.4c1.1,0.9,1.9,2.3,2.3,4.1l-4.2,1c-0.2-0.8-0.5-1.4-1-1.9
		c-0.5-0.4-1.2-0.6-2.2-0.6c-1.2,0-2,0.2-2.5,0.6c-0.3,0.3-0.5,0.7-0.5,1.1c0,0.4,0.1,0.7,0.4,1c0.4,0.4,1.8,0.9,4.2,1.6
		c2.4,0.7,4,1.5,5,2.5c0.9,1,1.4,2.4,1.4,4.1c0,1.9-0.6,3.6-1.9,4.9c-1.3,1.4-3.2,2.1-5.7,2.1c-2.3,0-4.1-0.6-5.5-1.7
		C1271.9,36.7,1271,35.2,1270.6,33.2z"/>
	<path fill="#EFAD00" d="M1293.8,10.4v10.6c1.4-2.1,3.2-3.1,5.2-3.1c1,0,2,0.2,2.8,0.7c0.8,0.5,1.5,1.1,1.9,1.8
		c0.4,0.7,0.7,1.5,0.9,2.4s0.2,2.3,0.2,4.1v12.2h-4.5v-11c0-2.2-0.1-3.6-0.3-4.2c-0.2-0.6-0.5-1.1-0.9-1.4c-0.4-0.3-1-0.5-1.6-0.5
		c-0.7,0-1.4,0.2-2,0.7c-0.6,0.4-1,1.1-1.3,2c-0.3,0.9-0.4,2.2-0.4,4v10.4h-4.5V10.4H1293.8z"/>
	<path fill="#231F20" d="M1308.2,10.4h4.7V26c0,2.5,0.1,4.1,0.2,4.8c0.2,1.2,0.7,2.1,1.4,2.8c0.8,0.7,1.8,1.1,3.1,1.1
		c1.3,0,2.3-0.3,3-1c0.7-0.7,1.1-1.5,1.2-2.5c0.1-1,0.2-2.6,0.2-4.9V10.4h4.7v15.1c0,3.5-0.1,5.9-0.4,7.3c-0.3,1.4-0.7,2.6-1.4,3.6
		s-1.6,1.8-2.7,2.3c-1.1,0.6-2.6,0.9-4.5,0.9c-2.2,0-3.9-0.3-5.1-1c-1.2-0.6-2.1-1.5-2.7-2.5s-1.1-2.1-1.3-3.2
		c-0.3-1.6-0.5-4.1-0.5-7.3L1308.2,10.4L1308.2,10.4z"/>
</g>
<g>
	<polygon fill="#007BB2" points="621.8,50 621.8,0 541.9,0 541.9,50 	"/>
	<polygon fill="#FFFFFF" points="542.8,49.1 542.8,0.9 620.9,0.9 620.9,49.1 	"/>
	<polygon fill="#007BB2" points="618.4,13.7 618.4,3.3 545.1,3.3 545.1,13.7 	"/>
	<polygon fill="#F1C04B" points="618.4,46.7 618.4,36.2 545.1,36.2 545.1,46.7 	"/>
	<polygon fill="#007BB2" points="570.2,33.2 575.2,16.7 579.7,16.7 574.7,33.2 	"/>
	<path fill="#007BB2" d="M568.2,16.7l-4,7c-1,1.8-1.6,2.8-1.9,3.9h-0.1c0.1-1.5-0.1-3.3-0.2-4.3l-0.4-6.6h-7.5l-0.1,0.4
		c1.9,0,3.1,1,3.4,3l1.5,13.1h4.6l9.4-16.5L568.2,16.7L568.2,16.7z"/>
	<path fill="#007BB2" d="M603,33.2l-0.1-2.5l-5.6,0l-1.1,2.5h-4.8l8.8-16.5h6l1.5,16.5H603L603,33.2z M602.4,23.5
		c0-1.2-0.1-2.9,0-3.9h-0.1c-0.3,0.8-1.4,3.3-2,4.5l-1.7,3.6h3.9L602.4,23.5L602.4,23.5z"/>
	<path fill="#007BB2" d="M584.4,33.7c-3.2,0-5.2-1-6.7-1.9l2.1-3.3c1.3,0.8,2.4,1.6,4.8,1.6c0.8,0,1.5-0.2,2-0.9
		c0.6-1.1-0.1-1.7-1.9-2.6l-0.9-0.6c-2.6-1.8-3.7-3.4-2.5-6.4c0.8-1.9,2.8-3.3,6.2-3.3c2.3,0,4.5,1,5.8,2l-2.4,2.9
		c-1.2-1-2.3-1.5-3.5-1.5c-0.9,0-1.7,0.4-1.9,0.9c-0.5,0.9,0.2,1.5,1.5,2.4l1,0.6c3.1,2,3.9,4.1,3.1,6
		C589.8,33,587.1,33.7,584.4,33.7L584.4,33.7z"/>
</g>
<g>
	<polygon fill="#1E306D" points="742,0 742,50 821.6,50 821.6,0 	"/>
	<path fill="#ED8313" d="M774.5,25c0-12.3,9.9-22.2,22.2-22.2c12.3,0,22.2,9.9,22.2,22.2c0,12.3-9.9,22.2-22.2,22.2
		C784.4,47.2,774.5,37.3,774.5,25L774.5,25z"/>
	<path fill="#E10020" d="M781.8,8.5c0,0-1.2,1-1.9,2h3.9c0,0,1.3,1.5,1.8,2.6h-7.7c0,0-0.7,1.2-1.2,2.2h10.2c0,0,0.9,1.7,1.1,2.7
		h-12.4c0,0-0.4,1.2-0.6,2.1l13.6,0c0.4,1.7,1.3,6.7-0.6,12.1l-12.3,0c0.2,0.7,0.5,1.5,0.9,2.2h10.6c-0.4,0.9-1.1,2-1.4,2.6l-7.8,0
		c0.4,0.6,1.1,1.6,1.5,2l4.8,0c-0.9,1.2-2.4,2.5-2.4,2.5h0l0,0c-3.9,3.5-9.1,5.7-14.8,5.7c-12.3,0-22.2-9.9-22.2-22.2
		c0-12.3,9.9-22.2,22.2-22.2C772.7,2.8,777.9,5,781.8,8.5L781.8,8.5z"/>
	<path fill="#1E306D" d="M770.8,20.4l-0.4,2l-1.9-0.1c0,0-1,0.3-1,0.7s0.7,0.9,1.8,1.4c1.1,0.5,1.1,1.7,1,2.6
		c-0.1,0.9-0.3,2.7-3.4,2.8c-1.8,0.1-2.8-0.3-2.8-0.3l0.4-2c0,0,2.3,0.6,2.8,0.3c0.5-0.4,1.1-1,0.2-1.4c-1-0.4-2.6-1.1-2.6-2.7
		c0-1.6,0.7-2.6,1.7-3C767.8,20.1,769.6,20.2,770.8,20.4L770.8,20.4z"/>
	<polygon fill="#1E306D" points="755.5,30.9 753.2,30.9 754.5,23.2 751.7,30.9 750.2,30.9 749.8,22.8 748.4,30.9 746.3,30.9
		748.3,19.1 750.9,19.1 751.8,25.9 754.8,19.1 757.5,19.1 	"/>
	<path fill="#1E306D" d="M772.9,30.3c-0.7,0-1.3-0.2-1.6-0.5c-0.3-0.3-0.5-0.8-0.5-1.5c0-0.2,0-0.3,0-0.5c0-0.2,0.1-0.4,0.1-0.6
		l1.4-7.6h2.1l-0.3,1.5h2l-0.3,1.9h-2l-0.5,3.2c0,0.2-0.1,0.4-0.1,0.7c0,0.2-0.1,0.4-0.1,0.6c0,0.3,0.1,0.5,0.2,0.7
		c0.1,0.1,0.3,0.2,0.6,0.2c0.1,0,0.2,0,0.4-0.1c0.2-0.1,0.3-0.1,0.4-0.2h0.2l-0.3,1.9c-0.2,0.1-0.5,0.1-0.8,0.2
		C773.5,30.3,773.2,30.3,772.9,30.3L772.9,30.3z"/>
	<path fill="#1E306D" d="M788.1,23c-0.5-0.4-1.5-0.3-1.7,0.4l-1,6h-2.1l1.5-8.9h2.1l0,0.7c0.4-0.4,0.9-0.7,2-0.7
		C788.9,20.5,788.2,21.9,788.1,23L788.1,23z"/>
	<path fill="#1E306D" d="M792.1,31.2c-1.2,0-2.1-0.4-2.7-1.2c-0.7-0.8-1-1.9-1-3.4c0-1.2,0.1-2.2,0.4-3.2c0.3-0.9,0.7-1.8,1.2-2.5
		c0.5-0.7,1.1-1.2,1.8-1.6c0.7-0.4,1.4-0.6,2.1-0.6c0.6,0,1.2,0.1,1.7,0.3c0.3,0.1,0.7,0.3,0.7,0.3l-0.5,2.8
		c-0.2-0.3-0.5-0.6-0.7-0.7c-0.4-0.2-0.8-0.4-1.3-0.4c-0.9,0-1.6,0.5-2.2,1.4c-0.6,1-0.9,2.2-0.9,3.6c0,1,0.2,1.6,0.5,2.1
		c0.3,0.4,0.8,0.6,1.4,0.6c0.5,0,1.1-0.1,1.5-0.4c0.2-0.1,0.4-0.3,0.7-0.5l-0.5,2.7c0,0-0.3,0.1-0.4,0.2c-0.3,0.1-0.6,0.2-0.8,0.3
		C792.9,31.1,792.5,31.2,792.1,31.2L792.1,31.2z"/>
	<path fill="#1E306D" d="M760.7,29.2c-0.1,0.1-0.2,0.1-0.2,0.2c-0.2,0.1-0.4,0.2-0.6,0.3c-0.2,0-0.5,0.1-0.8,0.1
		c-0.5,0-1-0.2-1.3-0.6c-0.4-0.4-0.5-1-0.5-1.6c0-0.7,0.1-1.3,0.4-1.8c0.2-0.5,0.6-0.9,1.1-1.2c0.5-0.3,1-0.5,1.6-0.6l0.4-0.1
		c0.5-0.1,1-0.2,1.6-0.2c0,0,0-0.1,0-0.2c0-0.1,0-0.1,0-0.2c0-0.4-0.1-0.6-0.4-0.8c-0.3-0.1-0.6-0.2-1.2-0.2h-0.1
		c-0.3,0-0.7,0.1-1.1,0.2c-0.4,0.2-0.7,0.3-0.9,0.4h-0.2l0.3-2.1c0.2-0.1,0.6-0.2,1.1-0.3c0.2-0.1,0.5-0.1,0.7-0.1
		c0.3,0,0.5,0,0.8,0c1,0,1.8,0.2,2.3,0.5c0.5,0.4,0.7,0.9,0.7,1.7c0,0.1,0,0.2,0,0.4c0,0.2,0,0.3-0.1,0.5l-1,6.1h-2.1l0.2-1
		c-0.1,0.1-0.3,0.3-0.5,0.4C760.9,29,760.8,29.1,760.7,29.2L760.7,29.2z M760.7,25.5c-0.2,0-0.4,0.1-0.6,0.2
		c-0.2,0.1-0.4,0.3-0.5,0.5c-0.1,0.2-0.2,0.5-0.2,0.9c0,0.3,0.1,0.5,0.2,0.6c0.2,0.1,0.4,0.2,0.7,0.2c0.1,0,0.2,0,0.3-0.1
		c0.1,0,0.2-0.1,0.3-0.1c0.2-0.1,0.5-0.3,0.7-0.5l0.3-1.9c-0.4,0-0.7,0.1-1.1,0.2C760.9,25.4,760.8,25.4,760.7,25.5L760.7,25.5z"/>
	<path fill="#1E306D" d="M779,22.1c-0.3,0-0.5,0.2-0.8,0.4c-0.3,0.3-0.5,0.8-0.7,1.3h1.4h1.4c0-0.1,0-0.2,0-0.3c0-0.1,0-0.2,0-0.2
		c0-0.4-0.1-0.7-0.3-1c-0.2-0.2-0.5-0.3-0.8-0.3C779.3,22,779.1,22.1,779,22.1L779,22.1z M779,27.7h0.3c0.5,0,0.9-0.1,1.3-0.3
		c0.4-0.2,0.8-0.5,1.1-0.7h0.2l-0.4,2.3c-0.4,0.2-0.8,0.4-1.3,0.5c-0.4,0.1-0.8,0.2-1.2,0.2h-0.2c-1.1,0-2-0.3-2.6-1
		c-0.6-0.7-0.9-1.6-0.9-2.8c0-0.8,0.1-1.6,0.3-2.2c0.2-0.7,0.5-1.3,0.9-1.8c0.4-0.5,0.8-0.9,1.4-1.2c0.4-0.2,0.8-0.3,1.2-0.4
		c0.2,0,0.4,0,0.6,0c1,0,1.7,0.3,2.2,0.8c0.5,0.5,0.7,1.3,0.7,2.4c0,0.4,0,0.7-0.1,1.1c-0.1,0.3-0.1,0.7-0.2,1H779h-1.6v0.1v0.1
		c0,0.6,0.2,1.1,0.5,1.4C778.1,27.5,778.5,27.7,779,27.7L779,27.7z"/>
	<path fill="#1E306D" d="M798.9,29.2c-0.1,0.1-0.2,0.1-0.3,0.2c-0.2,0.1-0.4,0.2-0.6,0.3c-0.2,0-0.5,0.1-0.8,0.1
		c-0.6,0-1-0.2-1.3-0.6c-0.3-0.4-0.5-1-0.5-1.6c0-0.7,0.1-1.3,0.4-1.8c0.2-0.5,0.6-0.9,1.1-1.2c0.5-0.3,1-0.5,1.6-0.6
		c0.1,0,0.3,0,0.4-0.1c0.5-0.1,1-0.2,1.6-0.2c0,0,0-0.1,0-0.2c0-0.1,0-0.1,0-0.2c0-0.4-0.1-0.6-0.4-0.8c-0.3-0.1-0.6-0.2-1.2-0.2
		h-0.1c-0.3,0-0.7,0.1-1.1,0.2c-0.4,0.2-0.7,0.3-0.9,0.4h-0.2l0.3-2.1c0.2-0.1,0.6-0.2,1.2-0.3c0.2-0.1,0.5-0.1,0.7-0.1
		c0.3,0,0.5,0,0.8,0c1,0,1.8,0.2,2.3,0.5c0.5,0.4,0.7,0.9,0.7,1.7c0,0.1,0,0.2,0,0.4c0,0.2,0,0.3-0.1,0.5l-1,6.1h-2.1l0.2-1
		c-0.1,0.1-0.3,0.3-0.5,0.4L798.9,29.2L798.9,29.2z M798.9,25.5c-0.2,0-0.4,0.1-0.6,0.2c-0.2,0.1-0.4,0.3-0.5,0.5
		c-0.1,0.2-0.2,0.5-0.2,0.9c0,0.3,0.1,0.5,0.3,0.6c0.2,0.1,0.4,0.2,0.7,0.2c0.1,0,0.2,0,0.4-0.1c0.1,0,0.2-0.1,0.3-0.1
		c0.2-0.1,0.5-0.3,0.7-0.5l0.3-1.9c-0.4,0-0.7,0.1-1.1,0.2C799.1,25.4,799,25.4,798.9,25.5L798.9,25.5z"/>
	<path fill="#1E306D" d="M807.9,23c-0.5-0.4-1.5-0.3-1.7,0.4l-1,6H803l1.5-8.9h2.1l0,0.7c0.4-0.4,0.9-0.7,2-0.7
		C808.7,20.5,807.9,21.9,807.9,23L807.9,23z"/>
	<path fill="#1E306D" d="M812,23.7c-0.1,0-0.2,0.1-0.3,0.2c-0.3,0.2-0.5,0.5-0.7,0.8c-0.2,0.3-0.3,0.7-0.4,1.2
		c-0.1,0.5-0.2,1-0.2,1.4c0,0.5,0.1,0.9,0.3,1.2c0.2,0.3,0.5,0.4,0.8,0.4c0.1,0,0.3,0,0.4-0.1c0.1,0,0.1,0,0.2-0.1
		c0.2-0.1,0.4-0.2,0.6-0.4l0.8-4.4c-0.1-0.1-0.3-0.1-0.5-0.2c-0.2-0.1-0.3-0.1-0.5-0.1C812.4,23.6,812.2,23.6,812,23.7L812,23.7z
		 M812,30.3c-0.2,0.1-0.3,0.3-0.5,0.4c-0.2,0.1-0.4,0.2-0.5,0.2c-0.2,0-0.4,0.1-0.6,0.1c-0.7,0-1.2-0.3-1.5-0.8
		c-0.4-0.6-0.6-1.4-0.6-2.4c0-0.9,0.1-1.7,0.3-2.4c0.2-0.7,0.5-1.4,0.8-2c0.3-0.6,0.8-1,1.2-1.3c0.5-0.3,0.9-0.5,1.4-0.5h0.1
		c0.4,0,0.7,0,0.9,0.1c0.3,0.1,0.5,0.3,0.8,0.5l0.5-3.1h2.1l-1.9,11.7h-2.1l0.2-0.9C812.4,30,812.2,30.1,812,30.3L812,30.3z"/>
	<path fill="#FFFFFF" d="M771.3,20.4l-0.4,2l-1.9,0c0,0-1,0.3-1,0.7c0,0.4,0.7,0.9,1.8,1.4c1.1,0.5,1.1,1.7,1,2.6
		c-0.1,0.9-0.3,2.7-3.4,2.8c-1.8,0.1-2.8-0.3-2.8-0.3l0.4-2c0,0,2.3,0.6,2.8,0.3c0.5-0.4,1.1-1,0.2-1.4c-1-0.4-2.6-1.1-2.6-2.7
		c0-1.6,0.7-2.6,1.7-3C768.2,20.1,770,20.2,771.3,20.4L771.3,20.4z"/>
	<polygon fill="#FFFFFF" points="755.9,30.9 753.6,30.9 754.9,23.2 752.1,30.9 750.6,30.9 750.2,22.8 748.8,30.9 746.7,30.9
		748.7,19.1 751.3,19.1 752.2,25.9 755.2,19.1 757.9,19.1 	"/>
	<path fill="#FFFFFF" d="M773.3,30.3c-0.7,0-1.3-0.2-1.6-0.5c-0.3-0.3-0.5-0.8-0.5-1.5c0-0.2,0-0.3,0-0.5c0-0.2,0.1-0.4,0.1-0.6
		l1.4-7.6h2.1l-0.3,1.5h2l-0.3,1.9h-2l-0.5,3.2c0,0.2-0.1,0.4-0.1,0.7c0,0.2-0.1,0.4-0.1,0.6c0,0.3,0.1,0.5,0.2,0.7
		c0.1,0.1,0.3,0.2,0.6,0.2c0.1,0,0.2,0,0.4-0.1c0.2-0.1,0.3-0.1,0.4-0.2h0.2L775,30c-0.2,0.1-0.5,0.1-0.8,0.2
		C774,30.3,773.7,30.3,773.3,30.3L773.3,30.3z"/>
	<path fill="#FFFFFF" d="M788.5,23c-0.5-0.4-1.5-0.3-1.7,0.4l-1,6h-2.1l1.5-8.9h2.1l0,0.7c0.4-0.4,0.9-0.7,2-0.7
		C789.3,20.5,788.6,21.9,788.5,23L788.5,23z"/>
	<path fill="#FFFFFF" d="M792.5,31.2c-1.2,0-2.1-0.4-2.7-1.2c-0.7-0.8-1-1.9-1-3.4c0-1.2,0.1-2.2,0.4-3.2c0.3-1,0.7-1.8,1.2-2.5
		c0.5-0.7,1.1-1.2,1.8-1.6c0.7-0.4,1.4-0.6,2.1-0.6c0.6,0,1.2,0.1,1.7,0.3c0.3,0.1,0.7,0.3,0.7,0.3l-0.5,2.8
		c-0.2-0.3-0.5-0.6-0.7-0.7c-0.4-0.2-0.8-0.4-1.3-0.4c-0.9,0-1.6,0.5-2.2,1.4c-0.6,1-0.9,2.2-0.9,3.6c0,1,0.2,1.6,0.5,2.1
		c0.3,0.4,0.8,0.6,1.4,0.6c0.5,0,1-0.1,1.5-0.4c0.2-0.1,0.4-0.3,0.7-0.5l-0.5,2.7c0,0-0.3,0.1-0.4,0.2c-0.3,0.1-0.6,0.2-0.8,0.3
		C793.3,31.1,793,31.2,792.5,31.2L792.5,31.2z"/>
	<path fill="#FFFFFF" d="M761.1,29.2c-0.1,0.1-0.2,0.1-0.2,0.2c-0.2,0.1-0.4,0.2-0.6,0.3c-0.2,0-0.5,0.1-0.8,0.1
		c-0.5,0-1-0.2-1.3-0.6c-0.4-0.4-0.5-1-0.5-1.6c0-0.7,0.1-1.3,0.4-1.8c0.2-0.5,0.6-0.9,1.1-1.2c0.5-0.3,1-0.5,1.6-0.6l0.4-0.1
		c0.5-0.1,1-0.2,1.6-0.2c0,0,0-0.1,0-0.2c0-0.1,0-0.1,0-0.2c0-0.4-0.1-0.6-0.4-0.8c-0.3-0.1-0.6-0.2-1.2-0.2h-0.1
		c-0.3,0-0.7,0.1-1.1,0.2c-0.4,0.2-0.7,0.3-0.9,0.4h-0.2l0.3-2.1c0.2-0.1,0.6-0.2,1.1-0.3c0.2-0.1,0.5-0.1,0.7-0.1
		c0.3,0,0.5,0,0.8,0c1,0,1.8,0.2,2.3,0.5c0.5,0.4,0.7,0.9,0.7,1.7c0,0.1,0,0.2,0,0.4c0,0.2,0,0.3-0.1,0.5l-1,6.1h-2.1l0.2-1
		c-0.1,0.1-0.3,0.3-0.5,0.4C761.3,29,761.2,29.1,761.1,29.2L761.1,29.2z M761.1,25.5c-0.2,0-0.4,0.1-0.6,0.2
		c-0.2,0.1-0.4,0.3-0.5,0.5c-0.1,0.2-0.2,0.5-0.2,0.9c0,0.3,0.1,0.5,0.2,0.6c0.2,0.1,0.4,0.2,0.7,0.2c0.1,0,0.2,0,0.3-0.1
		c0.1,0,0.2-0.1,0.3-0.1c0.2-0.1,0.5-0.3,0.7-0.5l0.3-1.9c-0.4,0-0.7,0.1-1.1,0.2C761.3,25.4,761.2,25.4,761.1,25.5L761.1,25.5z"/>
	<path fill="#FFFFFF" d="M779.5,22.1c-0.3,0-0.5,0.2-0.8,0.4c-0.3,0.3-0.5,0.8-0.7,1.3h1.4h1.4c0-0.1,0-0.2,0-0.3c0-0.1,0-0.2,0-0.2
		c0-0.4-0.1-0.7-0.3-1c-0.2-0.2-0.5-0.3-0.8-0.3C779.7,22,779.6,22.1,779.5,22.1L779.5,22.1z M779.5,27.7h0.3c0.5,0,0.9-0.1,1.3-0.3
		c0.4-0.2,0.8-0.5,1.1-0.7h0.2L782,29c-0.4,0.2-0.8,0.4-1.3,0.5c-0.4,0.1-0.8,0.2-1.2,0.2h-0.2c-1.1,0-2-0.3-2.6-1
		c-0.6-0.7-0.9-1.6-0.9-2.8c0-0.8,0.1-1.6,0.3-2.2c0.2-0.7,0.5-1.3,0.9-1.8c0.4-0.5,0.8-0.9,1.4-1.2c0.4-0.2,0.8-0.3,1.2-0.4
		c0.2,0,0.4,0,0.6,0c1,0,1.7,0.3,2.2,0.8c0.5,0.5,0.7,1.3,0.7,2.4c0,0.4,0,0.7-0.1,1.1c-0.1,0.3-0.1,0.7-0.2,1h-3.3h-1.6v0.1v0.1
		c0,0.6,0.2,1.1,0.5,1.5C778.6,27.5,778.9,27.7,779.5,27.7L779.5,27.7z"/>
	<path fill="#FFFFFF" d="M799.3,29.2c-0.1,0.1-0.2,0.1-0.3,0.2c-0.2,0.1-0.4,0.2-0.6,0.3c-0.2,0-0.5,0.1-0.8,0.1
		c-0.6,0-1-0.2-1.4-0.6c-0.4-0.4-0.5-1-0.5-1.6c0-0.7,0.1-1.3,0.4-1.8c0.2-0.5,0.6-0.9,1.1-1.2c0.5-0.3,1-0.5,1.6-0.6
		c0.1,0,0.3,0,0.4-0.1c0.5-0.1,1-0.2,1.6-0.2c0,0,0-0.1,0-0.2c0-0.1,0-0.1,0-0.2c0-0.4-0.1-0.6-0.4-0.8c-0.3-0.1-0.6-0.2-1.2-0.2
		h-0.1c-0.3,0-0.7,0.1-1,0.2c-0.4,0.2-0.7,0.3-0.9,0.4h-0.2l0.3-2.1c0.2-0.1,0.6-0.2,1.2-0.3c0.2-0.1,0.5-0.1,0.7-0.1
		c0.3,0,0.5,0,0.8,0c1,0,1.8,0.2,2.3,0.5c0.5,0.4,0.7,0.9,0.7,1.7c0,0.1,0,0.2,0,0.4c0,0.2,0,0.3-0.1,0.5l-1,6.1h-2.1l0.2-1
		c-0.1,0.1-0.3,0.3-0.5,0.4L799.3,29.2L799.3,29.2z M799.3,25.5c-0.2,0-0.4,0.1-0.6,0.2c-0.2,0.1-0.4,0.3-0.5,0.5
		c-0.1,0.2-0.2,0.5-0.2,0.9c0,0.3,0.1,0.5,0.3,0.6c0.2,0.1,0.4,0.2,0.7,0.2c0.1,0,0.2,0,0.3-0.1c0.1,0,0.2-0.1,0.3-0.1
		c0.2-0.1,0.5-0.3,0.7-0.5l0.3-1.9c-0.4,0-0.7,0.1-1.1,0.2C799.5,25.4,799.4,25.4,799.3,25.5L799.3,25.5z"/>
	<path fill="#FFFFFF" d="M808.3,23c-0.5-0.4-1.5-0.3-1.7,0.4l-1,6h-2.1l1.5-8.9h2.1l0,0.7c0.4-0.4,0.9-0.7,2-0.7
		C809.1,20.5,808.3,21.9,808.3,23L808.3,23z"/>
	<path fill="#FFFFFF" d="M812.5,23.7c-0.1,0-0.2,0.1-0.3,0.2c-0.3,0.2-0.5,0.5-0.7,0.8c-0.2,0.3-0.3,0.7-0.4,1.2
		c-0.1,0.5-0.2,1-0.2,1.4c0,0.5,0.1,0.9,0.3,1.2c0.2,0.3,0.5,0.4,0.8,0.4c0.1,0,0.3,0,0.4-0.1c0.1,0,0.1,0,0.2-0.1
		c0.2-0.1,0.4-0.2,0.6-0.4l0.8-4.4c-0.1-0.1-0.3-0.1-0.5-0.2c-0.2-0.1-0.3-0.1-0.5-0.1C812.8,23.6,812.7,23.6,812.5,23.7L812.5,23.7
		z M812.5,30.3c-0.2,0.1-0.3,0.3-0.5,0.4c-0.2,0.1-0.4,0.2-0.5,0.2c-0.2,0-0.4,0.1-0.6,0.1c-0.7,0-1.2-0.3-1.5-0.8
		c-0.4-0.6-0.6-1.4-0.6-2.4c0-0.9,0.1-1.7,0.3-2.4c0.2-0.7,0.5-1.4,0.8-2c0.4-0.6,0.8-1,1.2-1.3c0.5-0.3,0.9-0.5,1.4-0.5h0.1
		c0.4,0,0.7,0,0.9,0.1c0.3,0.1,0.5,0.3,0.8,0.5l0.5-3.1h2.1L815,30.7h-2.1l0.2-0.9C812.8,30,812.6,30.1,812.5,30.3L812.5,30.3z"/>
</g>
<g>
	<path fill="#7F2371" d="M908.4-0.7l7.5-1.3v28.7h-7.5V-0.7z M919.3-0.7v27.4h7.5V-2L919.3-0.7z M897.7,26.7h7.5v-21h-7.5V26.7z
		 M848.2,8.7c-0.9-0.1-3.1-0.2-3.1-2.2c0-2.4,3.2-2.4,4.3-2.4c2.1,0,4.8,0.6,6.7,1.2c0,0,1.1,0.4,2,0.8l0.1,0V6v-6.4l-0.1,0
		c-2.3-0.8-4.9-1.6-9.8-1.6c-8.4,0-11.4,4.9-11.4,9.1c0,2.4,1,8.1,10.7,8.8c0.8,0.1,3,0.2,3,2.2c0,1.7-1.8,2.7-4.8,2.7
		c-3.3,0-6.5-0.8-8.4-1.6v6.7c2.9,0.8,6.2,1.1,10,1.1c8.3,0,12-4.7,12-9.3C859.3,12.5,855.2,9.1,848.2,8.7z M893.5,5.4
		c-6.9,0.2-10.4,3.3-10.4,9.5v11.8h7.6v-9.6c0-3.7,0.5-5.3,4.9-5.4V5.5C894.8,5.3,893.5,5.4,893.5,5.4z M873.2,5.7
		c-0.2,0.4-1.4,3.8-4.3,7.3V-2l-7.7,1.5v27.2h7.7v-8.4c2.2,3.4,3.3,8.4,3.3,8.4h9.3c-0.9-3.8-4.9-10.8-4.9-10.8
		c3.6-4.6,5.2-9.4,5.4-10.2L873.2,5.7z M901.5,3.7c2,0,3.7-1.7,3.7-3.7c0-2-1.7-3.7-3.7-3.7c-2,0-3.7,1.7-3.7,3.7
		C897.8,2,899.5,3.7,901.5,3.7z"/>
	<g>
		<path fill="#231F20" d="M852,39.3c-1.3,0-2.2-0.5-2.2-2v-2.6H849v-1.5h0.8v-1.8l1.8-0.3v2.1h1.1l0.2,1.5h-1.4V37
			c0,0.5,0.2,0.7,0.7,0.7c0.2,0,0.3,0,0.4-0.1l0.2,1.5C852.8,39.2,852.5,39.3,852,39.3z"/>
		<path fill="#231F20" d="M857.5,39.2v-3.8c0-0.4-0.2-0.7-0.6-0.7c-0.4,0-0.7,0.2-1,0.5v4H854v-8.6l1.9-0.3v3.6
			c0.5-0.5,1.1-0.9,1.8-0.9c1.1,0,1.7,0.7,1.7,1.9v4.3L857.5,39.2L857.5,39.2z"/>
		<path fill="#231F20" d="M865.8,36.6h-3.6c0.1,0.9,0.7,1.3,1.5,1.3c0.7,0,1.3-0.2,2-0.6l0.2,1.3c-0.7,0.4-1.5,0.7-2.4,0.7
			c-1.8,0-3.1-1-3.1-3.1c0-2,1.2-3.2,2.8-3.2c1.8,0,2.7,1.4,2.7,3.1C865.8,36.3,865.8,36.5,865.8,36.6z M863.1,34.2
			c-0.5,0-0.9,0.5-0.9,1.4h1.9C864,34.7,863.6,34.2,863.1,34.2z"/>
		<path fill="#231F20" d="M872.3,31.9c-0.5,0-0.7,0.2-0.7,0.7v0.6h1.1l0.2,1.5h-1.3v4.5h-1.9v-4.5h-0.8v-1.5h0.8v-0.8
			c0-1.5,0.9-2,2.3-2c0.3,0,0.5,0,0.8,0.1l0.2,1.4C872.8,31.9,872.6,31.9,872.3,31.9z"/>
		<path fill="#231F20" d="M877.2,39.2l-0.1-0.8c-0.6,0.5-1.1,0.9-1.9,0.9c-1.1,0-1.7-0.7-1.7-1.9v-4.3h1.9v3.8
			c0,0.4,0.2,0.7,0.6,0.7c0.4,0,0.7-0.2,1-0.5v-4h1.9v6L877.2,39.2L877.2,39.2z"/>
		<path fill="#231F20" d="M882.7,39.3c-1.3,0-2.2-0.5-2.2-2v-2.6h-0.8v-1.5h0.8v-1.8l1.8-0.3v2.1h1.1l0.2,1.5h-1.4V37
			c0,0.5,0.2,0.7,0.7,0.7c0.2,0,0.3,0,0.4-0.1l0.2,1.5C883.5,39.2,883.2,39.3,882.7,39.3z"/>
		<path fill="#231F20" d="M888.3,39.2l-0.1-0.8c-0.6,0.5-1.1,0.9-1.9,0.9c-1.1,0-1.7-0.7-1.7-1.9v-4.3h1.9v3.8
			c0,0.4,0.2,0.7,0.6,0.7c0.4,0,0.7-0.2,1-0.5v-4h1.9v6L888.3,39.2L888.3,39.2z"/>
		<path fill="#231F20" d="M893.1,35.8v3.3h-1.9v-6h1.6l0.2,1.2c0.4-0.7,0.9-1.3,1.8-1.3l0.3,1.9C894.2,35,893.5,35.3,893.1,35.8z"/>
		<path fill="#231F20" d="M900.9,36.6h-3.6c0.1,0.9,0.7,1.3,1.5,1.3c0.7,0,1.3-0.2,2-0.6l0.2,1.3c-0.7,0.4-1.5,0.7-2.4,0.7
			c-1.8,0-3.1-1-3.1-3.1c0-2,1.2-3.2,2.8-3.2c1.8,0,2.7,1.4,2.7,3.1C901,36.3,901,36.5,900.9,36.6z M898.3,34.2
			c-0.5,0-0.9,0.5-0.9,1.4h1.9C899.2,34.7,898.8,34.2,898.3,34.2z"/>
		<path fill="#231F20" d="M907.1,39.3c-1.7,0-2.9-1.2-2.9-3.1c0-1.9,1.2-3.2,2.9-3.2c1.7,0,2.9,1.2,2.9,3.1
			C910.1,38.1,908.8,39.3,907.1,39.3z M907.1,34.6c-0.7,0-1.1,0.6-1.1,1.6c0,1,0.4,1.6,1.1,1.6c0.7,0,1.1-0.7,1.1-1.6
			C908.3,35.2,907.9,34.6,907.1,34.6z"/>
		<path fill="#231F20" d="M914,31.9c-0.5,0-0.7,0.2-0.7,0.7v0.6h1.1l0.2,1.5h-1.3v4.5h-1.9v-4.5h-0.8v-1.5h0.8v-0.8
			c0-1.5,0.9-2,2.3-2c0.3,0,0.5,0,0.8,0.1l0.2,1.4C914.5,31.9,914.2,31.9,914,31.9z"/>
	</g>
	<g>
		<path fill="#231F20" d="M850.5,51.5v-3.8c0-0.4-0.2-0.7-0.6-0.7c-0.3,0-0.7,0.2-1,0.5v4H847v-3.8c0-0.4-0.2-0.7-0.6-0.7
			c-0.3,0-0.7,0.2-1,0.5v4h-1.9v-6h1.6l0.1,0.8c0.5-0.6,1.1-0.9,1.9-0.9c0.8,0,1.3,0.4,1.5,0.9c0.5-0.5,1.1-0.9,1.9-0.9
			c1.1,0,1.7,0.7,1.7,1.9v4.3H850.5z"/>
		<path fill="#231F20" d="M856.2,51.6c-1.7,0-2.9-1.2-2.9-3.1c0-1.9,1.2-3.2,2.9-3.2c1.7,0,2.9,1.2,2.9,3.1
			C859.1,50.4,857.8,51.6,856.2,51.6z M856.2,46.8c-0.7,0-1.1,0.6-1.1,1.6c0,1,0.4,1.6,1.1,1.6c0.7,0,1.1-0.7,1.1-1.6
			C857.3,47.5,856.9,46.8,856.2,46.8z"/>
		<path fill="#231F20" d="M863.5,51.5v-3.8c0-0.4-0.2-0.7-0.6-0.7c-0.4,0-0.7,0.2-1,0.5v4h-1.9v-6h1.6l0.1,0.8
			c0.5-0.5,1.1-0.9,1.9-0.9c1.1,0,1.7,0.7,1.7,1.9v4.3H863.5z"/>
		<path fill="#231F20" d="M871.8,48.9h-3.6c0.1,0.9,0.7,1.3,1.5,1.3c0.7,0,1.3-0.2,2-0.6l0.2,1.3c-0.7,0.4-1.5,0.7-2.4,0.7
			c-1.8,0-3.1-1-3.1-3.1c0-2,1.2-3.2,2.8-3.2c1.8,0,2.7,1.4,2.7,3.1C871.9,48.6,871.9,48.8,871.8,48.9z M869.2,46.5
			c-0.5,0-0.9,0.5-0.9,1.4h1.9C870,47,869.7,46.5,869.2,46.5z"/>
		<path fill="#231F20" d="M876.1,51.6c-0.5,1.6-1.3,2.1-2.6,2.1c-0.4,0-0.5,0-0.7-0.1l-0.2-1.5c0.2,0.1,0.4,0.1,0.7,0.1
			c0.4,0,0.8-0.2,1-0.6l0.1-0.2l-2.2-5.9l2-0.2l1.2,3.8l1.1-3.7h1.8L876.1,51.6z"/>
		<path fill="#231F20" d="M881.6,51.5c-1,0-1.9-0.2-2.6-0.4v-8.2l1.9-0.3v3.5c0.4-0.4,0.9-0.8,1.6-0.8c1.2,0,2.2,0.9,2.2,3
			C884.6,50.5,883.4,51.5,881.6,51.5z M881.9,47c-0.4,0-0.7,0.2-1,0.6v2.4c0.2,0.1,0.4,0.1,0.7,0.1c0.7,0,1.2-0.4,1.2-1.6
			C882.8,47.4,882.4,47,881.9,47z"/>
		<path fill="#231F20" d="M888.2,51.6c-1.7,0-2.9-1.2-2.9-3.1c0-1.9,1.2-3.2,2.9-3.2c1.7,0,2.9,1.2,2.9,3.1
			C891.2,50.4,889.9,51.6,888.2,51.6z M888.3,46.8c-0.7,0-1.1,0.6-1.1,1.6c0,1,0.4,1.6,1.1,1.6c0.7,0,1.1-0.7,1.1-1.6
			C889.4,47.5,889,46.8,888.3,46.8z"/>
		<path fill="#231F20" d="M894.7,51.6c-1.7,0-2.9-1.2-2.9-3.1c0-1.9,1.2-3.2,2.9-3.2c1.7,0,2.9,1.2,2.9,3.1
			C897.6,50.4,896.4,51.6,894.7,51.6z M894.7,46.8c-0.7,0-1.1,0.6-1.1,1.6c0,1,0.4,1.6,1.1,1.6c0.7,0,1.1-0.7,1.1-1.6
			C895.8,47.5,895.4,46.8,894.7,46.8z"/>
		<path fill="#231F20" d="M902.2,51.5l-1.7-2.9v2.8h-1.9v-8.6l1.9-0.3v5.3l1.6-2.5h2l-1.9,2.7l2,3.1L902.2,51.5z"/>
		<path fill="#231F20" d="M909.8,48.9h-3.6c0.1,0.9,0.7,1.3,1.5,1.3c0.7,0,1.3-0.2,2-0.6l0.2,1.3c-0.7,0.4-1.5,0.7-2.4,0.7
			c-1.8,0-3.1-1-3.1-3.1c0-2,1.2-3.2,2.8-3.2c1.8,0,2.7,1.4,2.7,3.1C909.8,48.6,909.8,48.8,909.8,48.9z M907.1,46.5
			c-0.5,0-0.9,0.5-0.9,1.4h1.9C908,47,907.7,46.5,907.1,46.5z"/>
		<path fill="#231F20" d="M912.7,48.1v3.3h-1.9v-6h1.6l0.2,1.2c0.4-0.7,0.9-1.3,1.8-1.3l0.3,1.9C913.8,47.3,913.1,47.6,912.7,48.1z"
			/>
		<path fill="#231F20" d="M917.6,51.6c-1,0-1.9-0.3-2.5-0.6l0.2-1.4c0.7,0.4,1.6,0.7,2.3,0.7c0.5,0,0.8-0.2,0.8-0.5
			c0-0.3-0.2-0.4-1-0.7c-1.5-0.4-2.2-0.8-2.2-1.9c0-1.1,0.8-1.9,2.3-1.9c0.8,0,1.6,0.2,2.2,0.4l-0.2,1.4c-0.7-0.4-1.4-0.6-2-0.6
			c-0.4,0-0.6,0.2-0.6,0.4c0,0.2,0.2,0.4,1,0.6c1.6,0.4,2.2,0.8,2.2,2C920.1,50.9,919.2,51.6,917.6,51.6z"/>
	</g>
</g>
<g>
	<path fill="#FEDF00" d="M936.8,3.2h90v43.5h-90V3.2 M939.8,6.9c0,9.8,0,19.6,0,29.5c17.7,0,35.3,0,53,0c10.1,0,20.2,0,30.3,0
		c0-9.8,0-19.6,0-29.4c-8.6,0-17.2,0-25.9,0C978.1,6.9,958.9,6.9,939.8,6.9 M954.4,39.2c-0.8,0.2-1.5,0.9-1.6,1.7
		c-0.2,0.9-0.1,2,0.5,2.7c0.4,0.5,1,0.7,1.6,0.7c0.8,0.1,1.6,0,2.2-0.6c0.7-0.6,0.8-1.5,0.7-2.4c0-0.7-0.4-1.4-1-1.8
		C956.1,39.1,955.2,39.1,954.4,39.2 M958.6,39.3c0,1.7,0,3.3,0,5c0.5,0,1,0,1.5,0c0-0.9,0-1.8,0-2.7c0.6,0.9,1.2,1.8,1.9,2.7
		c0.5,0,1,0,1.5,0c0-1.7,0-3.3,0-5c-0.5,0-1,0-1.5,0c0,0.9,0,1.8,0,2.7c-0.6-0.9-1.2-1.8-1.9-2.7C959.6,39.3,959.1,39.2,958.6,39.3
		 M999.1,39.8c-0.4,0.5-0.4,1.3,0.2,1.8c0.6,0.5,1.3,0.5,2,0.8c0.3,0.1,0.5,0.4,0.4,0.6c-0.2,0.4-0.7,0.4-1.1,0.3
		c-0.3-0.1-0.4-0.4-0.5-0.7c-0.5,0-1,0.1-1.5,0.1c0.1,0.6,0.3,1.2,0.8,1.5c0.6,0.3,1.2,0.3,1.8,0.3c0.6,0,1.3-0.3,1.6-0.8
		c0.4-0.6,0.4-1.6-0.2-2.1c-0.6-0.5-1.4-0.5-2.1-0.8c-0.2,0-0.3-0.2-0.3-0.4c0.1-0.3,0.6-0.3,0.9-0.2c0.3,0.1,0.4,0.4,0.4,0.6
		c0.5,0,1-0.1,1.5-0.1c-0.1-0.4-0.2-0.9-0.6-1.2c-0.5-0.4-1.2-0.4-1.8-0.3C1000.1,39.2,999.5,39.4,999.1,39.8 M946.2,39.3
		c0,1.7,0,3.3,0,5c0.4,0,0.9,0,1.3,0c0-1.2,0-2.4,0-3.7c0.3,1.2,0.6,2.4,0.9,3.6c0.4,0,0.8,0,1.2,0c0.3-1.2,0.6-2.4,0.9-3.6
		c0,1.2,0,2.4,0,3.7c0.4,0,0.9,0,1.3,0c0-1.7,0-3.3,0-5c-0.7,0-1.4,0-2,0c-0.3,1-0.5,2-0.8,3c-0.2-1-0.5-2-0.8-3
		C947.6,39.3,946.9,39.3,946.2,39.3 M964.5,39.3c0,1.7,0,3.3,0,5c1.4,0,2.8,0,4.2,0c0-0.4,0-0.8,0-1.1c-0.9,0-1.8,0-2.7,0
		c0-0.3,0-0.7,0-1c0.8,0,1.6,0,2.4,0c0-0.3,0-0.7,0-1c-0.8,0-1.6,0-2.4,0c0-0.3,0-0.5,0-0.8c0.9,0,1.7,0,2.6,0c0-0.4,0-0.7,0-1.1
		C967.2,39.3,965.8,39.3,964.5,39.3 M969,39.3c0.6,0.9,1.2,1.9,1.9,2.8c0.1,0.1,0.1,0.2,0.1,0.3c0,0.6,0,1.3,0,1.9c0.5,0,1,0,1.6,0
		c0-0.7,0-1.4,0-2.1c0.6-1,1.3-1.9,1.9-2.9c-0.6,0-1.1,0-1.7,0c-0.3,0.6-0.7,1.1-1,1.7c-0.3-0.6-0.7-1.1-1-1.7
		C970.1,39.3,969.6,39.3,969,39.3 M976.9,39.3c0,0.4,0,0.8,0,1.2c0.5,0,1.1,0,1.6,0c0,1.3,0,2.5,0,3.8c0.5,0,1,0,1.6,0
		c0-1.3,0-2.5,0-3.8c0.5,0,1,0,1.6,0c0-0.4,0-0.8,0-1.2C980,39.2,978.4,39.3,976.9,39.3 M982.3,39.3c0,1.7,0,3.3,0,5
		c0.5,0,1,0,1.6,0c0-0.7,0-1.4,0-2c0.3,0,0.5,0,0.7,0.3c0.3,0.6,0.6,1.2,1,1.8c0.5,0,0.9,0,1.4,0c0.1,0,0.2,0,0.3-0.1
		c-0.5-0.7-0.7-1.8-1.6-2.2c0.2-0.1,0.5-0.1,0.7-0.3c0.7-0.5,0.7-1.7-0.1-2.2c-0.4-0.2-0.8-0.3-1.2-0.3
		C984.1,39.3,983.2,39.3,982.3,39.3 M989.1,39.3c-0.6,1.6-1.2,3.2-1.8,4.9c0,0,0,0.1,0,0.2c0.5,0,1,0,1.5,0c0.1-0.3,0.2-0.5,0.2-0.8
		c0.6,0,1.2,0,1.7,0c0.1,0.3,0.2,0.5,0.2,0.8c0.5,0,1.1,0,1.6,0c-0.6-1.7-1.3-3.3-1.9-5C990.2,39.3,989.6,39.2,989.1,39.3
		 M993.1,44.3c0.5,0,1,0,1.5,0c0-0.9,0-1.8,0-2.7c0.6,0.9,1.2,1.8,1.8,2.7c0.5,0,1,0,1.5,0c0-1.7,0-3.3,0-5c-0.5,0-1,0-1.5,0
		c0,0.9,0,1.8,0,2.7c-0.6-0.9-1.2-1.8-1.8-2.7c-0.5,0-1,0-1.5,0C993.1,40.9,993.1,42.6,993.1,44.3 M1004,39.3c0,1.7,0,3.3,0,5
		c0.5,0,1,0,1.6,0c0-0.7,0-1.4,0-2c0.6,0,1.3,0,1.9,0c0-0.3,0-0.7,0-1c-0.6,0-1.3,0-1.9,0c0-0.3,0-0.6,0-0.9c0.8,0,1.5,0,2.3,0
		c0-0.4,0-0.7,0-1.1C1006.5,39.2,1005.2,39.3,1004,39.3 M1008.6,39.3c0,1.7,0,3.3,0,5c1.4,0,2.8,0,4.2,0c0-0.4,0-0.8,0-1.1
		c-0.9,0-1.8,0-2.7,0c0-0.3,0-0.7,0-1c0.8,0,1.6,0,2.4,0c0-0.3,0-0.7,0-1c-0.8,0-1.6,0-2.4,0c0-0.3,0-0.5,0-0.8c0.9,0,1.7,0,2.6,0
		c0-0.4,0-0.7,0-1.1C1011.4,39.3,1010,39.2,1008.6,39.3 M1013.7,39.3c0,1.7,0,3.3,0,5c0.5,0,1,0,1.6,0c0-0.7,0-1.4,0-2.1
		c0.2,0,0.5,0,0.6,0.3c0.4,0.6,0.6,1.2,1,1.8c0.6,0,1.2,0,1.7,0c-0.3-0.5-0.5-1-0.8-1.5c-0.2-0.3-0.4-0.6-0.8-0.8
		c0.2-0.1,0.5-0.2,0.7-0.3c0.6-0.5,0.6-1.7,0-2.2c-0.3-0.2-0.8-0.3-1.2-0.3C1015.6,39.3,1014.6,39.3,1013.7,39.3 M964,8.7
		c0.8-0.7,1.9-0.8,3-0.8c0.9,0,2,0.1,2.7,0.7c0.5,0.4,0.8,1.1,0.8,1.7c-0.9,0-1.9,0-2.8,0c0-0.2-0.1-0.5-0.4-0.6
		c-0.4-0.1-0.8-0.1-1.1,0.2c-0.2,0.3,0,0.6,0.3,0.7c1,0.3,2,0.5,3,0.9c0.5,0.3,1,0.8,1.1,1.4c0.2,0.9,0,1.9-0.7,2.5
		c-0.7,0.6-1.6,0.8-2.5,0.9c-1.1,0.1-2.3,0-3.3-0.6c-0.7-0.4-1.1-1.3-1.1-2.1c1,0,2,0,3,0c0,0.3,0.1,0.6,0.3,0.7
		c0.3,0.2,0.9,0.2,1.1-0.1c0.2-0.2,0.2-0.6-0.1-0.8c-0.3-0.2-0.7-0.2-1-0.3c-0.6-0.2-1.2-0.4-1.8-0.6c-0.5-0.2-1.1-0.6-1.3-1.1
		C963,10.5,963.2,9.3,964,8.7 M1010.8,7.9c0.3,0,0.6,0,1,0c0,5.9,0,11.9,0,17.8c-0.3,0-0.6,0-1,0
		C1010.8,19.8,1010.8,13.9,1010.8,7.9 M941,8c0.9,0,1.9,0,2.8,0c0.2,1.2,0.3,2.5,0.5,3.7c0.1,0.5,0.1,0.9,0.2,1.4
		c0.3-1.7,0.5-3.4,0.8-5.1c1.1,0,2.2,0,3.3,0c0.2,1.1,0.3,2.3,0.5,3.4c0.1,0.5,0.1,1.1,0.3,1.6c0.3-1.7,0.5-3.4,0.7-5.1
		c0.9,0,1.9,0,2.8,0c-0.6,2.7-1.2,5.4-1.7,8.1c-1.2,0-2.3,0-3.5,0c-0.3-1.7-0.5-3.5-0.8-5.2c-0.3,1.7-0.5,3.5-0.8,5.2
		c-1.2,0-2.3,0-3.5,0C942.2,13.4,941.5,10.7,941,8 M954.8,8c2,0,4.1,0,6.1,0c0,0.7,0,1.4,0,2.1c-1,0-2.1,0-3.1,0c0,0.3,0,0.6,0,0.9
		c1,0,1.9,0,2.9,0c0,0.7,0,1.4,0,2.1c-1,0-1.9,0-2.9,0c0,0.3,0,0.6,0,0.9c1.1,0,2.1,0,3.2,0c0,0.7,0,1.4,0,2.1c-2.1,0-4.2,0-6.2,0
		C954.8,13.4,954.8,10.7,954.8,8 M972.5,10.2c0-0.7,0-1.4,0-2.1c2.4,0,4.8,0,7.2,0c0,0.7,0,1.4,0,2.1c-0.7,0-1.3,0-2,0
		c0,2,0,3.9,0,5.9c-1.1,0-2.1,0-3.2,0c0-2,0-3.9,0-5.9C973.8,10.2,973.1,10.2,972.5,10.2 M981.8,8c2,0,4.1,0,6.1,0
		c0,0.7,0,1.4,0,2.1c-1,0-2.1,0-3.1,0c0,0.3,0,0.6,0,0.9c0.9,0,1.9,0,2.8,0c0,0.7,0,1.4,0,2.1c-0.9,0-1.9,0-2.8,0c0,0.3,0,0.6,0,0.9
		c1.1,0,2.1,0,3.2,0c0,0.7,0,1.4,0,2.1c-2.1,0-4.1,0-6.2,0C981.8,13.4,981.8,10.7,981.8,8 M990.3,8c1.5,0,2.9,0,4.4,0
		c0.7,0,1.4,0,2.1,0.3c0.5,0.2,0.9,0.7,1,1.2c0.1,0.6,0.1,1.3-0.3,1.8c-0.3,0.4-0.8,0.5-1.2,0.7c0.4,0.1,0.8,0.1,1,0.4
		c0.4,0.3,0.4,0.9,0.5,1.3c0.1,0.8,0.2,1.6,0.4,2.3c-1,0-2.1,0-3.1,0c-0.2-0.7-0.3-1.5-0.4-2.2c0-0.2-0.1-0.4-0.2-0.5
		c-0.3-0.2-0.6-0.1-1-0.2c0,1,0,1.9,0,2.9c-1,0-2.1,0-3.1,0C990.3,13.4,990.3,10.7,990.3,8 M993.5,9.9c0,0.5,0,1,0,1.5
		c0.4,0,0.9,0,1.2-0.3c0.2-0.3,0.3-0.9-0.1-1.1C994.2,9.8,993.8,9.9,993.5,9.9 M1000.3,8c1.3,0,2.5,0,3.8,0c0.5,1.5,1,3,1.6,4.5
		c0,0.1,0.1,0.3,0.2,0.4c0.1-1.6,0-3.2,0-4.9c0.9,0,1.7,0,2.6,0c0,2.7,0,5.4,0,8.1c-1.3,0-2.6,0-3.8,0c-0.4-1.3-0.9-2.5-1.3-3.8
		c-0.1-0.4-0.2-0.7-0.4-1.1c0,1.6,0,3.3,0,4.9c-0.9,0-1.7,0-2.6,0C1000.3,13.4,1000.3,10.7,1000.3,8 M1020.6,8.1
		c0.5-0.2,1.2,0.1,1.4,0.7c0.2,0.6-0.3,1.4-1,1.3c-0.7,0-1.2-0.7-1-1.3C1020,8.4,1020.3,8.2,1020.6,8.1 M1020.6,8.1
		c-0.4,0.1-0.7,0.6-0.6,1c0.1,0.5,0.6,0.9,1.1,0.8c0.5-0.1,0.8-0.7,0.7-1.2C1021.7,8.3,1021.1,8,1020.6,8.1 M1018,25.7
		c0-5.9,0-11.7,0-17.6c0.3,0,0.6,0,1,0c0,5.9,0,11.7,0,17.6C1018.6,25.7,1018.3,25.7,1018,25.7 M1020.5,8.4c0.3,0,0.6-0.1,0.9,0.1
		c0.2,0.3-0.1,0.5-0.3,0.6c0.1,0.2,0.2,0.3,0.3,0.5c-0.4,0-0.3-0.7-0.8-0.6c0,0.2,0.1,0.5-0.1,0.6C1020.5,9.3,1020.5,8.8,1020.5,8.4
		 M1020.7,8.5c0,0.1,0,0.3,0,0.4c0.2,0,0.5,0.1,0.6-0.2C1021.4,8.4,1020.9,8.6,1020.7,8.5 M992.8,17.6c1.2-0.2,2.5-0.1,3.5,0.6
		c0.9,0.5,1.4,1.5,1.6,2.4c0.1,0.8,0.1,1.6,0,2.4c-0.2,0.9-0.7,1.7-1.4,2.2c-0.8,0.6-1.9,0.8-3,0.8c-1.1,0-2.2-0.4-2.9-1.3
		c-0.8-0.9-1-2.1-1-3.2c0-1,0.3-2,1-2.8C991.2,18.1,992,17.8,992.8,17.6 M993.6,19.6c-0.4,0.1-0.5,0.5-0.6,0.8
		c-0.1,0.8-0.1,1.7,0,2.5c0.1,0.3,0.1,0.7,0.4,0.9c0.3,0.2,0.8,0.1,0.9-0.2c0.2-0.3,0.2-0.7,0.3-1.1c0-0.6,0-1.2,0-1.8
		c0-0.3-0.1-0.7-0.3-0.9C994.1,19.6,993.8,19.6,993.6,19.6 M963,17.7c1.1,0,2.1,0,3.2,0c0,1.8,0,3.5,0,5.3c0,0.3,0.1,0.6,0.3,0.8
		c0.3,0.1,0.6,0.1,0.8-0.2c0.1-0.2,0.1-0.5,0.2-0.7c0-1.7,0-3.5,0-5.2c1.1,0,2.1,0,3.2,0c0,1.6,0,3.3,0,4.9c0,0.5,0,1-0.1,1.4
		c-0.2,0.6-0.7,1.2-1.3,1.5c-0.9,0.5-2,0.5-3.1,0.5c-0.8-0.1-1.7-0.3-2.4-0.9c-0.5-0.5-0.8-1.3-0.8-2C963,21.3,962.9,19.5,963,17.7
		 M973.2,17.8c1.3,0,2.5,0,3.8,0c0.6,1.6,1.1,3.3,1.7,4.9c0.1-1.6,0-3.3,0-4.9c0.9,0,1.7,0,2.6,0c0,2.7,0,5.4,0,8.1
		c-1.3,0-2.5,0-3.8,0c-0.4-1.2-0.9-2.5-1.3-3.7c-0.1-0.4-0.3-0.8-0.5-1.2c-0.1,1.6,0,3.3,0,4.9c-0.9,0-1.7,0-2.6,0
		C973.2,23.1,973.2,20.4,973.2,17.8 M984.1,17.8c1.1,0,2.1,0,3.2,0c0,2.7,0,5.4,0,8.1c-1.1,0-2.1,0-3.2,0
		C984.1,23.1,984.1,20.4,984.1,17.8 M1000.3,17.8c1.3,0,2.5,0,3.8,0c0.5,1.3,0.9,2.7,1.4,4c0.1,0.3,0.2,0.6,0.4,0.8
		c0.1-1.6,0-3.2,0-4.8c0.9,0,1.7,0,2.6,0c0,2.7,0,5.4,0,8.1c-1.3,0-2.6,0-3.8,0c-0.6-1.6-1.1-3.3-1.7-4.9c-0.1,0.3-0.1,0.6-0.1,0.9
		c0,1.3,0,2.7,0,4c-0.9,0-1.7,0-2.6,0C1000.3,23.1,1000.3,20.4,1000.3,17.8 M983.8,40.3c0.4,0,0.8-0.1,1.1,0.1
		c0.4,0.1,0.3,0.7,0,0.8c-0.4,0.1-0.8,0.1-1.1,0.1C983.8,40.9,983.8,40.6,983.8,40.3 M1015.2,40.3c0.4,0,0.8,0,1.1,0.1
		c0.3,0.1,0.4,0.7,0.1,0.8c-0.4,0.2-0.8,0.1-1.2,0.1C1015.2,40.9,1015.2,40.6,1015.2,40.3 M954.8,40.4c0.4-0.2,0.9-0.1,1.2,0.3
		c0.2,0.3,0.3,0.7,0.3,1.1c0,0.4,0,0.8-0.3,1.1c-0.4,0.5-1.3,0.4-1.6-0.2c-0.2-0.5-0.2-1-0.1-1.5C954.3,40.9,954.5,40.5,954.8,40.4
		 M989.9,40.6c0.2,0.6,0.4,1.2,0.6,1.7c-0.4,0-0.7,0-1.1,0C989.5,41.8,989.7,41.2,989.9,40.6L989.9,40.6z"/>
	<path fill="#181818" d="M939.8,6.9c19.1,0,38.3,0,57.4,0c8.6,0,17.2,0,25.9,0c0,9.8,0,19.6,0,29.4c-10.1,0-20.2,0-30.3,0
		c-17.7,0-35.3,0-53,0C939.8,26.5,939.8,16.7,939.8,6.9 M964,8.7c-0.8,0.7-1,1.8-0.6,2.8c0.2,0.5,0.7,0.9,1.3,1.1
		c0.6,0.2,1.2,0.4,1.8,0.6c0.3,0.1,0.7,0.2,1,0.3c0.3,0.2,0.3,0.6,0.1,0.8c-0.3,0.3-0.8,0.3-1.1,0.1c-0.3-0.2-0.3-0.5-0.3-0.7
		c-1,0-2,0-3,0c0,0.8,0.4,1.6,1.1,2.1c1,0.6,2.2,0.7,3.3,0.6c0.9-0.1,1.8-0.3,2.5-0.9c0.7-0.6,0.9-1.6,0.7-2.5
		c-0.1-0.6-0.6-1.1-1.1-1.4c-0.9-0.5-2-0.6-3-0.9c-0.3-0.1-0.5-0.4-0.3-0.7c0.3-0.3,0.7-0.3,1.1-0.2c0.3,0.1,0.3,0.4,0.4,0.6
		c0.9,0,1.9,0,2.8,0c0-0.7-0.2-1.3-0.8-1.7c-0.8-0.6-1.8-0.7-2.7-0.7C965.9,7.8,964.8,8,964,8.7 M1010.8,7.9c0,5.9,0,11.9,0,17.8
		c0.3,0,0.6,0,1,0c0-5.9,0-11.9,0-17.8C1011.4,7.9,1011.1,7.9,1010.8,7.9 M941,8c0.6,2.7,1.2,5.4,1.7,8.1c1.1,0,2.3,0,3.5,0
		c0.3-1.7,0.5-3.5,0.8-5.2c0.3,1.7,0.5,3.5,0.8,5.2c1.2,0,2.3,0,3.5,0c0.6-2.7,1.2-5.4,1.7-8.1c-0.9,0-1.9,0-2.8,0
		c-0.2,1.7-0.4,3.4-0.7,5.1c-0.1-0.5-0.2-1.1-0.3-1.6c-0.2-1.1-0.3-2.3-0.5-3.4c-1.1,0-2.2,0-3.3,0c-0.2,1.7-0.5,3.4-0.8,5.1
		c-0.1-0.4-0.2-0.9-0.2-1.4c-0.2-1.2-0.3-2.5-0.5-3.7C942.9,8,941.9,8,941,8 M954.8,8c0,2.7,0,5.4,0,8.1c2.1,0,4.2,0,6.2,0
		c0-0.7,0-1.4,0-2.1c-1.1,0-2.1,0-3.2,0c0-0.3,0-0.6,0-0.9c1,0,1.9,0,2.9,0c0-0.7,0-1.4,0-2.1c-1,0-1.9,0-2.9,0c0-0.3,0-0.6,0-0.9
		c1,0,2.1,0,3.1,0c0-0.7,0-1.4,0-2.1C958.9,8,956.9,8,954.8,8 M972.5,10.2c0.7,0,1.3,0,2,0c0,2,0,3.9,0,5.9c1.1,0,2.1,0,3.2,0
		c0-2,0-3.9,0-5.9c0.7,0,1.3,0,2,0c0-0.7,0-1.4,0-2.1c-2.4,0-4.8,0-7.2,0C972.5,8.7,972.5,9.5,972.5,10.2 M981.8,8
		c0,2.7,0,5.4,0,8.1c2.1,0,4.1,0,6.2,0c0-0.7,0-1.4,0-2.1c-1.1,0-2.1,0-3.2,0c0-0.3,0-0.6,0-0.9c0.9,0,1.9,0,2.8,0
		c0-0.7,0-1.4,0-2.1c-0.9,0-1.9,0-2.8,0c0-0.3,0-0.6,0-0.9c1,0,2.1,0,3.1,0c0-0.7,0-1.4,0-2.1C985.9,8,983.8,8,981.8,8 M990.3,8
		c0,2.7,0,5.4,0,8.1c1,0,2.1,0,3.1,0c0-1,0-1.9,0-2.9c0.3,0,0.7,0,1,0.2c0.2,0.1,0.2,0.3,0.2,0.5c0.1,0.7,0.2,1.5,0.4,2.2
		c1,0,2.1,0,3.1,0c-0.2-0.8-0.3-1.5-0.4-2.3c-0.1-0.5-0.1-1-0.5-1.3c-0.3-0.3-0.7-0.3-1-0.4c0.4-0.1,0.9-0.3,1.2-0.7
		c0.4-0.5,0.5-1.2,0.3-1.8c-0.1-0.5-0.5-1-1-1.2C996.1,8,995.4,8,994.7,8C993.2,8,991.8,8,990.3,8 M1000.3,8c0,2.7,0,5.4,0,8.1
		c0.9,0,1.7,0,2.6,0c0-1.6,0-3.3,0-4.9c0.2,0.3,0.3,0.7,0.4,1.1c0.4,1.3,0.9,2.5,1.3,3.8c1.3,0,2.6,0,3.8,0c0-2.7,0-5.4,0-8.1
		c-0.9,0-1.7,0-2.6,0c0,1.6,0,3.2,0,4.9c-0.1-0.1-0.1-0.3-0.2-0.4c-0.5-1.5-1-3-1.6-4.5C1002.9,8,1001.6,8,1000.3,8 M1020.6,8.1
		c-0.3,0.1-0.5,0.4-0.6,0.7c-0.2,0.6,0.3,1.4,1,1.3c0.7,0,1.2-0.7,1-1.3C1021.8,8.2,1021.1,7.8,1020.6,8.1 M1018,25.7
		c0.3,0,0.6,0,1,0c0-5.9,0-11.7,0-17.6c-0.3,0-0.6,0-1,0C1018,14,1018,19.8,1018,25.7 M992.8,17.6c-0.8,0.1-1.6,0.5-2.1,1.1
		c-0.7,0.7-1,1.8-1,2.8c-0.1,1.1,0.2,2.4,1,3.2c0.7,0.8,1.8,1.2,2.9,1.3c1,0.1,2.1-0.1,3-0.8c0.7-0.5,1.2-1.4,1.4-2.2
		c0.2-0.8,0.2-1.6,0-2.4c-0.2-1-0.7-1.9-1.6-2.4C995.3,17.5,994,17.4,992.8,17.6 M963,17.7c0,1.8,0,3.6,0,5.4c0,0.7,0.2,1.5,0.8,2
		c0.6,0.6,1.5,0.8,2.4,0.9c1,0.1,2.1,0,3.1-0.5c0.6-0.3,1.1-0.8,1.3-1.5c0.2-0.5,0.1-0.9,0.1-1.4c0-1.6,0-3.3,0-4.9
		c-1.1,0-2.1,0-3.2,0c0,1.7,0,3.5,0,5.2c0,0.2,0,0.5-0.2,0.7c-0.2,0.3-0.5,0.3-0.8,0.2c-0.3-0.2-0.3-0.5-0.3-0.8c0-1.8,0-3.5,0-5.3
		C965.1,17.7,964,17.8,963,17.7 M973.2,17.8c0,2.7,0,5.4,0,8.1c0.9,0,1.7,0,2.6,0c0-1.6,0-3.3,0-4.9c0.2,0.4,0.3,0.8,0.5,1.2
		c0.4,1.2,0.9,2.5,1.3,3.7c1.3,0,2.5,0,3.8,0c0-2.7,0-5.4,0-8.1c-0.9,0-1.7,0-2.6,0c0,1.6,0,3.3,0,4.9c-0.6-1.6-1.2-3.3-1.7-4.9
		C975.8,17.8,974.5,17.7,973.2,17.8 M984.1,17.8c0,2.7,0,5.4,0,8.1c1.1,0,2.1,0,3.2,0c0-2.7,0-5.4,0-8.1
		C986.2,17.8,985.1,17.7,984.1,17.8 M1000.3,17.8c0,2.7,0,5.4,0,8.1c0.9,0,1.7,0,2.6,0c0-1.3,0-2.7,0-4c0-0.3,0-0.6,0.1-0.9
		c0.6,1.6,1.1,3.3,1.7,4.9c1.3,0,2.6,0,3.8,0c0-2.7,0-5.4,0-8.1c-0.9,0-1.7,0-2.6,0c0,1.6,0,3.2,0,4.8c-0.2-0.2-0.2-0.5-0.4-0.8
		c-0.5-1.3-0.9-2.7-1.4-4C1002.9,17.8,1001.6,17.7,1000.3,17.8 M1020.6,8.1c0.5-0.2,1,0.1,1.2,0.6c0.1,0.5-0.2,1.1-0.7,1.2
		c-0.5,0.1-1-0.3-1.1-0.8C1020,8.7,1020.2,8.3,1020.6,8.1 M1020.5,8.4c0,0.4,0,0.8,0,1.2c0.2-0.1,0.1-0.4,0.1-0.6
		c0.4-0.1,0.4,0.6,0.8,0.6c-0.1-0.2-0.2-0.4-0.3-0.5c0.3-0.1,0.5-0.3,0.3-0.6C1021.2,8.4,1020.8,8.5,1020.5,8.4 M1020.7,8.5
		c0.2,0,0.7-0.1,0.7,0.3c-0.1,0.3-0.4,0.1-0.6,0.2C1020.7,8.8,1020.7,8.7,1020.7,8.5 M993.5,9.9c0.4,0,0.7,0,1.1,0.2
		c0.3,0.2,0.3,0.8,0.1,1.1c-0.3,0.3-0.8,0.3-1.2,0.3C993.5,10.9,993.5,10.4,993.5,9.9 M993.6,19.6c0.2,0,0.5,0,0.7,0.2
		c0.2,0.3,0.3,0.6,0.3,0.9c0.1,0.6,0.1,1.2,0,1.8c0,0.4-0.1,0.8-0.3,1.1c-0.2,0.3-0.6,0.4-0.9,0.2c-0.3-0.2-0.4-0.6-0.4-0.9
		c-0.1-0.8-0.1-1.7,0-2.5C993.1,20.1,993.2,19.7,993.6,19.6 M954.4,39.2c0.8-0.2,1.7-0.1,2.5,0.3c0.6,0.4,0.9,1.1,1,1.8
		c0.1,0.8-0.1,1.8-0.7,2.4c-0.6,0.5-1.4,0.7-2.2,0.6c-0.6,0-1.2-0.3-1.6-0.7c-0.7-0.7-0.7-1.8-0.5-2.7
		C952.9,40.1,953.6,39.4,954.4,39.2 M954.8,40.4c-0.3,0.1-0.5,0.5-0.6,0.8c-0.1,0.5-0.1,1,0.1,1.5c0.3,0.6,1.2,0.7,1.6,0.2
		c0.2-0.3,0.3-0.7,0.3-1.1c0-0.4,0-0.8-0.3-1.1C955.8,40.3,955.2,40.2,954.8,40.4 M958.6,39.3c0.5,0,1,0,1.5,0
		c0.6,0.9,1.2,1.8,1.9,2.7c0-0.9,0-1.8,0-2.7c0.5,0,1,0,1.5,0c0,1.7,0,3.3,0,5c-0.5,0-1,0-1.5,0c-0.6-0.9-1.2-1.8-1.9-2.7
		c0,0.9,0,1.8,0,2.7c-0.5,0-1,0-1.5,0C958.6,42.6,958.6,40.9,958.6,39.3 M999.1,39.8c0.4-0.5,1-0.6,1.5-0.7c0.6,0,1.3,0,1.8,0.3
		c0.4,0.3,0.6,0.7,0.6,1.2c-0.5,0-1,0.1-1.5,0.1c-0.1-0.2-0.2-0.5-0.4-0.6c-0.3-0.1-0.7-0.1-0.9,0.2c-0.1,0.2,0.1,0.4,0.3,0.4
		c0.7,0.2,1.5,0.3,2.1,0.8c0.6,0.5,0.7,1.5,0.2,2.1c-0.4,0.5-1,0.7-1.6,0.8c-0.6,0-1.3,0-1.8-0.3c-0.5-0.3-0.8-0.9-0.8-1.5
		c0.5,0,1-0.1,1.5-0.1c0.1,0.3,0.2,0.6,0.5,0.7c0.4,0.2,0.9,0.1,1.1-0.3c0.1-0.3-0.1-0.6-0.4-0.6c-0.7-0.2-1.4-0.3-2-0.8
		C998.8,41.2,998.7,40.3,999.1,39.8 M946.2,39.3c0.7,0,1.4,0,2,0c0.3,1,0.5,2,0.8,3c0.3-1,0.5-2,0.8-3c0.7,0,1.4,0,2,0
		c0,1.7,0,3.3,0,5c-0.4,0-0.9,0-1.3,0c0-1.2,0-2.4,0-3.7c-0.3,1.2-0.6,2.4-0.9,3.6c-0.4,0-0.8,0-1.2,0c-0.3-1.2-0.6-2.4-0.9-3.6
		c0,1.2,0,2.4,0,3.7c-0.4,0-0.9,0-1.3,0C946.2,42.6,946.2,40.9,946.2,39.3 M964.5,39.3c1.4,0,2.8,0,4.1,0c0,0.4,0,0.7,0,1.1
		c-0.9,0-1.7,0-2.6,0c0,0.3,0,0.5,0,0.8c0.8,0,1.6,0,2.4,0c0,0.3,0,0.7,0,1c-0.8,0-1.6,0-2.4,0c0,0.3,0,0.7,0,1c0.9,0,1.8,0,2.7,0
		c0,0.4,0,0.8,0,1.1c-1.4,0-2.8,0-4.2,0C964.5,42.6,964.5,40.9,964.5,39.3 M969,39.3c0.6,0,1.2,0,1.7,0c0.3,0.6,0.7,1.1,1,1.7
		c0.3-0.6,0.7-1.1,1-1.7c0.6,0,1.1,0,1.7,0c-0.6,1-1.3,1.9-1.9,2.9c0,0.7,0,1.4,0,2.1c-0.5,0-1,0-1.6,0c0-0.6,0-1.3,0-1.9
		c0-0.1,0-0.2-0.1-0.3C970.2,41.1,969.6,40.2,969,39.3 M976.9,39.3c1.6,0,3.1,0,4.7,0c0,0.4,0,0.8,0,1.2c-0.5,0-1,0-1.6,0
		c0,1.3,0,2.5,0,3.8c-0.5,0-1,0-1.6,0c0-1.3,0-2.5,0-3.8c-0.5,0-1.1,0-1.6,0C976.9,40.1,976.9,39.7,976.9,39.3 M982.3,39.3
		c0.9,0,1.8,0,2.8,0c0.4,0,0.9,0,1.2,0.3c0.7,0.5,0.7,1.7,0.1,2.2c-0.2,0.2-0.4,0.3-0.7,0.3c0.9,0.4,1,1.5,1.6,2.2
		c-0.1,0.1-0.2,0.1-0.3,0.1c-0.5,0-0.9,0-1.4,0c-0.3-0.6-0.6-1.2-1-1.8c-0.1-0.2-0.4-0.3-0.7-0.3c0,0.7,0,1.4,0,2c-0.5,0-1,0-1.6,0
		C982.3,42.6,982.3,40.9,982.3,39.3 M983.8,40.3c0,0.3,0,0.7,0,1c0.4,0,0.8,0,1.1-0.1c0.4-0.1,0.4-0.7,0-0.8
		C984.6,40.2,984.2,40.3,983.8,40.3 M989.1,39.3c0.6,0,1.1,0,1.7,0c0.6,1.7,1.3,3.3,1.9,5c-0.5,0-1.1,0-1.6,0
		c-0.1-0.3-0.2-0.5-0.2-0.8c-0.6,0-1.2,0-1.7,0c-0.1,0.3-0.2,0.5-0.2,0.8c-0.5,0-1,0-1.5,0c0,0,0-0.1,0-0.2
		C987.9,42.5,988.5,40.9,989.1,39.3 M989.9,40.6c-0.2,0.6-0.4,1.2-0.5,1.7c0.4,0,0.7,0,1.1,0C990.3,41.8,990.1,41.2,989.9,40.6
		 M993.1,44.3c0-1.7,0-3.3,0-5c0.5,0,1,0,1.5,0c0.6,0.9,1.2,1.8,1.8,2.7c0-0.9,0-1.8,0-2.7c0.5,0,1,0,1.5,0c0,1.7,0,3.3,0,5
		c-0.5,0-1,0-1.5,0c-0.6-0.9-1.2-1.8-1.8-2.7c0,0.9,0,1.8,0,2.7C994.1,44.3,993.6,44.3,993.1,44.3 M1004,39.3c1.3,0,2.6,0,3.8,0
		c0,0.4,0,0.7,0,1.1c-0.8,0-1.5,0-2.3,0c0,0.3,0,0.6,0,0.9c0.6,0,1.3,0,1.9,0c0,0.3,0,0.7,0,1c-0.6,0-1.3,0-1.9,0c0,0.7,0,1.4,0,2
		c-0.5,0-1,0-1.6,0C1004,42.6,1004,40.9,1004,39.3 M1008.6,39.3c1.4,0,2.8,0,4.1,0c0,0.4,0,0.7,0,1.1c-0.9,0-1.7,0-2.6,0
		c0,0.3,0,0.5,0,0.8c0.8,0,1.6,0,2.4,0c0,0.3,0,0.7,0,1c-0.8,0-1.6,0-2.4,0c0,0.3,0,0.7,0,1c0.9,0,1.8,0,2.7,0c0,0.4,0,0.8,0,1.1
		c-1.4,0-2.8,0-4.2,0C1008.6,42.6,1008.6,40.9,1008.6,39.3 M1013.7,39.3c0.9,0,1.9,0,2.8,0c0.4,0,0.9,0,1.2,0.3
		c0.7,0.5,0.7,1.6,0,2.2c-0.2,0.2-0.4,0.3-0.7,0.3c0.4,0.2,0.6,0.4,0.8,0.8c0.3,0.5,0.5,1,0.8,1.5c-0.6,0-1.2,0-1.7,0
		c-0.3-0.6-0.6-1.2-1-1.8c-0.1-0.2-0.4-0.3-0.6-0.3c0,0.7,0,1.4,0,2.1c-0.5,0-1,0-1.6,0C1013.7,42.6,1013.7,40.9,1013.7,39.3
		 M1015.2,40.3c0,0.3,0,0.7,0,1c0.4,0,0.8,0,1.2-0.1c0.3-0.2,0.3-0.7-0.1-0.8C1016,40.2,1015.6,40.3,1015.2,40.3L1015.2,40.3z"/>
</g>
<g>
	<defs>
		<rect id="SVGID_1_" x="1043.1" width="77.4" height="50"/>
	</defs>
	<clipPath id="SVGID_2_">
		<use xlink:href="#SVGID_1_"  overflow="visible"/>
	</clipPath>
	<g clip-path="url(#SVGID_2_)">
		<g>
			<defs>
				<rect id="SVGID_3_" x="1043.1" width="77.4" height="50"/>
			</defs>
			<clipPath id="SVGID_4_">
				<use xlink:href="#SVGID_3_"  overflow="visible"/>
			</clipPath>

				<linearGradient id="SVGID_5_" gradientUnits="userSpaceOnUse" x1="885.7271" y1="447.1406" x2="885.9445" y2="447.1406" gradientTransform="matrix(0 -230 230 0 -101760.5 203767.25)">
				<stop  offset="0" style="stop-color:#CD2D2F"/>
				<stop  offset="1" style="stop-color:#DC4A4B"/>
			</linearGradient>
			<rect x="1043.1" clip-path="url(#SVGID_4_)" fill="url(#SVGID_5_)" width="77.4" height="50"/>
		</g>
		<g>
			<defs>
				<rect id="SVGID_6_" x="1043.1" width="77.4" height="50"/>
			</defs>
			<clipPath id="SVGID_7_">
				<use xlink:href="#SVGID_6_"  overflow="visible"/>
			</clipPath>
			<g clip-path="url(#SVGID_7_)">
				<path fill="#FFFFFF" d="M1073.8,22.6l1.9-9.3h3.2c0.7,0,1.2,0,1.4,0.1c0.5,0.1,0.8,0.2,1.2,0.4c0.3,0.2,0.6,0.4,0.7,0.8
					c0.2,0.3,0.2,0.7,0.2,1.1c0,0.5-0.1,1-0.4,1.3s-0.7,0.7-1.3,0.9c0.5,0.1,0.9,0.4,1.1,0.7c0.3,0.3,0.4,0.7,0.4,1.1
					c0,0.6-0.2,1.1-0.5,1.6s-0.8,0.9-1.3,1.1c-0.6,0.2-1.3,0.3-2.3,0.3H1073.8z M1076,21.1h1.8c0.8,0,1.3,0,1.6-0.1s0.5-0.3,0.6-0.5
					c0.2-0.2,0.2-0.5,0.2-0.7c0-0.3-0.1-0.6-0.3-0.8s-0.6-0.3-1.1-0.3h-2.3L1076,21.1z M1076.9,17.1h1.5c0.7,0,1.1,0,1.4-0.1
					c0.3-0.1,0.5-0.2,0.6-0.5s0.2-0.4,0.2-0.7c0-0.2-0.1-0.4-0.2-0.6c-0.1-0.2-0.3-0.3-0.6-0.3c-0.1,0-0.5,0-1,0h-1.5L1076.9,17.1z"
					/>
				<path fill="#FFFFFF" d="M1089.3,20.6h-3.7l-1.1,2.1h-2l5.3-9.3h2.1l1.5,9.3h-1.8L1089.3,20.6z M1089.1,19l-0.5-3.7l-2.2,3.7
					H1089.1z"/>
				<path fill="#FFFFFF" d="M1100,22.6h-1.8l-2.5-6.3l-1.3,6.3h-1.8l1.9-9.3h1.8l2.5,6.2l1.3-6.2h1.8L1100,22.6z"/>
				<path fill="#FFFFFF" d="M1102,22.6l1.9-9.3h1.9l-0.8,4l4.3-4h2.6l-4.2,3.6l3.1,5.7h-2.2l-2.3-4.4l-1.8,1.6l-0.6,2.9H1102z"/>
			</g>
		</g>
		<g>
			<defs>
				<rect id="SVGID_8_" x="1043.1" width="77.4" height="50"/>
			</defs>
			<clipPath id="SVGID_9_">
				<use xlink:href="#SVGID_8_"  overflow="visible"/>
			</clipPath>
			<g clip-path="url(#SVGID_9_)">
				<path fill="#FFFFFF" d="M1052.1,37.6h-1.9l1.6-7.7h-2.7l0.3-1.6h7.3l-0.3,1.6h-2.7L1052.1,37.6z"/>
				<path fill="#FFFFFF" d="M1058,37.6h-1.9l1.9-9.3h4.1c0.7,0,1.3,0.1,1.7,0.2c0.4,0.1,0.7,0.4,1,0.8c0.2,0.4,0.4,0.9,0.4,1.4
					c0,0.8-0.2,1.4-0.7,2s-1.2,0.8-2.2,1c0.2,0.2,0.5,0.5,0.7,0.9c0.4,0.7,0.9,1.8,1.4,3.1h-2.1c-0.2-0.5-0.5-1.3-1-2.5
					c-0.3-0.6-0.5-1-0.8-1.2c-0.2-0.1-0.5-0.2-1-0.2h-0.8L1058,37.6z M1059.1,32.4h1c1,0,1.7-0.1,2-0.2c0.3-0.1,0.6-0.3,0.8-0.6
					c0.2-0.3,0.3-0.5,0.3-0.8c0-0.3-0.1-0.6-0.4-0.8c-0.2-0.1-0.5-0.2-1.1-0.2h-2.1L1059.1,32.4z"/>
				<path fill="#FFFFFF" d="M1071.5,35.6h-3.7l-1.1,2.1h-2l5.3-9.3h2.1l1.5,9.3h-1.8L1071.5,35.6z M1071.3,34l-0.5-3.7l-2.2,3.7
					H1071.3z"/>
				<path fill="#FFFFFF" d="M1082.3,37.6h-1.8l-2.5-6.3l-1.3,6.3h-1.8l1.9-9.3h1.8l2.5,6.2l1.3-6.2h1.8L1082.3,37.6z"/>
				<path fill="#FFFFFF" d="M1084.5,34.6l1.8-0.1c0,0.6,0.1,1,0.3,1.2c0.3,0.3,0.8,0.5,1.5,0.5c0.6,0,1.1-0.1,1.4-0.3
					c0.3-0.2,0.4-0.5,0.4-0.8c0-0.3-0.1-0.5-0.3-0.7c-0.2-0.1-0.6-0.4-1.3-0.7s-1.2-0.6-1.6-0.8s-0.6-0.5-0.8-0.8
					c-0.2-0.3-0.3-0.7-0.3-1.2c0-0.8,0.3-1.4,0.9-1.9c0.6-0.5,1.4-0.8,2.5-0.8c1.1,0,1.9,0.3,2.5,0.8c0.6,0.5,0.9,1.2,1,2l-1.8,0.1
					c0-0.4-0.2-0.8-0.5-1c-0.3-0.2-0.7-0.4-1.2-0.4c-0.5,0-0.9,0.1-1.1,0.3s-0.3,0.4-0.3,0.7c0,0.3,0.1,0.5,0.3,0.7
					c0.2,0.2,0.7,0.4,1.4,0.7c1.1,0.5,1.8,0.8,2,1.1c0.4,0.4,0.7,1,0.7,1.6c0,0.8-0.3,1.5-1,2.1c-0.6,0.6-1.6,0.9-2.7,0.9
					c-0.8,0-1.5-0.1-2.1-0.4s-1-0.6-1.2-1.1C1084.6,35.8,1084.5,35.2,1084.5,34.6z"/>
				<path fill="#FFFFFF" d="M1092.8,37.6l1.9-9.3h6.5l-0.3,1.6h-4.6l-0.5,2.2h4.5l-0.3,1.6h-4.5l-0.8,4L1092.8,37.6L1092.8,37.6z"/>
				<path fill="#FFFFFF" d="M1100.8,37.6l1.9-9.3h6.9l-0.3,1.6h-5l-0.4,2.1h4.8l-0.3,1.6h-4.8l-0.6,2.5h5.4l-0.3,1.6L1100.8,37.6
					L1100.8,37.6z"/>
				<path fill="#FFFFFF" d="M1111.4,37.6h-1.9l1.9-9.3h4.1c0.7,0,1.3,0.1,1.7,0.2s0.7,0.4,1,0.8s0.4,0.9,0.4,1.4
					c0,0.8-0.2,1.4-0.7,2c-0.5,0.5-1.2,0.8-2.2,1c0.2,0.2,0.5,0.5,0.7,0.9c0.4,0.7,0.9,1.8,1.4,3.1h-2.1c-0.2-0.5-0.5-1.3-1-2.5
					c-0.3-0.6-0.5-1-0.8-1.2c-0.2-0.1-0.5-0.2-1-0.2h-0.8L1111.4,37.6z M1112.5,32.4h1c1,0,1.7-0.1,2-0.2c0.3-0.1,0.6-0.3,0.8-0.6
					c0.2-0.3,0.3-0.5,0.3-0.8c0-0.3-0.1-0.6-0.4-0.8c-0.2-0.1-0.5-0.2-1.1-0.2h-2.1L1112.5,32.4z"/>
			</g>
		</g>
		<g>
			<defs>
				<rect id="SVGID_10_" x="1043.1" width="77.4" height="50"/>
			</defs>
			<clipPath id="SVGID_11_">
				<use xlink:href="#SVGID_10_"  overflow="visible"/>
			</clipPath>
			<rect x="1048.6" y="21.7" clip-path="url(#SVGID_11_)" fill="#FFFFFF" width="15" height="0.7"/>
		</g>
		<g>
			<defs>
				<rect id="SVGID_12_" x="1043.1" width="77.4" height="50"/>
			</defs>
			<clipPath id="SVGID_13_">
				<use xlink:href="#SVGID_12_"  overflow="visible"/>
			</clipPath>
			<rect x="1048.6" y="17.6" clip-path="url(#SVGID_13_)" fill="#FFFFFF" width="18.4" height="0.7"/>
		</g>
		<g>
			<defs>
				<rect id="SVGID_14_" x="1043.1" width="77.4" height="50"/>
			</defs>
			<clipPath id="SVGID_15_">
				<use xlink:href="#SVGID_14_"  overflow="visible"/>
			</clipPath>
			<rect x="1048.6" y="13.4" clip-path="url(#SVGID_15_)" fill="#FFFFFF" width="21.7" height="0.7"/>
		</g>
	</g>
</g>
<g>
	<path fill="#E79A3A" d="M1141.1,29.2c1.6,0,3.2,0,4.7,0c0.7,0,1.5-0.1,2.2,0c0.5,0,0.8-0.2,0.9-0.6c0.4-1.1,1-2.1,1.5-3.1
		c0.2-0.4,0-0.5-0.3-0.5c-2-0.2-4.1-0.5-6.1-0.7c-2-0.2-4-0.5-6-0.8c-0.4-0.1-0.8,0-1.2-0.3c0.2,0,0.4,0,0.6,0c4.5,0,9,0,13.4,0
		c0.2,0,0.3,0,0.5,0c0.3,0,0.3-0.3,0.4-0.5c0-0.2-0.2-0.2-0.3-0.2c-1.3-0.3-2.7-0.5-4-0.7c-0.7-0.1-1.3-0.3-2-0.4
		c-0.8-0.1-1.6-0.3-2.4-0.5c0.2,0,0.4,0,0.5,0c2.4,0,4.7,0,7.1,0c0.4,0,0.6,0,0.7-0.4c0-0.2,0.2-0.3,0.3-0.5
		c0.1-0.3,0.3-0.4,0.6-0.4c0.3,0,0.6,0,1,0c0.2,0,0.3-0.1,0.3-0.3c0-0.2-0.2-0.1-0.3-0.1c-1.5-0.2-2.9-0.4-4.4-0.5
		c-1.9-0.2-3.9-0.4-5.8-0.7c-1.2-0.2-2.4-0.2-3.6-0.5c2.1,0,4.1,0,6.1,0c2.9,0,5.8,0,8.7,0c0.2,0,0.3,0,0.5,0
		c0.2-0.1,0.4-0.2,0.4-0.4c0-0.2-0.3-0.2-0.4-0.2c-2.8-0.3-5.5-0.7-8.3-1c-0.8-0.1-1.6-0.2-2.4-0.4c1.1,0,2.2,0,3.4,0
		c4,0,7.9,0,11.9-0.1c1,0,1.9,0.1,2.8,0.2c0.3,0,0.3,0.1,0.1,0.3c-0.5,0.7-0.9,1.4-1.4,2c-0.1,0.1-0.2,0.2-0.4,0.1
		c-0.3,0-0.5,0-0.8-0.1c-1.1-0.1-1.6,0.7-2,1.4c-0.1,0.3,0.1,0.3,0.2,0.3c0.5,0,1,0,1.5,0c0.1,0.2-0.1,0.4-0.2,0.5
		c-0.4,0.6-0.6,1.4-1,2c0,0.1-0.1,0.1,0,0.2c0.1,0.1,0.1,0,0.2,0c0,0,0.1-0.1,0.1-0.2c1.4-1.8,3.3-2.5,5.5-2.7
		c1.4-0.1,2.7-0.1,4.1,0.1c1.3,0.2,1.9,1.1,1.6,2.4c-0.3,1.3-1.1,2.4-1.6,3.6c-0.5,1.1-1.1,2.2-1.6,3.3c-0.1,0.3-0.2,0.7-0.2,1
		c0,0.3-0.1,0.4-0.4,0.3c-1.1,0-2.1,0-3.2,0c-0.3,0-0.4-0.1-0.3-0.4c0-0.2,0.1-0.5,0.1-0.8c-0.7,0.3-1.3,0.7-1.9,0.9
		c-1.4,0.4-2.8,0.7-4.2,0.3c-1.1-0.3-1.7-1.2-1.3-2.3c0.7-2,2.1-3.1,4.1-3.6c1.5-0.3,3-0.6,4.4-0.9c0.5-0.1,1.1-0.2,1.6-0.4
		c0.4-0.2,0.5-0.5,0.5-0.9c0-0.3-0.3-0.4-0.6-0.4c-0.8-0.1-1.6,0.1-2.3,0.3c-0.2,0-0.3,0.2-0.4,0.4c-0.3,0.5-0.7,0.5-1.2,0.5
		c-0.8-0.1-1.7-0.2-2.5-0.3c-0.4-0.1-0.7-0.1-1.1-0.1c-0.4,0-0.8,0-1.2,0c-0.3,0-0.4,0.1-0.5,0.3c-1.2,2.3-2.3,4.6-3.5,6.9
		c-0.2,0.3-0.3,0.5-0.7,0.4c-3.1-0.3-6.2-0.6-9.4-0.9C1141.9,29.4,1141.5,29.5,1141.1,29.2z M1164.2,25.3c-1.1,0.3-2.2,0.6-3.3,0.9
		c-0.6,0.2-1.1,0.6-1.4,1.3c-0.1,0.4,0.1,0.8,0.5,0.8C1161.8,28.4,1163.7,27.2,1164.2,25.3z"/>
	<path fill="#547BB0" d="M1220.8,26.6c0.4-1.3,0.7-2.5,1.1-3.8c0.3-0.9,0.5-1.9,0.8-2.8c0.1-0.2,0.1-0.4,0.4-0.4c1.3,0,2.5,0,3.8,0
		c-0.3,0.8-0.6,1.6-0.9,2.3c-0.6,1.6-1.2,3.2-1.8,4.8c-0.6,1.5-1.1,3-1.7,4.5c0,0,0,0,0,0c-1,2.6-2.1,3.3-4.9,3.3
		c-7.6,0-15.1,0-22.7,0c-0.5,0-0.6-0.1-0.4-0.6c0.2-0.5,0.3-1.1,0.3-1.7c0-0.4,0.2-0.5,0.6-0.5c2.9,0,5.8,0,8.8,0
		c4.1,0,8.2,0,12.3,0c0.3,0,0.6,0,1-0.1c0.9-0.3,1.3-1.2,0.9-2c-1.4-3.2-2.7-6.4-4.1-9.6c-0.2-0.4-0.1-0.5,0.3-0.5
		c1.1,0,2.2,0,3.4,0c0.4,0,0.5,0.1,0.6,0.5c0.6,2,1.3,4.1,1.9,6.1C1220.6,26.4,1220.6,26.5,1220.8,26.6z"/>
	<path fill="#547BB0" d="M1192.6,19.7c0.6,0,1.2,0,1.8,0c0.3,0,0.4,0.1,0.4,0.4c0,0.4,0,0.7,0,1.1c0.2,0,0.3-0.2,0.4-0.3
		c1.1-1.3,2.5-1.6,4.1-1.3c1.5,0.3,2.4,1.3,3,2.8c0.5,1.2,0.7,2.5,0.5,3.8c-0.3,2-1,3.8-3.4,4.4c-1.5,0.4-2.7,0.1-4.2-1.1
		c-0.2,0.4-0.2,0.8-0.3,1.2c-0.3,1.2-0.6,2.3-0.8,3.5c-0.1,0.3-0.2,0.4-0.5,0.4c-1.3,0-2.7,0-4,0c-0.3,0-0.4-0.1-0.3-0.4
		c0.3-1.2,0.6-2.5,0.9-3.7c0.2-0.6,0.6-1.1,0.8-1.6c0.3-0.9,0.7-1.7,1.1-2.5c0.6-1.3,1.3-2.6,1.7-3.9
		C1194.2,21.2,1194.1,20,1192.6,19.7z M1195.1,24.8c0,0.8,0,1.4,0.3,1.9c0.4,0.6,0.9,0.9,1.7,0.8c0.6,0,1.1-0.4,1.3-1
		c0.4-1,0.4-2,0-3c-0.4-1.2-1.8-1.4-2.7-0.6C1195.1,23.6,1195.1,24.3,1195.1,24.8z"/>
	<path fill="#547BB0" d="M1215.3,30.4c-1.3,0-2.5,0-3.7,0c-0.2,0-0.3-0.1-0.4-0.3c-0.1-0.3-0.2-0.6-0.3-1c-0.7,0.6-1.4,1.1-2.3,1.3
		c-1.2,0.3-2.5,0.4-3.7,0c-1.3-0.4-2.2-1.5-2.2-2.8c0-1.4,0.6-2.3,2-2.8c1.2-0.5,2.6-0.6,3.9-0.9c0.5-0.1,0.9-0.3,1.4-0.4
		c0.2-0.1,0.5,0,0.5-0.4c0-0.4-0.1-0.7-0.4-0.9c-0.8-0.6-2.6-0.2-3,0.7c-0.1,0.3-0.3,0.3-0.6,0.3c-1.1-0.1-2.1-0.2-3.2-0.3
		c-0.3,0-0.3-0.2-0.3-0.4c0.5-1.8,1.7-2.5,3.4-2.8c1.6-0.2,3.2-0.2,4.9,0c2.2,0.3,3.1,1.7,3.2,3.8c0.1,1.5,0,3.1,0,4.6
		C1214.8,28.9,1214.9,29.6,1215.3,30.4z M1208.3,28.4c1.7,0,2.7-1.1,2.5-2.7c0-0.3-0.2-0.3-0.3-0.2c-0.8,0.4-1.7,0.4-2.6,0.8
		c-0.6,0.3-0.9,0.7-0.8,1.2C1207.2,28.1,1207.5,28.3,1208.3,28.4z"/>
	<path fill="#E79A3A" d="M1192.6,19.7c1.5,0.3,1.6,1.5,1.2,2.8c-0.5,1.3-1.1,2.6-1.7,3.9c-0.4,0.8-0.8,1.6-1.1,2.5
		c-0.2,0.6-0.6,1-0.8,1.6c-2.7,0.2-5.4,0.3-8,0.1c-0.6,0-1.3-0.1-1.8-0.3c-0.9-0.3-1.3-1.1-1-2c0.6-1.9,1.8-3.2,3.8-3.8
		c1.3-0.4,2.7-0.5,4-0.5c1.2,0,2.4-0.2,3.6-0.3c0.4,0,1-1,1-1.5c0-0.4-0.3-0.7-0.9-0.8c-1.4-0.2-2.8,0-4.2,0.4
		c-0.5,0.1-0.9,0.5-1.1,1c-0.4,0.9-0.7,1-1.6,0.9c-0.1,0-0.2,0-0.2-0.1c-0.8-0.2-0.8-0.3-0.5-1c0.2-0.6,0.5-1.1,0.8-1.5
		c0.8-0.9,1.9-1.2,3-1.4c1.1-0.2,2.2-0.3,3.4-0.2C1191,19.5,1191.8,19.4,1192.6,19.7z M1185.2,29.8L1185.2,29.8c0.2,0,0.5,0,0.7,0
		c0.5,0.1,0.7-0.2,0.7-0.6c0.1-1.1,0.3-2.1,0.9-3c0.4-0.5,0.1-1.2-0.5-1.3c-0.9-0.1-1.9,0.9-1.7,1.8c0,0.2,0,0.4-0.1,0.5
		c-0.4,0.7-0.8,1.5-1.2,2.2c-0.2,0.4-0.2,0.5,0.3,0.5C1184.6,29.8,1184.9,29.8,1185.2,29.8z"/>
	<path fill="#E79A3A" d="M1177.6,19.4c0.6,0,1.4,0,2.2,0.2c1.3,0.3,1.6,1.3,1.6,2.4c0,0.2-0.1,0.2-0.3,0.3c-1.2,0.1-2.3,0.2-3.5,0.4
		c-0.2,0-0.4,0-0.3-0.3c0-0.6-0.4-0.8-0.8-0.8c-0.7-0.1-1.5,0.1-2,0.7c-0.1,0.2-0.2,0.3-0.2,0.5c0.1,0.3,0.5,0.4,0.7,0.4
		c1,0,2,0.3,3,0.5c1.7,0.3,2.3,1.5,1.5,3.2c-0.8,1.7-2.3,2.7-4.1,3.2c-1.9,0.6-3.8,0.6-5.8,0.3c-1.5-0.2-2.2-1.3-1.9-2.8
		c0-0.2,0.1-0.3,0.4-0.3c1.2-0.1,2.4-0.2,3.6-0.4c0.3,0,0.4,0,0.4,0.3c0,0.6,0.2,0.9,0.8,0.9c0.9,0.1,1.7,0,2.4-0.7
		c0.4-0.5,0.4-0.8-0.3-1c-0.6-0.2-1.2-0.3-1.7-0.4c-0.6-0.1-1.2-0.2-1.8-0.4c-1.2-0.4-1.6-1.6-1-2.8c0.9-1.7,2.2-2.7,4.1-3.1
		C1175.5,19.5,1176.5,19.4,1177.6,19.4z"/>
</g>
<g>
	<polygon fill="#FFFFFF" points="641.8,0 721.9,0 721.9,50 641.8,50 641.8,0 	"/>
	<path fill-rule="evenodd" clip-rule="evenodd" fill="#00579F" d="M721.9,38.5l0,11.5h-80.1l-0.1-50l3.5,0v34.6
		c0,2.1,1.7,3.9,3.9,3.9H721.9L721.9,38.5z"/>
	<polygon fill-rule="evenodd" clip-rule="evenodd" fill="#00579F" points="672.1,29.7 675.7,7.8 681.3,7.8 677.8,29.7 672.1,29.7
		"/>
	<path fill-rule="evenodd" clip-rule="evenodd" fill="#00579F" d="M698.4,8.3c-1.1-0.4-2.9-0.9-5.1-0.9c-5.6,0-9.5,3-9.6,7.3
		c0,3.2,2.8,4.9,5,6c2.2,1.1,2.9,1.8,2.9,2.7c0,1.5-1.8,2.1-3.4,2.1c-2.3,0-3.5-0.4-5.3-1.2l-0.7-0.4l-0.8,4.9
		c1.3,0.6,3.8,1.1,6.3,1.2c6,0,9.8-2.9,9.9-7.5c0-2.5-1.5-4.4-4.8-6c-2-1-3.2-1.7-3.2-2.7c0-0.9,1-1.9,3.3-1.9
		c1.8,0,3.2,0.4,4.2,0.8l0.5,0.2L698.4,8.3L698.4,8.3z"/>
	<path fill-rule="evenodd" clip-rule="evenodd" fill="#00579F" d="M705.9,21.9c0.5-1.3,2.3-6.1,2.3-6.1c0,0,0.5-1.3,0.7-2.1l0.4,1.9
		c0,0,1.1,5.3,1.3,6.3C709.7,21.9,707,21.9,705.9,21.9L705.9,21.9z M712.9,7.8h-4.4c-1.4,0-2.4,0.4-3,1.8l-8.4,20.1h6
		c0,0,1-2.7,1.2-3.3c0.7,0,6.4,0,7.3,0c0.2,0.8,0.7,3.3,0.7,3.3h5.3L712.9,7.8L712.9,7.8z"/>
	<path fill-rule="evenodd" clip-rule="evenodd" fill="#00579F" d="M667.4,7.8l-5.6,15l-0.6-3c-1-3.5-4.2-7.3-7.8-9.2l5.1,19.2h6
		l8.9-21.9H667.4L667.4,7.8z"/>
	<path fill-rule="evenodd" clip-rule="evenodd" fill="#FAA61A" d="M656.7,7.8h-9.1l-0.1,0.4c7.1,1.8,11.8,6.2,13.8,11.5l-2-10.1
		C658.9,8.2,657.9,7.8,656.7,7.8L656.7,7.8z"/>
	<path fill-rule="evenodd" clip-rule="evenodd" fill="#FFFFFF" d="M674.7,47.3h0.9l0,0l2.5,0l0.1-0.9l-2.5,0l0.3-2l1.9,0l0.1-0.9
		l-1.9,0l0.2-1.8l2.4,0l0.1-0.9l-3.3,0L674.7,47.3L674.7,47.3z M683.8,47.3h0.9l0,0l2.5,0l0.1-0.9l-2.5,0l0.3-2l1.9,0l0.1-0.9
		l-1.9,0l0.2-1.8l2.4,0l0.1-0.9l-3.3,0L683.8,47.3L683.8,47.3z M679.3,47.3h0.9l0,0l2.5,0l0.1-0.9l-2.5,0l0.9-5.7l-1,0L679.3,47.3
		L679.3,47.3z M695.7,47.3h0.9l0,0l0.1,0l0.7-5.6l2.1,0l0.1-0.9l-4.9,0l-0.1,0.9h1.9L695.7,47.3L695.7,47.3z M699.7,47.3l0.9,0h0
		h0.1l0.3-2.8l0.5,0l1.5,2.8h1l-1.5-2.8c1.9-0.5,2.4-3.8,0.1-3.8l-2,0L699.7,47.3L699.7,47.3z M701.2,43.7h1.1
		c0.9,0,1.4-2.2,0.4-2.2l-1.2,0L701.2,43.7L701.2,43.7z M708.7,40.5c1.6,0,2.7,1.6,2.5,3.5c-0.2,1.9-1.7,3.5-3.3,3.5
		c-1.6,0-2.7-1.6-2.5-3.5C705.6,42,707.1,40.5,708.7,40.5L708.7,40.5z M708.6,41.3c1.1,0,1.9,1.3,1.8,2.7s-1.2,2.7-2.4,2.7
		c-1.1,0-1.9-1.3-1.8-2.7C706.4,42.6,707.4,41.3,708.6,41.3L708.6,41.3z M712,47.3l0.9,0h0h0.1l0.7-5.1l2.5,5.1h0.8l0.9-6.6H717
		l-0.7,4.7l-2.3-4.7h-0.9L712,47.3L712,47.3z M691.9,40.5c0.7,0,1.3,0.3,1.8,0.8l-0.5,0.9c-0.3-0.4-0.8-0.7-1.4-0.7
		c-1.2,0-2.3,1.1-2.5,2.5s0.7,2.5,1.8,2.5c0.6,0,1.2-0.3,1.6-0.7v1.1c-0.5,0.4-1.1,0.6-1.7,0.6c-1.6,0-2.8-1.6-2.6-3.5
		C688.8,42,690.3,40.5,691.9,40.5L691.9,40.5z"/>
</g>
</svg>
